<?xml version="1.0" encoding="UTF-8" standalone="no" ?>
<!DOCTYPE svg PUBLIC "-//W3C//DTD SVG 1.1//EN" "http://www.w3.org/Graphics/SVG/1.1/DTD/svg11.dtd">
<svg xmlns="http://www.w3.org/2000/svg" xmlns:xlink="http://www.w3.org/1999/xlink" version="1.1" width="350" height="350" viewBox="0 0 350 350" xml:space="preserve">
<desc>Created with Fabric.js 1.7.22</desc>
<defs>
</defs>
<g id="icon" style="stroke: none; stroke-width: 1; stroke-dasharray: none; stroke-linecap: butt; stroke-linejoin: miter; stroke-miterlimit: 10; fill: none; fill-rule: nonzero; opacity: 1;" transform="translate(-1.9444444444444287 -1.9444444444444287) scale(3.89 3.89)" >
	<path d="M 62.068 89 H 27.932 c -1.896 0 -3.433 -1.537 -3.433 -3.433 v -8.841 c 0 -1.896 1.537 -3.433 3.433 -3.433 h 34.137 c 1.896 0 3.433 1.537 3.433 3.433 v 8.841 C 65.502 87.463 63.965 89 62.068 89 z" style="stroke: none; stroke-width: 1; stroke-dasharray: none; stroke-linecap: butt; stroke-linejoin: miter; stroke-miterlimit: 10; fill: rgb(243,83,58); fill-rule: nonzero; opacity: 1;" transform=" matrix(1 0 0 1 0 0) " stroke-linecap="round" />
	<path d="M 62.068 90 H 27.932 c -2.445 0 -4.434 -1.989 -4.434 -4.434 v -8.841 c 0 -2.444 1.989 -4.434 4.434 -4.434 h 34.137 c 2.444 0 4.434 1.989 4.434 4.434 v 8.841 C 66.502 88.011 64.513 90 62.068 90 z M 27.932 74.292 c -1.342 0 -2.434 1.092 -2.434 2.434 v 8.841 c 0 1.342 1.092 2.434 2.434 2.434 h 34.137 c 1.342 0 2.434 -1.092 2.434 -2.434 v -8.841 c 0 -1.342 -1.092 -2.434 -2.434 -2.434 H 27.932 z" style="stroke: none; stroke-width: 1; stroke-dasharray: none; stroke-linecap: butt; stroke-linejoin: miter; stroke-miterlimit: 10; fill: rgb(29,29,27); fill-rule: nonzero; opacity: 1;" transform=" matrix(1 0 0 1 0 0) " stroke-linecap="round" />
	<path d="M 45 84.459 c 17.832 0 33.201 -11.486 35.783 -27.129 c 1.606 -9.734 1.606 -19.468 0 -29.202 C 78.201 12.486 62.832 1 45 1 C 27.168 1 11.799 12.486 9.217 28.129 c -1.606 9.734 -1.606 19.468 0 29.202 C 11.799 72.973 27.168 84.459 45 84.459 z" style="stroke: none; stroke-width: 1; stroke-dasharray: none; stroke-linecap: butt; stroke-linejoin: miter; stroke-miterlimit: 10; fill: rgb(255,108,82); fill-rule: nonzero; opacity: 1;" transform=" matrix(1 0 0 1 0 0) " stroke-linecap="round" />
	<path d="M 45 85.459 c -18.331 0 -34.138 -12.022 -36.77 -27.966 c -1.617 -9.796 -1.617 -19.73 0 -29.527 C 10.862 12.023 26.669 0 45 0 s 34.139 12.023 36.77 27.966 c 1.617 9.797 1.617 19.731 0 29.527 C 79.139 73.437 63.331 85.459 45 85.459 z M 45 2 C 27.637 2 12.678 13.303 10.204 28.292 c -1.581 9.581 -1.581 19.295 0 28.875 C 12.677 72.156 27.637 83.459 45 83.459 s 32.322 -11.303 34.797 -26.292 c 1.581 -9.58 1.581 -19.295 0 -28.875 C 77.322 13.303 62.363 2 45 2 z" style="stroke: none; stroke-width: 1; stroke-dasharray: none; stroke-linecap: butt; stroke-linejoin: miter; stroke-miterlimit: 10; fill: rgb(29,29,27); fill-rule: nonzero; opacity: 1;" transform=" matrix(1 0 0 1 0 0) " stroke-linecap="round" />
	<path d="M 45 50.202 c 12.538 0 23.344 -5.706 25.159 -13.478 c 1.13 -4.836 1.13 -9.672 0 -14.508 C 68.344 14.445 57.538 8.738 45 8.738 s -23.344 5.706 -25.159 13.478 c -1.13 4.836 -1.13 9.672 0 14.508 C 21.656 44.496 32.462 50.202 45 50.202 z" style="stroke: none; stroke-width: 1; stroke-dasharray: none; stroke-linecap: butt; stroke-linejoin: miter; stroke-miterlimit: 10; fill: rgb(255,215,209); fill-rule: nonzero; opacity: 1;" transform=" matrix(1 0 0 1 0 0) " stroke-linecap="round" />
	<path d="M 45 51.202 c -13.214 0 -24.205 -5.993 -26.133 -14.25 c -1.16 -4.964 -1.16 -9.999 0 -14.963 C 20.795 13.731 31.786 7.738 45 7.738 s 24.204 5.993 26.133 14.25 c 1.16 4.964 1.16 9.999 0 14.963 C 69.204 45.209 58.214 51.202 45 51.202 z M 45 9.738 c -12.096 0 -22.494 5.462 -24.186 12.706 c -1.089 4.662 -1.089 9.391 0 14.053 C 22.506 43.74 32.904 49.202 45 49.202 c 12.096 0 22.493 -5.462 24.186 -12.706 c 1.089 -4.662 1.089 -9.391 0 -14.053 C 67.493 15.201 57.096 9.738 45 9.738 z" style="stroke: none; stroke-width: 1; stroke-dasharray: none; stroke-linecap: butt; stroke-linejoin: miter; stroke-miterlimit: 10; fill: rgb(29,29,27); fill-rule: nonzero; opacity: 1;" transform=" matrix(1 0 0 1 0 0) " stroke-linecap="round" />
	<circle cx="36.506" cy="28.816" r="4.066" style="stroke: none; stroke-width: 1; stroke-dasharray: none; stroke-linecap: butt; stroke-linejoin: miter; stroke-miterlimit: 10; fill: rgb(255,210,120); fill-rule: nonzero; opacity: 1;" transform="  matrix(1 0 0 1 0 0) "/>
	<circle cx="53.496" cy="28.816" r="4.066" style="stroke: none; stroke-width: 1; stroke-dasharray: none; stroke-linecap: butt; stroke-linejoin: miter; stroke-miterlimit: 10; fill: rgb(255,210,120); fill-rule: nonzero; opacity: 1;" transform="  matrix(1 0 0 1 0 0) "/>
	<path d="M 36.508 33.879 c -2.793 0 -5.065 -2.272 -5.065 -5.066 s 2.272 -5.066 5.065 -5.066 c 2.793 0 5.066 2.272 5.066 5.066 S 39.301 33.879 36.508 33.879 z M 36.508 25.747 c -1.69 0 -3.065 1.375 -3.065 3.066 s 1.375 3.066 3.065 3.066 s 3.066 -1.375 3.066 -3.066 S 38.198 25.747 36.508 25.747 z" style="stroke: none; stroke-width: 1; stroke-dasharray: none; stroke-linecap: butt; stroke-linejoin: miter; stroke-miterlimit: 10; fill: rgb(29,29,27); fill-rule: nonzero; opacity: 1;" transform=" matrix(1 0 0 1 0 0) " stroke-linecap="round" />
	<path d="M 53.492 33.879 c -2.794 0 -5.066 -2.272 -5.066 -5.066 s 2.272 -5.066 5.066 -5.066 c 2.793 0 5.065 2.272 5.065 5.066 S 56.285 33.879 53.492 33.879 z M 53.492 25.747 c -1.69 0 -3.066 1.375 -3.066 3.066 s 1.376 3.066 3.066 3.066 s 3.065 -1.375 3.065 -3.066 S 55.183 25.747 53.492 25.747 z" style="stroke: none; stroke-width: 1; stroke-dasharray: none; stroke-linecap: butt; stroke-linejoin: miter; stroke-miterlimit: 10; fill: rgb(29,29,27); fill-rule: nonzero; opacity: 1;" transform=" matrix(1 0 0 1 0 0) " stroke-linecap="round" />
	<path d="M 34.095 40.659 c -1.221 0 -2.405 -0.186 -3.498 -0.558 c -2.364 -0.805 -4.028 -2.379 -4.686 -4.432 c -0.01 -0.031 -0.03 -0.107 -0.037 -0.138 c -0.114 -0.524 0.201 -1.065 0.72 -1.2 c 0.52 -0.135 1.047 0.143 1.204 0.655 c 0.008 0.026 0.025 0.094 0.031 0.121 c 0.446 1.386 1.663 2.504 3.413 3.101 c 1.854 0.632 4.059 0.6 6.207 -0.087 c 1.977 -0.634 3.701 -1.778 4.854 -3.224 c 0.346 -0.431 0.975 -0.501 1.406 -0.158 c 0.432 0.345 0.502 0.974 0.158 1.406 c -1.396 1.75 -3.459 3.128 -5.808 3.88 C 36.742 40.447 35.397 40.659 34.095 40.659 z" style="stroke: none; stroke-width: 1; stroke-dasharray: none; stroke-linecap: butt; stroke-linejoin: miter; stroke-miterlimit: 10; fill: rgb(29,29,27); fill-rule: nonzero; opacity: 1;" transform=" matrix(1 0 0 1 0 0) " stroke-linecap="round" />
	<path d="M 55.905 40.659 c -1.303 0 -2.646 -0.211 -3.964 -0.634 c -2.35 -0.752 -4.412 -2.13 -5.809 -3.88 c -0.345 -0.432 -0.274 -1.061 0.157 -1.406 s 1.062 -0.273 1.405 0.158 c 1.153 1.445 2.878 2.59 4.855 3.224 c 2.148 0.688 4.354 0.72 6.207 0.087 c 1.75 -0.596 2.967 -1.714 3.427 -3.149 c 0.161 -0.528 0.731 -0.861 1.256 -0.701 c 0.528 0.162 0.834 0.684 0.673 1.212 c -0.001 0.004 -0.022 0.095 -0.024 0.099 c -0.657 2.053 -2.322 3.626 -4.687 4.432 C 58.311 40.473 57.126 40.659 55.905 40.659 z" style="stroke: none; stroke-width: 1; stroke-dasharray: none; stroke-linecap: butt; stroke-linejoin: miter; stroke-miterlimit: 10; fill: rgb(29,29,27); fill-rule: nonzero; opacity: 1;" transform=" matrix(1 0 0 1 0 0) " stroke-linecap="round" />
	<path d="M 43.035 23.431 c -0.293 0 -0.584 -0.129 -0.782 -0.376 c -1.153 -1.446 -2.877 -2.591 -4.854 -3.224 c -1.902 -0.608 -3.899 -0.701 -5.624 -0.26 c -0.534 0.139 -1.079 -0.186 -1.217 -0.721 c -0.137 -0.535 0.186 -1.08 0.721 -1.217 c 2.083 -0.534 4.475 -0.43 6.73 0.293 c 2.348 0.752 4.411 2.13 5.808 3.88 c 0.344 0.432 0.274 1.061 -0.158 1.406 C 43.474 23.36 43.253 23.431 43.035 23.431 z" style="stroke: none; stroke-width: 1; stroke-dasharray: none; stroke-linecap: butt; stroke-linejoin: miter; stroke-miterlimit: 10; fill: rgb(29,29,27); fill-rule: nonzero; opacity: 1;" transform=" matrix(1 0 0 1 0 0) " stroke-linecap="round" />
	<path d="M 46.965 23.431 c -0.219 0 -0.438 -0.071 -0.623 -0.218 c -0.432 -0.345 -0.502 -0.974 -0.157 -1.406 c 1.396 -1.75 3.459 -3.128 5.808 -3.88 c 2.256 -0.724 4.646 -0.828 6.73 -0.293 c 0.535 0.137 0.857 0.682 0.721 1.217 c -0.137 0.535 -0.684 0.858 -1.217 0.721 c -1.724 -0.441 -3.721 -0.349 -5.625 0.26 c -1.977 0.634 -3.7 1.778 -4.854 3.224 C 47.55 23.302 47.259 23.431 46.965 23.431 z" style="stroke: none; stroke-width: 1; stroke-dasharray: none; stroke-linecap: butt; stroke-linejoin: miter; stroke-miterlimit: 10; fill: rgb(29,29,27); fill-rule: nonzero; opacity: 1;" transform=" matrix(1 0 0 1 0 0) " stroke-linecap="round" />
	<path d="M 47.439 42.691 h -4.879 c -0.552 0 -1 -0.448 -1 -1 s 0.448 -1 1 -1 h 4.879 c 0.553 0 1 0.448 1 1 S 47.992 42.691 47.439 42.691 z" style="stroke: none; stroke-width: 1; stroke-dasharray: none; stroke-linecap: butt; stroke-linejoin: miter; stroke-miterlimit: 10; fill: rgb(29,29,27); fill-rule: nonzero; opacity: 1;" transform=" matrix(1 0 0 1 0 0) " stroke-linecap="round" />
	<path d="M 66.301 49.89 c 2.412 -1.276 5.412 0.26 5.682 2.975 c 0.944 9.493 -4.096 18.988 -12.993 23.695 c -1.233 0.652 -2.503 1.181 -3.791 1.61 c 7.421 -5.663 11.078 -15.067 9.116 -24.075 C 63.949 52.411 64.779 50.695 66.301 49.89 L 66.301 49.89 z" style="stroke: none; stroke-width: 1; stroke-dasharray: none; stroke-linecap: butt; stroke-linejoin: miter; stroke-miterlimit: 10; fill: rgb(255,210,120); fill-rule: nonzero; opacity: 1;" transform=" matrix(1 0 0 1 0 0) " stroke-linecap="round" />
	<path d="M 52.016 56.826 c 1.635 -1.22 4.028 -0.431 4.54 1.544 c 1.79 6.904 -0.841 14.498 -6.871 18.998 c -0.836 0.624 -1.713 1.16 -2.616 1.625 c 4.831 -5.037 6.45 -12.405 3.964 -18.833 C 50.568 58.958 50.984 57.595 52.016 56.826 L 52.016 56.826 z" style="stroke: none; stroke-width: 1; stroke-dasharray: none; stroke-linecap: butt; stroke-linejoin: miter; stroke-miterlimit: 10; fill: rgb(255,210,120); fill-rule: nonzero; opacity: 1;" transform=" matrix(1 0 0 1 0 0) " stroke-linecap="round" />
	<path d="M 23.699 49.89 c -2.412 -1.276 -5.412 0.26 -5.682 2.975 c -0.944 9.493 4.096 18.988 12.993 23.695 c 1.233 0.652 2.503 1.181 3.791 1.61 c -7.421 -5.663 -11.078 -15.067 -9.116 -24.075 C 26.051 52.411 25.221 50.695 23.699 49.89 L 23.699 49.89 z" style="stroke: none; stroke-width: 1; stroke-dasharray: none; stroke-linecap: butt; stroke-linejoin: miter; stroke-miterlimit: 10; fill: rgb(255,210,120); fill-rule: nonzero; opacity: 1;" transform=" matrix(1 0 0 1 0 0) " stroke-linecap="round" />
	<path d="M 37.984 56.826 c -1.635 -1.22 -4.028 -0.431 -4.54 1.544 c -1.79 6.904 0.841 14.498 6.871 18.998 c 0.836 0.624 1.713 1.16 2.616 1.625 c -4.831 -5.037 -6.45 -12.405 -3.964 -18.833 C 39.432 58.958 39.016 57.595 37.984 56.826 L 37.984 56.826 z" style="stroke: none; stroke-width: 1; stroke-dasharray: none; stroke-linecap: butt; stroke-linejoin: miter; stroke-miterlimit: 10; fill: rgb(255,210,120); fill-rule: nonzero; opacity: 1;" transform=" matrix(1 0 0 1 0 0) " stroke-linecap="round" />
	<path d="M 55.199 79.169 c -0.362 0 -0.707 -0.197 -0.884 -0.532 c -0.229 -0.433 -0.111 -0.966 0.277 -1.263 c 7.173 -5.474 10.605 -14.528 8.745 -23.068 c -0.457 -2.101 0.568 -4.28 2.495 -5.3 l 0 0 c 1.453 -0.767 3.185 -0.76 4.634 0.02 c 1.416 0.76 2.354 2.158 2.512 3.74 c 0.99 9.957 -4.442 19.875 -13.52 24.678 c -1.225 0.647 -2.551 1.211 -3.944 1.675 C 55.411 79.152 55.305 79.169 55.199 79.169 z M 66.769 50.773 c -1.137 0.603 -1.743 1.88 -1.476 3.106 c 1.595 7.325 -0.38 14.993 -5.1 20.822 c 7.354 -4.703 11.644 -13.208 10.795 -21.739 c -0.093 -0.932 -0.628 -1.725 -1.468 -2.176 C 68.659 50.323 67.629 50.32 66.769 50.773 L 66.769 50.773 z" style="stroke: none; stroke-width: 1; stroke-dasharray: none; stroke-linecap: butt; stroke-linejoin: miter; stroke-miterlimit: 10; fill: rgb(29,29,27); fill-rule: nonzero; opacity: 1;" transform=" matrix(1 0 0 1 0 0) " stroke-linecap="round" />
	<path d="M 47.069 79.992 c -0.308 0 -0.608 -0.142 -0.803 -0.402 c -0.292 -0.392 -0.258 -0.938 0.08 -1.29 c 4.602 -4.798 6.074 -11.776 3.753 -17.78 c -0.62 -1.604 -0.078 -3.453 1.317 -4.495 c 0 0 0 -0.001 0.001 -0.001 c 1.049 -0.783 2.419 -0.99 3.658 -0.555 c 1.213 0.427 2.128 1.417 2.447 2.649 c 1.903 7.341 -1.007 15.398 -7.241 20.051 c -0.839 0.626 -1.767 1.202 -2.756 1.712 C 47.381 79.956 47.224 79.992 47.069 79.992 z M 52.614 57.626 c -0.68 0.509 -0.947 1.401 -0.649 2.173 c 1.858 4.805 1.553 10.161 -0.647 14.781 c 4.023 -4.254 5.727 -10.345 4.271 -15.96 c -0.154 -0.596 -0.583 -1.057 -1.175 -1.265 C 53.8 57.141 53.129 57.242 52.614 57.626 L 52.614 57.626 z" style="stroke: none; stroke-width: 1; stroke-dasharray: none; stroke-linecap: butt; stroke-linejoin: miter; stroke-miterlimit: 10; fill: rgb(29,29,27); fill-rule: nonzero; opacity: 1;" transform=" matrix(1 0 0 1 0 0) " stroke-linecap="round" />
	<path d="M 34.801 79.169 c -0.105 0 -0.211 -0.017 -0.316 -0.051 c -1.391 -0.463 -2.718 -1.026 -3.943 -1.675 c -9.077 -4.803 -14.511 -14.72 -13.52 -24.678 c 0.157 -1.583 1.097 -2.981 2.513 -3.741 c 1.45 -0.779 3.181 -0.787 4.632 -0.019 c 0 0 0 0 0 0 c 1.927 1.021 2.953 3.199 2.495 5.3 c -1.86 8.539 1.573 17.594 8.746 23.068 c 0.388 0.297 0.505 0.83 0.277 1.263 C 35.507 78.972 35.163 79.169 34.801 79.169 z M 21.871 50.436 c -0.477 0 -0.955 0.117 -1.391 0.352 c -0.84 0.451 -1.375 1.244 -1.468 2.176 c -0.849 8.531 3.441 17.036 10.795 21.739 c -4.72 -5.83 -6.695 -13.497 -5.099 -20.822 c 0.268 -1.228 -0.34 -2.505 -1.477 -3.106 C 22.805 50.549 22.338 50.436 21.871 50.436 z" style="stroke: none; stroke-width: 1; stroke-dasharray: none; stroke-linecap: butt; stroke-linejoin: miter; stroke-miterlimit: 10; fill: rgb(29,29,27); fill-rule: nonzero; opacity: 1;" transform=" matrix(1 0 0 1 0 0) " stroke-linecap="round" />
	<path d="M 42.931 79.992 c -0.155 0 -0.312 -0.036 -0.458 -0.111 c -0.988 -0.509 -1.915 -1.085 -2.755 -1.712 c -6.234 -4.652 -9.144 -12.71 -7.241 -20.051 c 0.319 -1.232 1.234 -2.223 2.447 -2.649 c 1.241 -0.435 2.609 -0.228 3.658 0.555 c 0 0 0 0 0 0.001 c 1.396 1.042 1.938 2.891 1.318 4.495 c -2.321 6.004 -0.848 12.982 3.753 17.78 c 0.338 0.353 0.372 0.898 0.08 1.29 C 43.539 79.851 43.238 79.992 42.931 79.992 z M 36.234 57.245 c -0.217 0 -0.436 0.036 -0.647 0.11 c -0.592 0.208 -1.021 0.669 -1.174 1.265 c -1.456 5.615 0.247 11.704 4.27 15.959 c -2.199 -4.62 -2.505 -9.977 -0.647 -14.78 c 0.298 -0.771 0.031 -1.664 -0.649 -2.172 l 0 0 C 37.049 57.375 36.645 57.245 36.234 57.245 z" style="stroke: none; stroke-width: 1; stroke-dasharray: none; stroke-linecap: butt; stroke-linejoin: miter; stroke-miterlimit: 10; fill: rgb(29,29,27); fill-rule: nonzero; opacity: 1;" transform=" matrix(1 0 0 1 0 0) " stroke-linecap="round" />
</g>
</svg>