<?xml version="1.0" encoding="UTF-8" standalone="no" ?>
<!DOCTYPE svg PUBLIC "-//W3C//DTD SVG 1.1//EN" "http://www.w3.org/Graphics/SVG/1.1/DTD/svg11.dtd">
<svg xmlns="http://www.w3.org/2000/svg" xmlns:xlink="http://www.w3.org/1999/xlink" version="1.1" width="350" height="350" viewBox="0 0 350 350" xml:space="preserve">
<desc>Created with Fabric.js 1.7.22</desc>
<defs>
</defs>
<g id="icon" style="stroke: none; stroke-width: 1; stroke-dasharray: none; stroke-linecap: butt; stroke-linejoin: miter; stroke-miterlimit: 10; fill: none; fill-rule: nonzero; opacity: 1;" transform="translate(-1.9444444444444287 -1.9444444444444287) scale(3.89 3.89)" >
	<polygon points="50.26,34.09 83.84,34.09 83.84,44.62 6.16,44.62 6.16,34.09 39.74,34.09 " style="stroke: none; stroke-width: 1; stroke-dasharray: none; stroke-linecap: butt; stroke-linejoin: miter; stroke-miterlimit: 10; fill: rgb(243,83,58); fill-rule: nonzero; opacity: 1;" transform="  matrix(1 0 0 1 0 0) "/>
	<path d="M 83.839 45.615 H 6.161 c -0.552 0 -1 -0.448 -1 -1 v -10.52 c 0 -0.552 0.448 -1 1 -1 h 77.678 c 0.553 0 1 0.448 1 1 v 10.52 C 84.839 45.167 84.392 45.615 83.839 45.615 z M 7.161 43.615 h 75.678 v -8.52 H 7.161 V 43.615 z" style="stroke: none; stroke-width: 1; stroke-dasharray: none; stroke-linecap: butt; stroke-linejoin: miter; stroke-miterlimit: 10; fill: rgb(29,29,27); fill-rule: nonzero; opacity: 1;" transform=" matrix(1 0 0 1 0 0) " stroke-linecap="round" />
	<rect x="12.43" y="23.77" rx="0" ry="0" width="10.52" height="62.68" style="stroke: none; stroke-width: 1; stroke-dasharray: none; stroke-linecap: butt; stroke-linejoin: miter; stroke-miterlimit: 10; fill: rgb(243,83,58); fill-rule: nonzero; opacity: 1;" transform=" matrix(1 0 0 1 0 0) "/>
	<rect x="67.06" y="23.77" rx="0" ry="0" width="10.52" height="62.68" style="stroke: none; stroke-width: 1; stroke-dasharray: none; stroke-linecap: butt; stroke-linejoin: miter; stroke-miterlimit: 10; fill: rgb(243,83,58); fill-rule: nonzero; opacity: 1;" transform=" matrix(1 0 0 1 0 0) "/>
	<path d="M 22.945 87.453 h -10.52 c -0.552 0 -1 -0.447 -1 -1 V 23.771 c 0 -0.552 0.448 -1 1 -1 h 10.52 c 0.552 0 1 0.448 1 1 v 62.682 C 23.945 87.006 23.498 87.453 22.945 87.453 z M 13.425 85.453 h 8.52 V 24.771 h -8.52 V 85.453 z" style="stroke: none; stroke-width: 1; stroke-dasharray: none; stroke-linecap: butt; stroke-linejoin: miter; stroke-miterlimit: 10; fill: rgb(29,29,27); fill-rule: nonzero; opacity: 1;" transform=" matrix(1 0 0 1 0 0) " stroke-linecap="round" />
	<path d="M 77.574 87.453 h -10.52 c -0.553 0 -1 -0.447 -1 -1 V 23.771 c 0 -0.552 0.447 -1 1 -1 h 10.52 c 0.553 0 1 0.448 1 1 v 62.682 C 78.574 87.006 78.127 87.453 77.574 87.453 z M 68.055 85.453 h 8.52 V 24.771 h -8.52 V 85.453 z" style="stroke: none; stroke-width: 1; stroke-dasharray: none; stroke-linecap: butt; stroke-linejoin: miter; stroke-miterlimit: 10; fill: rgb(29,29,27); fill-rule: nonzero; opacity: 1;" transform=" matrix(1 0 0 1 0 0) " stroke-linecap="round" />
	<polygon points="83.84,13.43 81.7,23.95 8.3,23.95 6.16,13.43 " style="stroke: none; stroke-width: 1; stroke-dasharray: none; stroke-linecap: butt; stroke-linejoin: miter; stroke-miterlimit: 10; fill: rgb(243,83,58); fill-rule: nonzero; opacity: 1;" transform="  matrix(1 0 0 1 0 0) "/>
	<path d="M 81.697 24.953 H 8.303 c -0.476 0 -0.885 -0.334 -0.98 -0.8 l -2.143 -10.52 c -0.06 -0.294 0.016 -0.6 0.206 -0.833 c 0.19 -0.232 0.474 -0.367 0.774 -0.367 h 77.678 c 0.3 0 0.585 0.135 0.774 0.367 c 0.19 0.232 0.266 0.538 0.205 0.833 l -2.142 10.52 C 82.582 24.618 82.173 24.953 81.697 24.953 z M 9.12 22.953 h 71.76 l 1.735 -8.52 H 7.385 L 9.12 22.953 z" style="stroke: none; stroke-width: 1; stroke-dasharray: none; stroke-linecap: butt; stroke-linejoin: miter; stroke-miterlimit: 10; fill: rgb(29,29,27); fill-rule: nonzero; opacity: 1;" transform=" matrix(1 0 0 1 0 0) " stroke-linecap="round" />
	<path d="M 45 9.546 c -17.216 0 -32.781 -2.685 -44 -7.012 l 1.766 10.296 C 13.828 16.77 28.67 19.186 45 19.186 s 31.172 -2.416 42.234 -6.357 L 89 2.533 C 77.781 6.861 62.216 9.546 45 9.546 z" style="stroke: none; stroke-width: 1; stroke-dasharray: none; stroke-linecap: butt; stroke-linejoin: miter; stroke-miterlimit: 10; fill: rgb(172,167,167); fill-rule: nonzero; opacity: 1;" transform=" matrix(1 0 0 1 0 0) " stroke-linecap="round" />
	<path d="M 45 20.186 c -15.84 0 -30.958 -2.278 -42.569 -6.415 c -0.34 -0.121 -0.589 -0.417 -0.65 -0.773 L 0.014 2.702 C -0.046 2.348 0.088 1.988 0.366 1.76 C 0.644 1.531 1.023 1.47 1.36 1.6 C 12.972 6.079 28.47 8.546 45 8.546 c 16.529 0 32.028 -2.467 43.64 -6.946 c 0.337 -0.13 0.715 -0.069 0.994 0.16 c 0.278 0.228 0.413 0.588 0.352 0.942 l -1.767 10.296 c -0.061 0.356 -0.31 0.652 -0.649 0.773 C 75.959 17.908 60.841 20.186 45 20.186 z M 3.653 12.081 C 14.98 16.021 29.632 18.186 45 18.186 c 15.368 0 30.021 -2.166 41.347 -6.105 l 1.374 -8.004 C 76.088 8.255 61.007 10.546 45 10.546 c -16.008 0 -31.089 -2.291 -42.721 -6.469 L 3.653 12.081 z" style="stroke: none; stroke-width: 1; stroke-dasharray: none; stroke-linecap: butt; stroke-linejoin: miter; stroke-miterlimit: 10; fill: rgb(29,29,27); fill-rule: nonzero; opacity: 1;" transform=" matrix(1 0 0 1 0 0) " stroke-linecap="round" />
	<rect x="10.26" y="78.76" rx="0" ry="0" width="14.86" height="8.71" style="stroke: none; stroke-width: 1; stroke-dasharray: none; stroke-linecap: butt; stroke-linejoin: miter; stroke-miterlimit: 10; fill: rgb(172,167,167); fill-rule: nonzero; opacity: 1;" transform=" matrix(1 0 0 1 0 0) "/>
	<path d="M 25.114 88.467 H 10.257 c -0.552 0 -1 -0.447 -1 -1 V 78.76 c 0 -0.553 0.448 -1 1 -1 h 14.856 c 0.552 0 1 0.447 1 1 v 8.707 C 26.114 88.02 25.666 88.467 25.114 88.467 z M 11.257 86.467 h 12.856 V 79.76 H 11.257 V 86.467 z" style="stroke: none; stroke-width: 1; stroke-dasharray: none; stroke-linecap: butt; stroke-linejoin: miter; stroke-miterlimit: 10; fill: rgb(29,29,27); fill-rule: nonzero; opacity: 1;" transform=" matrix(1 0 0 1 0 0) " stroke-linecap="round" />
	<rect x="39.74" y="23.95" rx="0" ry="0" width="10.52" height="10.14" style="stroke: none; stroke-width: 1; stroke-dasharray: none; stroke-linecap: butt; stroke-linejoin: miter; stroke-miterlimit: 10; fill: rgb(245,216,130); fill-rule: nonzero; opacity: 1;" transform=" matrix(1 0 0 1 0 0) "/>
	<path d="M 50.26 35.095 H 39.74 c -0.552 0 -1 -0.448 -1 -1 V 23.953 c 0 -0.552 0.448 -1 1 -1 h 10.52 c 0.553 0 1 0.448 1 1 v 10.142 C 51.26 34.647 50.813 35.095 50.26 35.095 z M 40.74 33.095 h 8.52 v -8.142 h -8.52 V 33.095 z" style="stroke: none; stroke-width: 1; stroke-dasharray: none; stroke-linecap: butt; stroke-linejoin: miter; stroke-miterlimit: 10; fill: rgb(29,29,27); fill-rule: nonzero; opacity: 1;" transform=" matrix(1 0 0 1 0 0) " stroke-linecap="round" />
	<rect x="64.89" y="78.76" rx="0" ry="0" width="14.86" height="8.71" style="stroke: none; stroke-width: 1; stroke-dasharray: none; stroke-linecap: butt; stroke-linejoin: miter; stroke-miterlimit: 10; fill: rgb(172,167,167); fill-rule: nonzero; opacity: 1;" transform=" matrix(1 0 0 1 0 0) "/>
	<path d="M 79.743 88.467 H 64.887 c -0.553 0 -1 -0.447 -1 -1 V 78.76 c 0 -0.553 0.447 -1 1 -1 h 14.856 c 0.553 0 1 0.447 1 1 v 8.707 C 80.743 88.02 80.296 88.467 79.743 88.467 z M 65.887 86.467 h 12.856 V 79.76 H 65.887 V 86.467 z" style="stroke: none; stroke-width: 1; stroke-dasharray: none; stroke-linecap: butt; stroke-linejoin: miter; stroke-miterlimit: 10; fill: rgb(29,29,27); fill-rule: nonzero; opacity: 1;" transform=" matrix(1 0 0 1 0 0) " stroke-linecap="round" />
</g>
</svg>