<?xml version="1.0" encoding="UTF-8" standalone="no" ?>
<!DOCTYPE svg PUBLIC "-//W3C//DTD SVG 1.1//EN" "http://www.w3.org/Graphics/SVG/1.1/DTD/svg11.dtd">
<svg xmlns="http://www.w3.org/2000/svg" xmlns:xlink="http://www.w3.org/1999/xlink" version="1.1" width="350" height="350" viewBox="0 0 350 350" xml:space="preserve">
<desc>Created with Fabric.js 1.7.22</desc>
<defs>
</defs>
<g id="icon" style="stroke: none; stroke-width: 1; stroke-dasharray: none; stroke-linecap: butt; stroke-linejoin: miter; stroke-miterlimit: 10; fill: none; fill-rule: nonzero; opacity: 1;" transform="translate(-1.9444444444444287 -1.9444444444444287) scale(3.89 3.89)" >
	<path d="M 45 89 c 12.63 0 22.869 -10.578 22.869 -23.628 c 0 -18.183 -17.096 -27.072 -17.096 -45.608 V 2.118 H 39.227 v 17.647 c 0 18.536 -17.096 27.425 -17.096 45.608 C 22.131 78.422 32.37 89 45 89" style="stroke: none; stroke-width: 1; stroke-dasharray: none; stroke-linecap: butt; stroke-linejoin: miter; stroke-miterlimit: 10; fill: rgb(221,153,104); fill-rule: nonzero; opacity: 1;" transform=" matrix(1 0 0 1 0 0) " stroke-linecap="round" />
	<path d="M 45 76.568 c -0.552 0 -1 -0.447 -1 -1 V 4.042 c 0 -0.552 0.448 -1 1 -1 s 1 0.448 1 1 v 71.526 C 46 76.121 45.552 76.568 45 76.568 z" style="stroke: none; stroke-width: 1; stroke-dasharray: none; stroke-linecap: butt; stroke-linejoin: miter; stroke-miterlimit: 10; fill: rgb(29,29,27); fill-rule: nonzero; opacity: 1;" transform=" matrix(1 0 0 1 0 0) " stroke-linecap="round" />
	<path d="M 45 90 c -13.161 0 -23.869 -11.048 -23.869 -24.628 c 0 -9.335 4.392 -16.335 8.639 -23.104 c 4.349 -6.931 8.457 -13.479 8.457 -22.503 V 2.118 c 0 -0.552 0.448 -1 1 -1 h 11.545 c 0.553 0 1 0.448 1 1 v 17.646 c 0 9.024 4.108 15.571 8.457 22.503 c 4.247 6.77 8.64 13.77 8.64 23.104 C 68.869 78.952 58.161 90 45 90 z M 40.228 3.118 v 16.646 c 0 9.6 -4.455 16.7 -8.763 23.566 c -4.286 6.831 -8.333 13.282 -8.333 22.042 C 23.131 77.85 32.941 88 45 88 s 21.869 -10.15 21.869 -22.628 c 0 -8.76 -4.048 -15.211 -8.334 -22.042 c -4.308 -6.866 -8.763 -13.966 -8.763 -23.566 V 3.118 H 40.228 z" style="stroke: none; stroke-width: 1; stroke-dasharray: none; stroke-linecap: butt; stroke-linejoin: miter; stroke-miterlimit: 10; fill: rgb(29,29,27); fill-rule: nonzero; opacity: 1;" transform=" matrix(1 0 0 1 0 0) " stroke-linecap="round" />
	<path d="M 39.228 76.568 c -0.552 0 -1 -0.447 -1 -1 V 18.833 c 0 -0.552 0.448 -1 1 -1 s 1 0.448 1 1 v 56.735 C 40.228 76.121 39.78 76.568 39.228 76.568 z" style="stroke: none; stroke-width: 1; stroke-dasharray: none; stroke-linecap: butt; stroke-linejoin: miter; stroke-miterlimit: 10; fill: rgb(29,29,27); fill-rule: nonzero; opacity: 1;" transform=" matrix(1 0 0 1 0 0) " stroke-linecap="round" />
	<path d="M 50.772 76.568 c -0.553 0 -1 -0.447 -1 -1 V 18.043 c 0 -0.552 0.447 -1 1 -1 s 1 0.448 1 1 v 57.525 C 51.772 76.121 51.325 76.568 50.772 76.568 z" style="stroke: none; stroke-width: 1; stroke-dasharray: none; stroke-linecap: butt; stroke-linejoin: miter; stroke-miterlimit: 10; fill: rgb(29,29,27); fill-rule: nonzero; opacity: 1;" transform=" matrix(1 0 0 1 0 0) " stroke-linecap="round" />
	<path d="M 54.502 78.386 H 35.498 c -1.178 0 -2.133 -0.955 -2.133 -2.133 l 0 0 c 0 -1.178 0.955 -2.133 2.133 -2.133 h 19.003 c 1.178 0 2.133 0.955 2.133 2.133 l 0 0 C 56.634 77.431 55.68 78.386 54.502 78.386 z" style="stroke: none; stroke-width: 1; stroke-dasharray: none; stroke-linecap: butt; stroke-linejoin: miter; stroke-miterlimit: 10; fill: rgb(245,216,130); fill-rule: nonzero; opacity: 1;" transform=" matrix(1 0 0 1 0 0) " stroke-linecap="round" />
	<path d="M 54.502 79.386 H 35.498 c -1.727 0 -3.132 -1.405 -3.132 -3.133 s 1.405 -3.133 3.132 -3.133 h 19.004 c 1.728 0 3.133 1.405 3.133 3.133 S 56.229 79.386 54.502 79.386 z M 35.498 75.12 c -0.625 0 -1.132 0.508 -1.132 1.133 s 0.508 1.133 1.132 1.133 h 19.004 c 0.625 0 1.133 -0.508 1.133 -1.133 s -0.508 -1.133 -1.133 -1.133 H 35.498 z" style="stroke: none; stroke-width: 1; stroke-dasharray: none; stroke-linecap: butt; stroke-linejoin: miter; stroke-miterlimit: 10; fill: rgb(29,29,27); fill-rule: nonzero; opacity: 1;" transform=" matrix(1 0 0 1 0 0) " stroke-linecap="round" />
	<path d="M 54.502 5.265 H 35.498 c -1.178 0 -2.133 -0.955 -2.133 -2.133 l 0 0 C 33.366 1.955 34.32 1 35.498 1 h 19.003 c 1.178 0 2.133 0.955 2.133 2.133 l 0 0 C 56.634 4.31 55.68 5.265 54.502 5.265 z" style="stroke: none; stroke-width: 1; stroke-dasharray: none; stroke-linecap: butt; stroke-linejoin: miter; stroke-miterlimit: 10; fill: rgb(245,216,130); fill-rule: nonzero; opacity: 1;" transform=" matrix(1 0 0 1 0 0) " stroke-linecap="round" />
	<path d="M 54.502 6.265 H 35.498 c -1.727 0 -3.132 -1.405 -3.132 -3.132 C 32.366 1.405 33.771 0 35.498 0 h 19.004 c 1.728 0 3.133 1.405 3.133 3.133 C 57.635 4.86 56.229 6.265 54.502 6.265 z M 35.498 2 c -0.625 0 -1.132 0.508 -1.132 1.133 s 0.508 1.132 1.132 1.132 h 19.004 c 0.625 0 1.133 -0.508 1.133 -1.132 S 55.127 2 54.502 2 H 35.498 z" style="stroke: none; stroke-width: 1; stroke-dasharray: none; stroke-linecap: butt; stroke-linejoin: miter; stroke-miterlimit: 10; fill: rgb(29,29,27); fill-rule: nonzero; opacity: 1;" transform=" matrix(1 0 0 1 0 0) " stroke-linecap="round" />
	<path d="M 54.502 19.697 H 35.498 c -1.178 0 -2.133 -0.955 -2.133 -2.133 l 0 0 c 0 -1.178 0.955 -2.133 2.133 -2.133 h 19.003 c 1.178 0 2.133 0.955 2.133 2.133 l 0 0 C 56.634 18.742 55.68 19.697 54.502 19.697 z" style="stroke: none; stroke-width: 1; stroke-dasharray: none; stroke-linecap: butt; stroke-linejoin: miter; stroke-miterlimit: 10; fill: rgb(245,216,130); fill-rule: nonzero; opacity: 1;" transform=" matrix(1 0 0 1 0 0) " stroke-linecap="round" />
	<path d="M 54.502 20.697 H 35.498 c -1.727 0 -3.132 -1.405 -3.132 -3.132 c 0 -1.728 1.405 -3.133 3.132 -3.133 h 19.004 c 1.728 0 3.133 1.405 3.133 3.133 C 57.635 19.292 56.229 20.697 54.502 20.697 z M 35.498 16.432 c -0.625 0 -1.132 0.508 -1.132 1.133 s 0.508 1.132 1.132 1.132 h 19.004 c 0.625 0 1.133 -0.508 1.133 -1.132 s -0.508 -1.133 -1.133 -1.133 H 35.498 z" style="stroke: none; stroke-width: 1; stroke-dasharray: none; stroke-linecap: butt; stroke-linejoin: miter; stroke-miterlimit: 10; fill: rgb(29,29,27); fill-rule: nonzero; opacity: 1;" transform=" matrix(1 0 0 1 0 0) " stroke-linecap="round" />
	<path d="M 54.253 69.739 c -0.228 0 -0.458 -0.078 -0.646 -0.237 c -0.421 -0.356 -0.474 -0.988 -0.116 -1.409 c 1.51 -1.781 2.341 -4.045 2.341 -6.374 s -0.831 -4.593 -2.341 -6.374 c -0.357 -0.421 -0.305 -1.053 0.116 -1.409 c 0.422 -0.357 1.054 -0.304 1.409 0.116 c 1.815 2.143 2.815 4.865 2.815 7.667 s -1 5.524 -2.815 7.667 C 54.819 69.619 54.537 69.739 54.253 69.739 z" style="stroke: none; stroke-width: 1; stroke-dasharray: none; stroke-linecap: butt; stroke-linejoin: miter; stroke-miterlimit: 10; fill: rgb(29,29,27); fill-rule: nonzero; opacity: 1;" transform=" matrix(1 0 0 1 0 0) " stroke-linecap="round" />
	<path d="M 35.747 69.739 c -0.284 0 -0.565 -0.12 -0.763 -0.354 c -1.816 -2.143 -2.816 -4.865 -2.816 -7.667 s 1 -5.524 2.816 -7.667 c 0.357 -0.422 0.987 -0.474 1.409 -0.116 c 0.421 0.357 0.474 0.988 0.116 1.409 c -1.51 1.781 -2.342 4.045 -2.342 6.374 s 0.832 4.593 2.342 6.374 c 0.357 0.421 0.305 1.052 -0.116 1.409 C 36.205 69.661 35.976 69.739 35.747 69.739 z" style="stroke: none; stroke-width: 1; stroke-dasharray: none; stroke-linecap: butt; stroke-linejoin: miter; stroke-miterlimit: 10; fill: rgb(29,29,27); fill-rule: nonzero; opacity: 1;" transform=" matrix(1 0 0 1 0 0) " stroke-linecap="round" />
</g>
</svg>