<?xml version="1.0" encoding="UTF-8" standalone="no" ?>
<!DOCTYPE svg PUBLIC "-//W3C//DTD SVG 1.1//EN" "http://www.w3.org/Graphics/SVG/1.1/DTD/svg11.dtd">
<svg xmlns="http://www.w3.org/2000/svg" xmlns:xlink="http://www.w3.org/1999/xlink" version="1.1" width="350" height="350" viewBox="0 0 350 350" xml:space="preserve">
<desc>Created with Fabric.js 1.7.22</desc>
<defs>
</defs>
<g id="icon" style="stroke: none; stroke-width: 1; stroke-dasharray: none; stroke-linecap: butt; stroke-linejoin: miter; stroke-miterlimit: 10; fill: none; fill-rule: nonzero; opacity: 1;" transform="translate(-1.9444444444444287 -1.9444444444444287) scale(3.89 3.89)" >
	<path d="M 67.94 38.279 L 63.375 37.7 c -1.36 6.688 -9.702 11.112 -18.105 11.558 c -1.162 -4.159 -0.644 -8.217 2.843 -11.634 c 8.05 -7.761 8.81 -13.462 9.195 -24.908 h -4.827 c -1.192 11.048 -4.769 18.078 -14.022 24.908 c -0.174 0.134 -0.332 0.275 -0.498 0.412 c -6.412 -0.569 -12.588 -4.012 -13.628 -9.124 l -3.626 0.46 c 0.682 6.155 4.754 12.202 13.064 13.818 c -4.536 8.911 5.849 18.694 -1.364 27.026 l 24.901 0 c -3.8 -3.378 -4.919 -8.248 -8.404 -13.48 C 59.958 54.825 67.063 46.188 67.94 38.279 z" style="stroke: none; stroke-width: 1; stroke-dasharray: none; stroke-linecap: butt; stroke-linejoin: miter; stroke-miterlimit: 10; fill: rgb(243,181,137); fill-rule: nonzero; opacity: 1;" transform=" matrix(1 0 0 1 0 0) " stroke-linecap="round" />
	<path d="M 57.309 71.217 H 32.407 c -0.392 0 -0.747 -0.229 -0.91 -0.584 c -0.163 -0.356 -0.103 -0.774 0.154 -1.07 c 3.552 -4.104 2.409 -8.664 1.199 -13.493 c -1 -3.992 -2.032 -8.108 -0.486 -12.17 c -8.359 -2.146 -12.024 -8.758 -12.651 -14.416 c -0.06 -0.543 0.327 -1.034 0.868 -1.103 l 3.625 -0.46 c 0.517 -0.064 1.001 0.28 1.106 0.793 c 0.955 4.695 6.851 7.683 12.328 8.287 c 0.068 -0.057 0.137 -0.113 0.209 -0.168 c 8.736 -6.448 12.428 -13.01 13.638 -24.223 c 0.055 -0.508 0.483 -0.893 0.994 -0.893 h 4.827 c 0.271 0 0.53 0.11 0.719 0.305 s 0.29 0.458 0.28 0.729 c -0.375 11.161 -0.968 17.367 -9.5 25.594 c -2.748 2.693 -3.661 5.926 -2.773 9.859 c 7.147 -0.624 15.094 -4.475 16.361 -10.702 c 0.104 -0.513 0.585 -0.859 1.105 -0.793 l 4.564 0.579 c 0.542 0.069 0.928 0.56 0.868 1.103 c -0.856 7.72 -7.42 16.516 -18.403 19.04 c 0.994 1.632 1.785 3.201 2.555 4.729 c 1.453 2.884 2.708 5.374 4.888 7.313 c 0.311 0.275 0.418 0.715 0.271 1.103 S 57.724 71.217 57.309 71.217 z M 34.383 69.217 h 20.594 c -1.503 -1.843 -2.567 -3.956 -3.678 -6.16 c -0.938 -1.859 -1.906 -3.782 -3.227 -5.766 c -0.188 -0.282 -0.221 -0.639 -0.087 -0.949 c 0.134 -0.312 0.415 -0.533 0.749 -0.591 c 10.404 -1.799 16.816 -9.541 18.07 -16.608 l -2.675 -0.339 c -2.055 6.978 -10.847 11.031 -18.806 11.454 c -0.473 0.018 -0.891 -0.279 -1.016 -0.729 c -1.394 -4.987 -0.349 -9.232 3.105 -12.618 c 7.405 -7.14 8.443 -12.181 8.859 -23.194 h -2.899 c -1.371 11.173 -5.438 18.157 -14.32 24.713 c -0.086 0.066 -0.182 0.148 -0.278 0.23 l -0.176 0.148 c -0.203 0.167 -0.465 0.246 -0.726 0.225 c -5.819 -0.516 -12.563 -3.547 -14.287 -9.018 l -1.748 0.222 c 1.065 6.248 5.534 10.69 12.124 11.972 c 0.308 0.06 0.57 0.261 0.708 0.543 c 0.137 0.282 0.135 0.612 -0.008 0.892 c -1.918 3.77 -0.924 7.737 0.128 11.938 C 35.928 60.124 37.101 64.802 34.383 69.217 z" style="stroke: none; stroke-width: 1; stroke-dasharray: none; stroke-linecap: butt; stroke-linejoin: miter; stroke-miterlimit: 10; fill: rgb(29,29,27); fill-rule: nonzero; opacity: 1;" transform=" matrix(1 0 0 1 0 0) " stroke-linecap="round" />
	<path d="M 33.488 24.366 h -5.493 c 0 -2.21 -1.791 -4.001 -4.001 -4.001 h -9.699 c -2.21 0 -4.001 1.791 -4.001 4.001 H 6.426 c -2.21 0 -4.001 1.791 -4.001 4.001 c 0 2.21 1.791 4.001 4.001 4.001 h 7.845 c 0 2.21 1.791 4.001 4.001 4.001 h 9.699 c 2.21 0 4.001 -1.791 4.001 -4.001 h 1.515 c 2.21 0 4.001 -1.791 4.001 -4.001 C 37.49 26.157 35.698 24.366 33.488 24.366 z" style="stroke: none; stroke-width: 1; stroke-dasharray: none; stroke-linecap: butt; stroke-linejoin: miter; stroke-miterlimit: 10; fill: rgb(177,223,99); fill-rule: nonzero; opacity: 1;" transform=" matrix(1 0 0 1 0 0) " stroke-linecap="round" />
	<path d="M 83.87 30.08 H 66.023 c -2.047 0 -3.706 1.659 -3.706 3.706 h -3.022 c -2.047 0 -3.706 1.659 -3.706 3.706 s 1.659 3.706 3.706 3.706 h 17.847 c 2.047 0 3.706 -1.659 3.706 -3.706 h 3.022 c 2.047 0 3.706 -1.659 3.706 -3.706 S 85.916 30.08 83.87 30.08 z" style="stroke: none; stroke-width: 1; stroke-dasharray: none; stroke-linecap: butt; stroke-linejoin: miter; stroke-miterlimit: 10; fill: rgb(177,223,99); fill-rule: nonzero; opacity: 1;" transform=" matrix(1 0 0 1 0 0) " stroke-linecap="round" />
	<path d="M 77.79 10.091 h -6.24 c 0 -2.511 -2.035 -4.546 -4.546 -4.546 h -0.666 C 66.338 3.035 64.303 1 61.792 1 h -6.566 c -2.511 0 -4.546 2.035 -4.546 4.546 h -9.107 c -2.511 0 -4.546 2.035 -4.546 4.546 h -4.394 c -2.511 0 -4.546 2.035 -4.546 4.546 c 0 2.511 2.035 4.546 4.546 4.546 H 77.79 c 2.511 0 4.546 -2.035 4.546 -4.546 C 82.336 12.127 80.301 10.091 77.79 10.091 z" style="stroke: none; stroke-width: 1; stroke-dasharray: none; stroke-linecap: butt; stroke-linejoin: miter; stroke-miterlimit: 10; fill: rgb(177,223,99); fill-rule: nonzero; opacity: 1;" transform=" matrix(1 0 0 1 0 0) " stroke-linecap="round" />
	<path d="M 27.972 37.37 h -9.699 c -2.416 0 -4.437 -1.721 -4.901 -4.001 H 6.426 c -2.758 0 -5.001 -2.244 -5.001 -5.001 c 0 -2.757 2.244 -5.001 5.001 -5.001 h 2.968 c 0.464 -2.28 2.485 -4.001 4.9 -4.001 h 9.699 c 2.416 0 4.437 1.721 4.901 4.001 h 4.593 c 2.758 0 5.001 2.244 5.001 5.001 c 0 2.758 -2.244 5.001 -5.001 5.001 h -0.616 C 32.408 35.649 30.387 37.37 27.972 37.37 z M 6.426 25.366 c -1.655 0 -3.001 1.346 -3.001 3.001 s 1.347 3.001 3.001 3.001 h 8.845 v 1 c 0 1.655 1.347 3.001 3.001 3.001 h 9.699 c 1.655 0 3.001 -1.346 3.001 -3.001 v -1 h 2.515 c 1.655 0 3.001 -1.347 3.001 -3.001 s -1.347 -3.001 -3.001 -3.001 h -6.493 v -1 c 0 -1.655 -1.347 -3.001 -3.001 -3.001 h -9.699 c -1.655 0 -3.001 1.347 -3.001 3.001 v 1 H 6.426 z" style="stroke: none; stroke-width: 1; stroke-dasharray: none; stroke-linecap: butt; stroke-linejoin: miter; stroke-miterlimit: 10; fill: rgb(29,29,27); fill-rule: nonzero; opacity: 1;" transform=" matrix(1 0 0 1 0 0) " stroke-linecap="round" />
	<path d="M 77.142 42.197 H 59.295 c -2.595 0 -4.706 -2.111 -4.706 -4.706 s 2.111 -4.706 4.706 -4.706 h 2.129 c 0.46 -2.116 2.348 -3.706 4.599 -3.706 h 17.847 c 2.595 0 4.706 2.111 4.706 4.706 s -2.111 4.706 -4.706 4.706 H 81.74 C 81.281 40.607 79.394 42.197 77.142 42.197 z M 59.295 34.786 c -1.492 0 -2.706 1.214 -2.706 2.706 s 1.214 2.706 2.706 2.706 h 17.847 c 1.492 0 2.706 -1.214 2.706 -2.706 v -1 h 4.021 c 1.492 0 2.706 -1.214 2.706 -2.706 s -1.214 -2.706 -2.706 -2.706 H 66.022 c -1.491 0 -2.705 1.214 -2.705 2.706 v 1 H 59.295 z" style="stroke: none; stroke-width: 1; stroke-dasharray: none; stroke-linecap: butt; stroke-linejoin: miter; stroke-miterlimit: 10; fill: rgb(29,29,27); fill-rule: nonzero; opacity: 1;" transform=" matrix(1 0 0 1 0 0) " stroke-linecap="round" />
	<path d="M 77.79 20.183 H 32.634 c -3.058 0 -5.546 -2.488 -5.546 -5.545 c 0 -3.058 2.488 -5.546 5.546 -5.546 h 3.484 c 0.472 -2.582 2.739 -4.545 5.456 -4.545 h 8.197 C 50.243 1.963 52.51 0 55.226 0 h 6.566 c 2.719 0 4.986 1.966 5.457 4.551 c 2.606 0.114 4.753 2.036 5.21 4.54 h 5.331 c 3.058 0 5.546 2.488 5.546 5.546 C 83.336 17.695 80.848 20.183 77.79 20.183 z M 32.634 11.091 c -1.955 0 -3.546 1.591 -3.546 3.546 s 1.591 3.545 3.546 3.545 H 77.79 c 1.955 0 3.546 -1.59 3.546 -3.545 s -1.591 -3.546 -3.546 -3.546 h -7.24 v -1 c 0 -1.955 -1.591 -3.545 -3.546 -3.545 h -1.666 v -1 C 65.338 3.591 63.747 2 61.792 2 h -6.566 c -1.955 0 -3.545 1.591 -3.545 3.546 v 1 H 41.574 c -1.955 0 -3.546 1.59 -3.546 3.545 v 1 H 32.634 z" style="stroke: none; stroke-width: 1; stroke-dasharray: none; stroke-linecap: butt; stroke-linejoin: miter; stroke-miterlimit: 10; fill: rgb(29,29,27); fill-rule: nonzero; opacity: 1;" transform=" matrix(1 0 0 1 0 0) " stroke-linecap="round" />
	<path d="M 67.387 89 H 22.613 c -1.998 0 -3.751 -1.332 -4.287 -3.257 l -2.955 -10.612 h 59.258 l -2.955 10.612 C 71.138 87.668 69.385 89 67.387 89 z" style="stroke: none; stroke-width: 1; stroke-dasharray: none; stroke-linecap: butt; stroke-linejoin: miter; stroke-miterlimit: 10; fill: rgb(243,83,58); fill-rule: nonzero; opacity: 1;" transform=" matrix(1 0 0 1 0 0) " stroke-linecap="round" />
	<path d="M 77.307 75.131 H 12.693 c -1.682 0 -3.046 -1.364 -3.046 -3.046 v -3.65 c 0 -1.682 1.364 -3.046 3.046 -3.046 h 64.615 c 1.682 0 3.046 1.364 3.046 3.046 v 3.65 C 80.353 73.768 78.989 75.131 77.307 75.131 z" style="stroke: none; stroke-width: 1; stroke-dasharray: none; stroke-linecap: butt; stroke-linejoin: miter; stroke-miterlimit: 10; fill: rgb(234,234,234); fill-rule: nonzero; opacity: 1;" transform=" matrix(1 0 0 1 0 0) " stroke-linecap="round" />
	<path d="M 67.387 90 H 22.613 c -2.438 0 -4.596 -1.641 -5.25 -3.988 l -2.955 -10.612 c -0.084 -0.302 -0.022 -0.624 0.167 -0.873 s 0.484 -0.396 0.796 -0.396 h 59.258 c 0.313 0 0.607 0.146 0.796 0.396 c 0.189 0.249 0.251 0.571 0.167 0.873 l -2.955 10.612 C 71.983 88.359 69.824 90 67.387 90 z M 16.688 76.131 l 2.602 9.344 C 19.704 86.962 21.07 88 22.613 88 h 44.773 c 1.543 0 2.909 -1.038 3.324 -2.525 l 2.602 -9.344 H 16.688 z" style="stroke: none; stroke-width: 1; stroke-dasharray: none; stroke-linecap: butt; stroke-linejoin: miter; stroke-miterlimit: 10; fill: rgb(29,29,27); fill-rule: nonzero; opacity: 1;" transform=" matrix(1 0 0 1 0 0) " stroke-linecap="round" />
	<path d="M 77.308 76.131 H 12.692 c -2.23 0 -4.045 -1.814 -4.045 -4.045 v -3.65 c 0 -2.23 1.815 -4.046 4.045 -4.046 h 64.615 c 2.23 0 4.045 1.815 4.045 4.046 v 3.65 C 81.353 74.316 79.538 76.131 77.308 76.131 z M 12.692 66.39 c -1.128 0 -2.045 0.918 -2.045 2.046 v 3.65 c 0 1.128 0.917 2.045 2.045 2.045 h 64.615 c 1.128 0 2.045 -0.917 2.045 -2.045 v -3.65 c 0 -1.128 -0.917 -2.046 -2.045 -2.046 H 12.692 z" style="stroke: none; stroke-width: 1; stroke-dasharray: none; stroke-linecap: butt; stroke-linejoin: miter; stroke-miterlimit: 10; fill: rgb(29,29,27); fill-rule: nonzero; opacity: 1;" transform=" matrix(1 0 0 1 0 0) " stroke-linecap="round" />
</g>
</svg>