<?xml version="1.0" encoding="UTF-8" standalone="no" ?>
<!DOCTYPE svg PUBLIC "-//W3C//DTD SVG 1.1//EN" "http://www.w3.org/Graphics/SVG/1.1/DTD/svg11.dtd">
<svg xmlns="http://www.w3.org/2000/svg" xmlns:xlink="http://www.w3.org/1999/xlink" version="1.1" width="350" height="350" viewBox="0 0 350 350" xml:space="preserve">
<desc>Created with Fabric.js 1.7.22</desc>
<defs>
</defs>
<g id="icon" style="stroke: none; stroke-width: 1; stroke-dasharray: none; stroke-linecap: butt; stroke-linejoin: miter; stroke-miterlimit: 10; fill: none; fill-rule: nonzero; opacity: 1;" transform="translate(-1.9444444444444287 -1.9444444444444287) scale(3.89 3.89)" >
	<path d="M 35.33 40.15 c -5.427 -3.851 -10.107 -8.244 -13.949 -12.922 C 16.1 20.799 5.556 24.153 4.941 32.45 C 4.013 44.972 8.654 56.869 18.505 63.859 c 9.851 6.991 22.612 7.444 34.126 2.435 c 7.629 -3.319 7.314 -14.38 -0.498 -17.242 C 46.449 46.969 40.757 44.001 35.33 40.15 z" style="stroke: none; stroke-width: 1; stroke-dasharray: none; stroke-linecap: butt; stroke-linejoin: miter; stroke-miterlimit: 10; fill: rgb(255,108,82); fill-rule: nonzero; opacity: 1;" transform=" matrix(1 0 0 1 0 0) " stroke-linecap="round" />
	<path d="M 37.127 70.625 c -6.974 0 -13.639 -2.002 -19.201 -5.95 C 8.184 57.761 2.957 45.686 3.944 32.377 c 0.315 -4.259 3.064 -7.714 7.174 -9.016 c 4.102 -1.3 8.33 -0.061 11.037 3.233 c 3.895 4.741 8.523 9.028 13.755 12.741 l 0 0 c 5.234 3.715 10.808 6.668 16.567 8.778 c 4.003 1.466 6.569 5.05 6.696 9.351 c 0.127 4.308 -2.226 8.043 -6.143 9.747 C 47.779 69.495 42.366 70.625 37.127 70.625 z M 14.326 24.868 c -0.929 0 -1.818 0.15 -2.605 0.4 c -2.597 0.823 -5.479 3.161 -5.783 7.256 c -0.934 12.606 3.98 24.015 13.145 30.52 c 9.165 6.504 21.558 7.375 33.147 2.332 c 3.765 -1.638 5.021 -5.131 4.941 -7.853 c -0.081 -2.717 -1.537 -6.123 -5.384 -7.534 c -5.926 -2.17 -11.658 -5.207 -17.037 -9.025 l 0 0 c -5.377 -3.816 -10.136 -8.224 -14.144 -13.102 C 18.797 25.659 16.456 24.868 14.326 24.868 z" style="stroke: none; stroke-width: 1; stroke-dasharray: none; stroke-linecap: butt; stroke-linejoin: miter; stroke-miterlimit: 10; fill: rgb(29,29,27); fill-rule: nonzero; opacity: 1;" transform=" matrix(1 0 0 1 0 0) " stroke-linecap="round" />
	<path d="M 37.654 71.72 c 4.213 -21.917 20.154 -39.653 41.06 -46.396 c -5.896 -1.902 -12.18 -2.94 -18.709 -2.94 c -23.667 0 -48.518 16.107 -57.736 39.552 c -5.731 14.575 8.696 29.059 23.451 23.809 l 0 0 C 31.921 83.54 36.412 78.182 37.654 71.72 z" style="stroke: none; stroke-width: 1; stroke-dasharray: none; stroke-linecap: butt; stroke-linejoin: miter; stroke-miterlimit: 10; fill: rgb(255,108,82); fill-rule: nonzero; opacity: 1;" transform=" matrix(1 0 0 1 0 0) " stroke-linecap="round" />
	<path d="M 19.451 87.839 c -5.179 0 -10.201 -2.09 -14.002 -6.018 C 0.153 76.35 -1.422 68.59 1.339 61.57 c 9.156 -23.285 33.829 -40.186 58.667 -40.186 c 6.471 0 12.868 1.006 19.016 2.989 c 0.413 0.133 0.693 0.518 0.693 0.952 s -0.28 0.819 -0.693 0.952 c -20.789 6.705 -36.264 24.19 -40.385 45.633 l 0 0 c -1.311 6.822 -6.132 12.485 -12.581 14.779 C 23.881 87.461 21.651 87.839 19.451 87.839 z M 60.006 23.384 c -24.049 0 -47.939 16.368 -56.805 38.918 c -2.47 6.28 -1.057 13.227 3.685 18.128 c 4.864 5.026 11.954 6.701 18.5 4.372 c 5.784 -2.057 10.109 -7.143 11.287 -13.271 l 0 0 c 4.062 -21.134 18.793 -38.547 38.784 -46.125 C 70.423 24.064 65.239 23.384 60.006 23.384 z M 37.655 71.72 h 0.01 H 37.655 z" style="stroke: none; stroke-width: 1; stroke-dasharray: none; stroke-linecap: butt; stroke-linejoin: miter; stroke-miterlimit: 10; fill: rgb(29,29,27); fill-rule: nonzero; opacity: 1;" transform=" matrix(1 0 0 1 0 0) " stroke-linecap="round" />
	<path d="M 86.943 25.603 c 0 -4.881 0.641 -9.545 1.808 -13.829 c 1.604 -5.888 -4.878 -10.771 -10.102 -7.617 c -7.884 4.76 -13.03 12.586 -13.03 21.446 c 0 8.86 5.146 16.686 13.03 21.446 c 5.224 3.154 11.706 -1.729 10.102 -7.617 C 87.584 35.148 86.943 30.484 86.943 25.603 z" style="stroke: none; stroke-width: 1; stroke-dasharray: none; stroke-linecap: butt; stroke-linejoin: miter; stroke-miterlimit: 10; fill: rgb(255,108,82); fill-rule: nonzero; opacity: 1;" transform=" matrix(1 0 0 1 0 0) " stroke-linecap="round" />
	<path d="M 82.149 49.044 c -1.376 0 -2.756 -0.377 -4.018 -1.139 c -8.461 -5.11 -13.513 -13.447 -13.513 -22.303 c 0 -8.856 5.052 -17.193 13.514 -22.302 c 2.775 -1.677 6.122 -1.493 8.735 0.479 c 2.608 1.969 3.7 5.133 2.849 8.257 c -1.176 4.318 -1.773 8.882 -1.773 13.566 c 0 4.683 0.596 9.248 1.772 13.566 c 0.851 3.124 -0.24 6.287 -2.847 8.256 C 85.443 48.501 83.799 49.044 82.149 49.044 z M 82.114 4.167 c -0.944 0 -1.95 0.243 -2.949 0.846 c -7.857 4.744 -12.547 12.441 -12.547 20.59 c 0 8.148 4.69 15.846 12.546 20.59 c 2.467 1.49 4.974 0.788 6.497 -0.363 c 1.522 -1.149 2.878 -3.363 2.123 -6.134 c -1.222 -4.49 -1.842 -9.231 -1.842 -14.092 c 0 -4.862 0.62 -9.603 1.843 -14.092 c 0.754 -2.771 -0.603 -4.986 -2.124 -6.135 C 84.754 4.692 83.5 4.167 82.114 4.167 z" style="stroke: none; stroke-width: 1; stroke-dasharray: none; stroke-linecap: butt; stroke-linejoin: miter; stroke-miterlimit: 10; fill: rgb(29,29,27); fill-rule: nonzero; opacity: 1;" transform=" matrix(1 0 0 1 0 0) " stroke-linecap="round" />
	<path d="M 25.752 52.927 c -7.518 -3.373 -15.261 2.592 -23.769 9.825 c -4.892 14.293 9.257 28.145 23.737 22.994 h 0 c 4.97 -1.768 8.809 -5.579 10.789 -10.344 C 34.07 65.416 32.353 56.373 25.752 52.927 z" style="stroke: none; stroke-width: 1; stroke-dasharray: none; stroke-linecap: butt; stroke-linejoin: miter; stroke-miterlimit: 10; fill: rgb(234,234,234); fill-rule: nonzero; opacity: 1;" transform=" matrix(1 0 0 1 0 0) " stroke-linecap="round" />
	<path d="M 19.481 87.831 c -5.038 0 -9.947 -1.971 -13.705 -5.686 c -5.295 -5.231 -7.111 -12.787 -4.739 -19.717 c 0.048 -0.14 0.127 -0.268 0.231 -0.374 c 9.684 -9.926 17.828 -13.21 24.894 -10.039 c 0.018 0.008 0.036 0.017 0.054 0.025 c 7.073 3.692 11.295 12.426 11.295 23.362 c 0 0.132 -0.026 0.262 -0.077 0.384 c -2.125 5.112 -6.272 9.086 -11.378 10.902 C 23.897 87.456 21.677 87.831 19.481 87.831 z M 2.859 63.287 c -2.013 6.14 -0.367 12.801 4.324 17.436 c 4.845 4.787 11.819 6.351 18.203 4.08 c 4.513 -1.606 8.193 -5.099 10.124 -9.602 c -0.05 -10.068 -3.852 -18.045 -10.194 -21.373 C 19.151 51.082 11.801 54.173 2.859 63.287 z" style="stroke: none; stroke-width: 1; stroke-dasharray: none; stroke-linecap: butt; stroke-linejoin: miter; stroke-miterlimit: 10; fill: rgb(29,29,27); fill-rule: nonzero; opacity: 1;" transform=" matrix(1 0 0 1 0 0) " stroke-linecap="round" />
	<path d="M 56.61 22.527 C 47.644 23.1 38.635 25.9 30.466 30.475 c 0.133 0.147 0.255 0.304 0.391 0.447 c 2.702 2.843 6.221 5.069 10.114 5.543 c 3.894 0.474 8.142 -1.056 10.294 -4.336 c 1.222 -1.863 1.701 -4.105 2.619 -6.136 C 54.492 24.65 55.416 23.339 56.61 22.527 z" style="stroke: none; stroke-width: 1; stroke-dasharray: none; stroke-linecap: butt; stroke-linejoin: miter; stroke-miterlimit: 10; fill: rgb(234,234,234); fill-rule: nonzero; opacity: 1;" transform=" matrix(1 0 0 1 0 0) " stroke-linecap="round" />
	<path d="M 42.379 37.551 c -0.507 0 -1.018 -0.03 -1.528 -0.092 c -3.763 -0.458 -7.57 -2.535 -10.718 -5.847 c -0.089 -0.094 -0.174 -0.193 -0.259 -0.293 l -0.147 -0.17 c -0.205 -0.225 -0.296 -0.532 -0.248 -0.833 c 0.049 -0.301 0.232 -0.564 0.499 -0.713 c 8.407 -4.709 17.595 -7.501 26.569 -8.074 c 0.464 -0.029 0.863 0.248 1.009 0.673 c 0.147 0.426 -0.01 0.898 -0.383 1.152 c -0.928 0.632 -1.773 1.717 -2.376 3.053 c -0.322 0.714 -0.587 1.452 -0.867 2.234 c -0.487 1.36 -0.99 2.765 -1.826 4.039 C 50.121 35.699 46.342 37.551 42.379 37.551 z M 32.075 30.735 c 2.725 2.685 5.904 4.359 9.018 4.738 c 3.759 0.456 7.51 -1.106 9.338 -3.891 c 0.705 -1.075 1.148 -2.309 1.616 -3.616 c 0.281 -0.784 0.572 -1.595 0.928 -2.383 c 0.297 -0.657 0.647 -1.269 1.035 -1.821 C 46.584 24.606 39.075 26.991 32.075 30.735 z" style="stroke: none; stroke-width: 1; stroke-dasharray: none; stroke-linecap: butt; stroke-linejoin: miter; stroke-miterlimit: 10; fill: rgb(29,29,27); fill-rule: nonzero; opacity: 1;" transform=" matrix(1 0 0 1 0 0) " stroke-linecap="round" />
	<path d="M 10.122 70.209 c -0.133 0 -0.269 -0.026 -0.399 -0.083 c -0.506 -0.221 -0.738 -0.811 -0.518 -1.317 l 1.006 -2.308 c 0.221 -0.506 0.81 -0.739 1.317 -0.518 c 0.506 0.221 0.738 0.811 0.518 1.317 l -1.006 2.308 C 10.875 69.985 10.508 70.209 10.122 70.209 z" style="stroke: none; stroke-width: 1; stroke-dasharray: none; stroke-linecap: butt; stroke-linejoin: miter; stroke-miterlimit: 10; fill: rgb(29,29,27); fill-rule: nonzero; opacity: 1;" transform=" matrix(1 0 0 1 0 0) " stroke-linecap="round" />
	<path d="M 23.844 76.186 c -0.133 0 -0.269 -0.026 -0.399 -0.083 c -0.506 -0.221 -0.738 -0.811 -0.518 -1.317 l 1.006 -2.308 c 0.221 -0.507 0.809 -0.739 1.317 -0.518 c 0.506 0.221 0.738 0.811 0.518 1.317 l -1.006 2.308 C 24.598 75.961 24.23 76.186 23.844 76.186 z" style="stroke: none; stroke-width: 1; stroke-dasharray: none; stroke-linecap: butt; stroke-linejoin: miter; stroke-miterlimit: 10; fill: rgb(29,29,27); fill-rule: nonzero; opacity: 1;" transform=" matrix(1 0 0 1 0 0) " stroke-linecap="round" />
</g>
</svg>