<?xml version="1.0" encoding="UTF-8" standalone="no" ?>
<!DOCTYPE svg PUBLIC "-//W3C//DTD SVG 1.1//EN" "http://www.w3.org/Graphics/SVG/1.1/DTD/svg11.dtd">
<svg xmlns="http://www.w3.org/2000/svg" xmlns:xlink="http://www.w3.org/1999/xlink" version="1.1" width="350" height="350" viewBox="0 0 350 350" xml:space="preserve">
<desc>Created with Fabric.js 1.7.22</desc>
<defs>
</defs>
<g id="icon" style="stroke: none; stroke-width: 1; stroke-dasharray: none; stroke-linecap: butt; stroke-linejoin: miter; stroke-miterlimit: 10; fill: none; fill-rule: nonzero; opacity: 1;" transform="translate(-1.9444444444444287 -1.9444444444444287) scale(3.89 3.89)" >
	<path d="M 1.788 88.193 L 1.788 88.193 c 1.054 1.054 2.762 1.054 3.816 0 L 88.21 5.588 c 1.054 -1.054 1.054 -2.762 0 -3.816 l 0 0 c -1.054 -1.054 -2.762 -1.054 -3.816 0 L 1.788 84.377 C 0.735 85.431 0.735 87.139 1.788 88.193 z" style="stroke: none; stroke-width: 1; stroke-dasharray: none; stroke-linecap: butt; stroke-linejoin: miter; stroke-miterlimit: 10; fill: rgb(243,181,137); fill-rule: nonzero; opacity: 1;" transform=" matrix(1 0 0 1 0 0) " stroke-linecap="round" />
	<path d="M 3.696 89.984 c -0.988 0 -1.917 -0.385 -2.615 -1.083 l 0 0 c -1.441 -1.442 -1.441 -3.788 0 -5.231 L 83.686 1.065 c 1.397 -1.397 3.834 -1.397 5.231 0 C 89.615 1.763 90 2.692 90 3.68 c 0 0.988 -0.385 1.917 -1.083 2.615 L 6.311 88.9 C 5.613 89.599 4.684 89.984 3.696 89.984 z M 2.495 87.486 c 0.642 0.641 1.76 0.641 2.402 0 L 87.503 4.881 C 87.823 4.56 88 4.134 88 3.68 c 0 -0.454 -0.177 -0.88 -0.497 -1.201 c -0.643 -0.642 -1.76 -0.642 -2.402 0 L 2.495 85.084 C 1.834 85.746 1.834 86.824 2.495 87.486 z" style="stroke: none; stroke-width: 1; stroke-dasharray: none; stroke-linecap: butt; stroke-linejoin: miter; stroke-miterlimit: 10; fill: rgb(29,29,27); fill-rule: nonzero; opacity: 1;" transform=" matrix(1 0 0 1 0 0) " stroke-linecap="round" />
	<circle cx="37.233" cy="52.753" r="12.963" style="stroke: none; stroke-width: 1; stroke-dasharray: none; stroke-linecap: butt; stroke-linejoin: miter; stroke-miterlimit: 10; fill: rgb(177,223,99); fill-rule: nonzero; opacity: 1;" transform="  matrix(1 0 0 1 0 0) "/>
	<path d="M 37.229 66.71 c -3.576 0 -7.152 -1.361 -9.873 -4.083 c -2.637 -2.638 -4.09 -6.144 -4.09 -9.873 c 0 -3.731 1.453 -7.236 4.09 -9.874 l 0 0 l 0 0 c 2.637 -2.637 6.144 -4.09 9.873 -4.09 c 3.73 0 7.236 1.453 9.874 4.09 c 5.443 5.444 5.443 14.303 0 19.747 C 44.38 65.348 40.805 66.71 37.229 66.71 z M 37.229 40.79 c -3.195 0 -6.2 1.245 -8.459 3.504 l 0 0 c -2.259 2.259 -3.504 5.263 -3.504 8.46 c 0 3.195 1.245 6.199 3.504 8.459 c 4.665 4.663 12.254 4.663 16.919 0 c 4.664 -4.665 4.664 -12.254 0 -16.919 C 43.429 42.034 40.425 40.79 37.229 40.79 z M 28.063 43.587 h 0.01 H 28.063 z" style="stroke: none; stroke-width: 1; stroke-dasharray: none; stroke-linecap: butt; stroke-linejoin: miter; stroke-miterlimit: 10; fill: rgb(29,29,27); fill-rule: nonzero; opacity: 1;" transform=" matrix(1 0 0 1 0 0) " stroke-linecap="round" />
	<circle cx="55.563" cy="34.423" r="12.963" style="stroke: none; stroke-width: 1; stroke-dasharray: none; stroke-linecap: butt; stroke-linejoin: miter; stroke-miterlimit: 10; fill: rgb(234,234,234); fill-rule: nonzero; opacity: 1;" transform="  matrix(1 0 0 1 0 0) "/>
	<path d="M 55.562 48.383 c -3.731 0 -7.236 -1.452 -9.873 -4.089 c -2.637 -2.637 -4.09 -6.144 -4.09 -9.873 c 0 -3.73 1.453 -7.236 4.09 -9.873 l 0 0 l 0 0 c 2.637 -2.637 6.143 -4.09 9.873 -4.09 c 3.73 0 7.236 1.453 9.873 4.09 c 2.638 2.637 4.09 6.143 4.09 9.873 c 0 3.73 -1.452 7.236 -4.09 9.873 C 62.797 46.931 59.291 48.383 55.562 48.383 z M 55.562 22.457 c -3.195 0 -6.2 1.244 -8.459 3.504 l 0 0 c -2.259 2.259 -3.504 5.264 -3.504 8.459 s 1.245 6.199 3.504 8.459 c 2.259 2.259 5.263 3.503 8.459 3.503 c 3.195 0 6.199 -1.244 8.459 -3.503 c 2.26 -2.26 3.504 -5.264 3.504 -8.459 s -1.244 -6.2 -3.504 -8.459 C 61.761 23.702 58.757 22.457 55.562 22.457 z M 46.396 25.254 h 0.01 H 46.396 z" style="stroke: none; stroke-width: 1; stroke-dasharray: none; stroke-linecap: butt; stroke-linejoin: miter; stroke-miterlimit: 10; fill: rgb(29,29,27); fill-rule: nonzero; opacity: 1;" transform=" matrix(1 0 0 1 0 0) " stroke-linecap="round" />
	<circle cx="73.893" cy="16.093" r="12.963" style="stroke: none; stroke-width: 1; stroke-dasharray: none; stroke-linecap: butt; stroke-linejoin: miter; stroke-miterlimit: 10; fill: rgb(255,215,209); fill-rule: nonzero; opacity: 1;" transform="  matrix(1 0 0 1 0 0) "/>
	<path d="M 73.894 30.044 c -3.575 0 -7.152 -1.361 -9.873 -4.083 c -5.444 -5.444 -5.444 -14.303 0 -19.747 l 0 0 c 5.443 -5.443 14.303 -5.443 19.747 0 c 5.444 5.444 5.444 14.303 0 19.747 C 81.046 28.683 77.469 30.044 73.894 30.044 z M 65.435 7.628 c -4.664 4.665 -4.664 12.254 0 16.919 c 4.664 4.663 12.254 4.664 16.918 0 c 4.664 -4.665 4.664 -12.254 0 -16.919 C 77.689 2.965 70.099 2.964 65.435 7.628 L 65.435 7.628 z" style="stroke: none; stroke-width: 1; stroke-dasharray: none; stroke-linecap: butt; stroke-linejoin: miter; stroke-miterlimit: 10; fill: rgb(29,29,27); fill-rule: nonzero; opacity: 1;" transform=" matrix(1 0 0 1 0 0) " stroke-linecap="round" />
</g>
</svg>