<?xml version="1.0" encoding="UTF-8" standalone="no" ?>
<!DOCTYPE svg PUBLIC "-//W3C//DTD SVG 1.1//EN" "http://www.w3.org/Graphics/SVG/1.1/DTD/svg11.dtd">
<svg xmlns="http://www.w3.org/2000/svg" xmlns:xlink="http://www.w3.org/1999/xlink" version="1.1" width="350" height="350" viewBox="0 0 350 350" xml:space="preserve">
<desc>Created with Fabric.js 1.7.22</desc>
<defs>
</defs>
<g id="icon" style="stroke: none; stroke-width: 1; stroke-dasharray: none; stroke-linecap: butt; stroke-linejoin: miter; stroke-miterlimit: 10; fill: none; fill-rule: nonzero; opacity: 1;" transform="translate(-1.9444444444444287 -1.9444444444444287) scale(3.89 3.89)" >
	<path d="M 67.959 32.151 c 5.538 17.214 5.538 34.427 0 51.641 H 22.041 c -5.538 -17.214 -5.538 -34.427 0 -51.641 H 67.959 z" style="stroke: none; stroke-width: 1; stroke-dasharray: none; stroke-linecap: butt; stroke-linejoin: miter; stroke-miterlimit: 10; fill: rgb(221,153,104); fill-rule: nonzero; opacity: 1;" transform=" matrix(1 0 0 1 0 0) " stroke-linecap="round" />
	<path d="M 67.959 84.792 H 22.041 c -0.434 0 -0.819 -0.28 -0.952 -0.693 c -5.578 -17.337 -5.578 -34.918 0 -52.254 c 0.133 -0.414 0.518 -0.694 0.952 -0.694 h 45.918 c 0.435 0 0.819 0.28 0.952 0.694 c 5.577 17.336 5.577 34.917 0 52.254 C 68.778 84.512 68.394 84.792 67.959 84.792 z M 22.772 82.792 h 44.455 c 5.152 -16.474 5.152 -33.168 0 -49.641 H 22.772 C 17.619 49.624 17.619 66.318 22.772 82.792 z" style="stroke: none; stroke-width: 1; stroke-dasharray: none; stroke-linecap: butt; stroke-linejoin: miter; stroke-miterlimit: 10; fill: rgb(29,29,27); fill-rule: nonzero; opacity: 1;" transform=" matrix(1 0 0 1 0 0) " stroke-linecap="round" />
	<rect x="39.6" y="52.57" rx="0" ry="0" width="10.8" height="10.8" style="stroke: none; stroke-width: 1; stroke-dasharray: none; stroke-linecap: butt; stroke-linejoin: miter; stroke-miterlimit: 10; fill: rgb(245,216,130); fill-rule: nonzero; opacity: 1;" transform=" matrix(0.7071 -0.7071 0.7071 0.7071 -27.8116 48.7992) "/>
	<path d="M 45 66.609 c -0.256 0 -0.512 -0.098 -0.707 -0.293 l -7.638 -7.638 c -0.391 -0.391 -0.391 -1.023 0 -1.414 l 7.638 -7.639 c 0.375 -0.375 1.039 -0.375 1.414 0 l 7.638 7.639 c 0.391 0.391 0.391 1.023 0 1.414 l -7.638 7.638 C 45.512 66.512 45.256 66.609 45 66.609 z M 38.776 57.972 L 45 64.195 l 6.224 -6.224 L 45 51.747 L 38.776 57.972 z" style="stroke: none; stroke-width: 1; stroke-dasharray: none; stroke-linecap: butt; stroke-linejoin: miter; stroke-miterlimit: 10; fill: rgb(29,29,27); fill-rule: nonzero; opacity: 1;" transform=" matrix(1 0 0 1 0 0) " stroke-linecap="round" />
	<path d="M 71.229 36.751 c -0.412 -1.531 -0.849 -4.15 -1.341 -5.68 H 20.112 c -0.492 1.531 -0.929 4.15 -1.341 5.68 C 36.257 35.485 53.743 35.485 71.229 36.751 z" style="stroke: none; stroke-width: 1; stroke-dasharray: none; stroke-linecap: butt; stroke-linejoin: miter; stroke-miterlimit: 10; fill: rgb(234,234,234); fill-rule: nonzero; opacity: 1;" transform=" matrix(1 0 0 1 0 0) " stroke-linecap="round" />
	<path d="M 18.771 37.75 c -0.297 0 -0.581 -0.132 -0.771 -0.363 c -0.207 -0.25 -0.279 -0.584 -0.195 -0.896 c 0.168 -0.626 0.341 -1.438 0.52 -2.281 c 0.262 -1.232 0.533 -2.506 0.834 -3.445 c 0.133 -0.414 0.518 -0.694 0.952 -0.694 h 49.776 c 0.435 0 0.818 0.28 0.952 0.693 c 0.303 0.941 0.574 2.219 0.837 3.454 c 0.179 0.84 0.35 1.649 0.518 2.273 c 0.084 0.313 0.012 0.646 -0.194 0.896 c -0.207 0.249 -0.51 0.376 -0.844 0.361 c -17.355 -1.257 -34.957 -1.257 -52.313 0 C 18.819 37.75 18.795 37.75 18.771 37.75 z M 45 34.806 c 8.331 0 16.661 0.284 24.94 0.852 c -0.072 -0.33 -0.146 -0.674 -0.22 -1.024 c -0.189 -0.892 -0.384 -1.806 -0.584 -2.563 H 20.863 c -0.199 0.755 -0.393 1.667 -0.582 2.555 c -0.075 0.353 -0.149 0.7 -0.222 1.032 C 28.337 35.09 36.669 34.806 45 34.806 z" style="stroke: none; stroke-width: 1; stroke-dasharray: none; stroke-linecap: butt; stroke-linejoin: miter; stroke-miterlimit: 10; fill: rgb(29,29,27); fill-rule: nonzero; opacity: 1;" transform=" matrix(1 0 0 1 0 0) " stroke-linecap="round" />
	<polygon points="71,25.94 19.02,25.94 20.11,31.07 69.91,31.07 " style="stroke: none; stroke-width: 1; stroke-dasharray: none; stroke-linecap: butt; stroke-linejoin: miter; stroke-miterlimit: 10; fill: rgb(234,234,234); fill-rule: nonzero; opacity: 1;" transform="  matrix(1 0 0 1 0 0) "/>
	<path d="M 69.909 32.07 H 20.112 c -0.472 0 -0.88 -0.331 -0.978 -0.792 l -1.088 -5.129 c -0.063 -0.295 0.011 -0.603 0.201 -0.837 c 0.189 -0.234 0.475 -0.371 0.777 -0.371 h 51.975 c 0.302 0 0.587 0.136 0.777 0.371 c 0.189 0.234 0.264 0.542 0.201 0.837 l -1.089 5.129 C 70.789 31.74 70.382 32.07 69.909 32.07 z M 20.922 30.07 H 69.1 l 0.664 -3.129 H 20.258 L 20.922 30.07 z" style="stroke: none; stroke-width: 1; stroke-dasharray: none; stroke-linecap: butt; stroke-linejoin: miter; stroke-miterlimit: 10; fill: rgb(29,29,27); fill-rule: nonzero; opacity: 1;" transform=" matrix(1 0 0 1 0 0) " stroke-linecap="round" />
	<path d="M 71.229 78.191 c -0.412 1.531 -0.849 4.15 -1.341 5.68 H 20.112 c -0.492 -1.531 -0.929 -4.15 -1.341 -5.68 C 36.257 79.457 53.743 79.457 71.229 78.191 z" style="stroke: none; stroke-width: 1; stroke-dasharray: none; stroke-linecap: butt; stroke-linejoin: miter; stroke-miterlimit: 10; fill: rgb(234,234,234); fill-rule: nonzero; opacity: 1;" transform=" matrix(1 0 0 1 0 0) " stroke-linecap="round" />
	<path d="M 69.888 84.871 H 20.112 c -0.435 0 -0.819 -0.28 -0.952 -0.694 c -0.302 -0.939 -0.573 -2.214 -0.835 -3.446 c -0.179 -0.843 -0.351 -1.654 -0.52 -2.28 c -0.084 -0.313 -0.011 -0.646 0.195 -0.896 c 0.206 -0.25 0.513 -0.389 0.843 -0.36 c 17.356 1.256 34.958 1.256 52.313 0 c 0.334 -0.03 0.638 0.11 0.844 0.36 c 0.206 0.249 0.278 0.583 0.194 0.896 c -0.168 0.624 -0.339 1.433 -0.518 2.272 c -0.263 1.235 -0.534 2.514 -0.837 3.455 C 70.706 84.591 70.322 84.871 69.888 84.871 z M 20.863 82.871 h 48.273 c 0.2 -0.758 0.395 -1.673 0.584 -2.564 c 0.074 -0.35 0.147 -0.694 0.22 -1.023 c -16.558 1.137 -33.324 1.136 -49.881 0.001 c 0.073 0.331 0.147 0.678 0.222 1.03 C 20.47 81.203 20.664 82.115 20.863 82.871 z" style="stroke: none; stroke-width: 1; stroke-dasharray: none; stroke-linecap: butt; stroke-linejoin: miter; stroke-miterlimit: 10; fill: rgb(29,29,27); fill-rule: nonzero; opacity: 1;" transform=" matrix(1 0 0 1 0 0) " stroke-linecap="round" />
	<polygon points="71,89 19.02,89 20.11,83.87 69.91,83.87 " style="stroke: none; stroke-width: 1; stroke-dasharray: none; stroke-linecap: butt; stroke-linejoin: miter; stroke-miterlimit: 10; fill: rgb(234,234,234); fill-rule: nonzero; opacity: 1;" transform="  matrix(1 0 0 1 0 0) "/>
	<path d="M 70.998 90 H 19.023 c -0.302 0 -0.587 -0.136 -0.777 -0.37 c -0.19 -0.234 -0.264 -0.542 -0.201 -0.838 l 1.088 -5.129 c 0.098 -0.462 0.506 -0.792 0.978 -0.792 h 49.797 c 0.473 0 0.88 0.33 0.979 0.792 l 1.089 5.129 c 0.063 0.296 -0.012 0.603 -0.201 0.838 C 71.585 89.864 71.3 90 70.998 90 z M 20.258 88 h 49.506 L 69.1 84.871 H 20.922 L 20.258 88 z" style="stroke: none; stroke-width: 1; stroke-dasharray: none; stroke-linecap: butt; stroke-linejoin: miter; stroke-miterlimit: 10; fill: rgb(29,29,27); fill-rule: nonzero; opacity: 1;" transform=" matrix(1 0 0 1 0 0) " stroke-linecap="round" />
	<rect x="23.22" y="-1.97" rx="0" ry="0" width="4.71" height="22.04" style="stroke: none; stroke-width: 1; stroke-dasharray: none; stroke-linecap: butt; stroke-linejoin: miter; stroke-miterlimit: 10; fill: rgb(243,181,137); fill-rule: nonzero; opacity: 1;" transform=" matrix(-0.5518 0.834 -0.834 -0.5518 47.2409 -7.2961) "/>
	<path d="M 33.469 18.092 c -0.195 0 -0.387 -0.057 -0.552 -0.166 L 14.54 5.766 c -0.221 -0.146 -0.375 -0.375 -0.428 -0.634 c -0.053 -0.26 0 -0.53 0.146 -0.751 l 2.602 -3.932 c 0.305 -0.461 0.924 -0.588 1.386 -0.282 l 18.377 12.16 c 0.46 0.305 0.587 0.925 0.282 1.386 l -2.602 3.932 c -0.146 0.221 -0.375 0.375 -0.634 0.428 C 33.602 18.085 33.535 18.092 33.469 18.092 z M 16.477 4.65 l 16.709 11.056 l 1.498 -2.264 L 17.976 2.386 L 16.477 4.65 z" style="stroke: none; stroke-width: 1; stroke-dasharray: none; stroke-linecap: butt; stroke-linejoin: miter; stroke-miterlimit: 10; fill: rgb(29,29,27); fill-rule: nonzero; opacity: 1;" transform=" matrix(1 0 0 1 0 0) " stroke-linecap="round" />
	<circle cx="37.035" cy="16.625" r="5.215" style="stroke: none; stroke-width: 1; stroke-dasharray: none; stroke-linecap: butt; stroke-linejoin: miter; stroke-miterlimit: 10; fill: rgb(255,108,82); fill-rule: nonzero; opacity: 1;" transform="  matrix(1 0 0 1 0 0) "/>
	<path d="M 37.024 22.843 c -1.207 0 -2.387 -0.353 -3.417 -1.034 c -2.858 -1.891 -3.645 -5.754 -1.754 -8.612 c 1.892 -2.858 5.754 -3.644 8.613 -1.753 c 1.384 0.916 2.329 2.316 2.661 3.943 c 0.331 1.627 0.009 3.285 -0.907 4.669 s -2.316 2.329 -3.943 2.661 C 37.86 22.801 37.441 22.843 37.024 22.843 z M 37.046 12.41 c -0.282 0 -0.566 0.028 -0.85 0.086 c -1.104 0.225 -2.053 0.865 -2.674 1.804 c -1.282 1.938 -0.749 4.559 1.189 5.841 c 0.939 0.622 2.063 0.84 3.167 0.615 c 1.104 -0.225 2.053 -0.865 2.674 -1.804 s 0.84 -2.063 0.615 -3.167 c -0.225 -1.103 -0.865 -2.053 -1.804 -2.674 C 38.665 12.649 37.864 12.41 37.046 12.41 z" style="stroke: none; stroke-width: 1; stroke-dasharray: none; stroke-linecap: butt; stroke-linejoin: miter; stroke-miterlimit: 10; fill: rgb(29,29,27); fill-rule: nonzero; opacity: 1;" transform=" matrix(1 0 0 1 0 0) " stroke-linecap="round" />
	<rect x="62.06" y="-1.97" rx="0" ry="0" width="4.71" height="22.04" style="stroke: none; stroke-width: 1; stroke-dasharray: none; stroke-linecap: butt; stroke-linejoin: miter; stroke-miterlimit: 10; fill: rgb(243,181,137); fill-rule: nonzero; opacity: 1;" transform=" matrix(0.5518 0.834 -0.834 0.5518 36.4159 -49.6692) "/>
	<path d="M 56.531 18.092 c -0.066 0 -0.134 -0.007 -0.199 -0.02 c -0.26 -0.053 -0.488 -0.207 -0.635 -0.428 l -2.602 -3.932 c -0.305 -0.46 -0.179 -1.081 0.282 -1.386 l 18.377 -12.16 c 0.222 -0.146 0.494 -0.199 0.751 -0.146 c 0.26 0.053 0.488 0.207 0.635 0.428 l 2.602 3.932 c 0.305 0.46 0.179 1.081 -0.282 1.386 l -18.377 12.16 C 56.918 18.035 56.726 18.092 56.531 18.092 z M 55.315 13.442 l 1.498 2.264 L 73.522 4.65 l -1.498 -2.264 L 55.315 13.442 z" style="stroke: none; stroke-width: 1; stroke-dasharray: none; stroke-linecap: butt; stroke-linejoin: miter; stroke-miterlimit: 10; fill: rgb(29,29,27); fill-rule: nonzero; opacity: 1;" transform=" matrix(1 0 0 1 0 0) " stroke-linecap="round" />
	<circle cx="52.965" cy="16.625" r="5.215" style="stroke: none; stroke-width: 1; stroke-dasharray: none; stroke-linecap: butt; stroke-linejoin: miter; stroke-miterlimit: 10; fill: rgb(255,108,82); fill-rule: nonzero; opacity: 1;" transform="  matrix(1 0 0 1 0 0) "/>
	<path d="M 52.973 22.839 c -2.018 0 -3.999 -0.979 -5.193 -2.783 c -1.891 -2.858 -1.104 -6.722 1.754 -8.612 c 1.384 -0.916 3.04 -1.24 4.67 -0.907 c 1.626 0.332 3.026 1.276 3.942 2.661 s 1.238 3.042 0.907 4.669 c -0.331 1.626 -1.275 3.027 -2.66 3.943 l 0 0 C 55.34 22.506 54.149 22.839 52.973 22.839 z M 55.841 20.975 h 0.01 H 55.841 z M 52.954 12.41 c -0.818 0 -1.619 0.239 -2.317 0.701 c -1.938 1.282 -2.472 3.902 -1.189 5.841 c 1.281 1.936 3.901 2.472 5.842 1.189 l 0 0 c 0.938 -0.621 1.579 -1.571 1.804 -2.674 c 0.225 -1.103 0.006 -2.228 -0.615 -3.167 s -1.57 -1.58 -2.674 -1.804 C 53.521 12.438 53.236 12.41 52.954 12.41 z" style="stroke: none; stroke-width: 1; stroke-dasharray: none; stroke-linecap: butt; stroke-linejoin: miter; stroke-miterlimit: 10; fill: rgb(29,29,27); fill-rule: nonzero; opacity: 1;" transform=" matrix(1 0 0 1 0 0) " stroke-linecap="round" />
</g>
</svg>