<?xml version="1.0" encoding="UTF-8" standalone="no" ?>
<!DOCTYPE svg PUBLIC "-//W3C//DTD SVG 1.1//EN" "http://www.w3.org/Graphics/SVG/1.1/DTD/svg11.dtd">
<svg xmlns="http://www.w3.org/2000/svg" xmlns:xlink="http://www.w3.org/1999/xlink" version="1.1" width="350" height="350" viewBox="0 0 350 350" xml:space="preserve">
<desc>Created with Fabric.js 1.7.22</desc>
<defs>
</defs>
<g id="icon" style="stroke: none; stroke-width: 1; stroke-dasharray: none; stroke-linecap: butt; stroke-linejoin: miter; stroke-miterlimit: 10; fill: none; fill-rule: nonzero; opacity: 1;" transform="translate(-1.9444444444444287 -1.9444444444444287) scale(3.89 3.89)" >
	<circle cx="61.501" cy="31.341" r="17.271" style="stroke: none; stroke-width: 1; stroke-dasharray: none; stroke-linecap: butt; stroke-linejoin: miter; stroke-miterlimit: 10; fill: rgb(255,108,82); fill-rule: nonzero; opacity: 1;" transform="  matrix(1 0 0 1 0 0) "/>
	<path d="M 61.503 49.615 c -10.074 0 -18.271 -8.197 -18.271 -18.271 s 8.197 -18.271 18.271 -18.271 s 18.271 8.196 18.271 18.271 S 71.577 49.615 61.503 49.615 z M 61.503 15.073 c -8.972 0 -16.271 7.299 -16.271 16.271 c 0 8.972 7.299 16.271 16.271 16.271 s 16.271 -7.299 16.271 -16.271 C 77.773 22.372 70.475 15.073 61.503 15.073 z" style="stroke: none; stroke-width: 1; stroke-dasharray: none; stroke-linecap: butt; stroke-linejoin: miter; stroke-miterlimit: 10; fill: rgb(29,29,27); fill-rule: nonzero; opacity: 1;" transform=" matrix(1 0 0 1 0 0) " stroke-linecap="round" />
	<path d="M 29.915 51.032 h -0.343 c 0.42 -0.868 0.663 -1.838 0.663 -2.866 c 0 -3.641 -2.952 -6.593 -6.593 -6.593 c -2.503 0 -4.681 1.395 -5.797 3.451 c -0.786 -0.471 -1.702 -0.746 -2.685 -0.746 c -2.894 0 -5.241 2.346 -5.241 5.241 c 0 0.533 0.081 1.046 0.228 1.531 c -1.595 0.087 -2.864 1.395 -2.864 3.012 c 0 1.672 1.356 3.028 3.028 3.028 h 19.605 c 1.672 0 3.028 -1.356 3.028 -3.028 C 32.943 52.388 31.587 51.032 29.915 51.032 z" style="stroke: none; stroke-width: 1; stroke-dasharray: none; stroke-linecap: butt; stroke-linejoin: miter; stroke-miterlimit: 10; fill: rgb(207,249,255); fill-rule: nonzero; opacity: 1;" transform=" matrix(1 0 0 1 0 0) " stroke-linecap="round" />
	<path d="M 29.915 58.088 H 10.31 c -2.221 0 -4.028 -1.807 -4.028 -4.028 c 0 -1.739 1.113 -3.231 2.682 -3.785 c -0.03 -0.251 -0.046 -0.503 -0.046 -0.757 c 0 -3.441 2.8 -6.241 6.241 -6.241 c 0.795 0 1.583 0.154 2.32 0.451 c 1.417 -1.967 3.701 -3.156 6.163 -3.156 c 4.187 0 7.593 3.407 7.593 7.594 c 0 0.683 -0.091 1.354 -0.271 2.004 c 1.715 0.463 2.98 2.031 2.98 3.89 C 33.943 56.281 32.136 58.088 29.915 58.088 z M 15.158 45.277 c -2.338 0 -4.241 1.903 -4.241 4.241 c 0 0.421 0.062 0.838 0.185 1.239 c 0.09 0.294 0.039 0.613 -0.137 0.865 s -0.458 0.409 -0.766 0.426 c -1.076 0.058 -1.918 0.941 -1.918 2.012 c 0 1.118 0.91 2.028 2.028 2.028 h 19.605 c 1.119 0 2.028 -0.91 2.028 -2.028 s -0.91 -2.027 -2.028 -2.027 h -0.343 c -0.344 0 -0.665 -0.177 -0.847 -0.469 c -0.183 -0.292 -0.203 -0.657 -0.053 -0.967 c 0.373 -0.771 0.563 -1.589 0.563 -2.431 c 0 -3.084 -2.509 -5.594 -5.593 -5.594 c -2.053 0 -3.938 1.122 -4.918 2.928 c -0.13 0.239 -0.353 0.415 -0.615 0.487 c -0.263 0.073 -0.543 0.034 -0.777 -0.107 C 16.669 45.486 15.919 45.277 15.158 45.277 z" style="stroke: none; stroke-width: 1; stroke-dasharray: none; stroke-linecap: butt; stroke-linejoin: miter; stroke-miterlimit: 10; fill: rgb(29,29,27); fill-rule: nonzero; opacity: 1;" transform=" matrix(1 0 0 1 0 0) " stroke-linecap="round" />
	<path d="M 54.003 35.218 C 61.908 51.417 73.803 64.827 89 75.927 H 1 c 15.197 -11.101 27.092 -24.51 34.997 -40.709 C 42.573 37.746 48.574 37.746 54.003 35.218 z" style="stroke: none; stroke-width: 1; stroke-dasharray: none; stroke-linecap: butt; stroke-linejoin: miter; stroke-miterlimit: 10; fill: rgb(25,207,252); fill-rule: nonzero; opacity: 1;" transform=" matrix(1 0 0 1 0 0) " stroke-linecap="round" />
	<path d="M 23.977 54.187 c 4.676 -5.855 8.7 -12.166 12.02 -18.969 c 6.002 1.863 12.004 1.863 18.005 0 c 3.688 7.556 8.243 14.506 13.597 20.897 l 0 0 c -7.417 -0.541 -10.824 -9.176 -16.197 -9.176 c -5.153 0 -2.019 8.024 -6.575 8.024 c -3.662 0 -4.017 -7.364 -7.358 -7.364 C 31.587 47.599 30.54 57.48 23.977 54.187 L 23.977 54.187 z" style="stroke: none; stroke-width: 1; stroke-dasharray: none; stroke-linecap: butt; stroke-linejoin: miter; stroke-miterlimit: 10; fill: rgb(207,249,255); fill-rule: nonzero; opacity: 1;" transform=" matrix(1 0 0 1 0 0) " stroke-linecap="round" />
	<path d="M 89 76.927 H 1 c -0.433 0 -0.816 -0.278 -0.951 -0.689 c -0.134 -0.412 0.011 -0.863 0.361 -1.118 c 15.469 -11.299 27.14 -24.871 34.688 -40.34 c 0.217 -0.444 0.725 -0.66 1.195 -0.517 c 5.778 1.794 11.636 1.794 17.413 0 c 0.473 -0.144 0.979 0.073 1.195 0.517 c 7.549 15.469 19.22 29.041 34.688 40.34 c 0.35 0.255 0.495 0.706 0.36 1.118 C 89.816 76.648 89.433 76.927 89 76.927 z M 4.007 74.927 h 81.985 c -14.29 -10.936 -25.218 -23.876 -32.514 -38.511 c -5.628 1.591 -11.326 1.592 -16.958 0 C 29.226 51.05 18.298 63.991 4.007 74.927 z" style="stroke: none; stroke-width: 1; stroke-dasharray: none; stroke-linecap: butt; stroke-linejoin: miter; stroke-miterlimit: 10; fill: rgb(29,29,27); fill-rule: nonzero; opacity: 1;" transform=" matrix(1 0 0 1 0 0) " stroke-linecap="round" />
	<path d="M 32.912 25.638 h -0.252 c 0.309 -0.638 0.487 -1.35 0.487 -2.106 c 0 -2.675 -2.169 -4.844 -4.844 -4.844 c -1.839 0 -3.439 1.025 -4.26 2.535 c -0.578 -0.346 -1.251 -0.548 -1.973 -0.548 c -2.127 0 -3.851 1.724 -3.851 3.851 c 0 0.391 0.059 0.769 0.168 1.125 c -1.172 0.064 -2.104 1.025 -2.104 2.213 c 0 1.229 0.996 2.225 2.225 2.225 h 14.405 c 1.229 0 2.225 -0.996 2.225 -2.225 C 35.136 26.634 34.14 25.638 32.912 25.638 z" style="stroke: none; stroke-width: 1; stroke-dasharray: none; stroke-linecap: butt; stroke-linejoin: miter; stroke-miterlimit: 10; fill: rgb(207,249,255); fill-rule: nonzero; opacity: 1;" transform=" matrix(1 0 0 1 0 0) " stroke-linecap="round" />
	<path d="M 32.912 31.088 H 18.506 c -1.778 0 -3.225 -1.447 -3.225 -3.225 c 0 -1.319 0.799 -2.461 1.952 -2.955 c -0.01 -0.127 -0.015 -0.254 -0.015 -0.382 c 0 -2.675 2.176 -4.851 4.851 -4.851 c 0.55 0 1.095 0.095 1.612 0.278 c 1.097 -1.417 2.795 -2.266 4.621 -2.266 c 3.223 0 5.844 2.622 5.844 5.845 c 0 0.439 -0.049 0.872 -0.146 1.295 c 1.244 0.448 2.136 1.64 2.136 3.036 C 36.136 29.641 34.689 31.088 32.912 31.088 z M 22.069 21.675 c -1.572 0 -2.851 1.279 -2.851 2.851 c 0 0.281 0.042 0.562 0.125 0.833 c 0.089 0.294 0.039 0.613 -0.137 0.865 c -0.176 0.251 -0.458 0.409 -0.765 0.425 c -0.65 0.036 -1.159 0.569 -1.159 1.214 c 0 0.675 0.549 1.225 1.225 1.225 h 14.405 c 0.675 0 1.225 -0.549 1.225 -1.225 s -0.549 -1.225 -1.225 -1.225 h -0.252 c -0.344 0 -0.665 -0.177 -0.847 -0.469 c -0.183 -0.292 -0.203 -0.657 -0.053 -0.967 c 0.257 -0.529 0.387 -1.091 0.387 -1.67 c 0 -2.12 -1.725 -3.845 -3.844 -3.845 c -1.411 0 -2.707 0.771 -3.381 2.013 c -0.13 0.239 -0.353 0.415 -0.615 0.487 c -0.262 0.072 -0.543 0.034 -0.777 -0.106 C 23.084 21.815 22.58 21.675 22.069 21.675 z" style="stroke: none; stroke-width: 1; stroke-dasharray: none; stroke-linecap: butt; stroke-linejoin: miter; stroke-miterlimit: 10; fill: rgb(29,29,27); fill-rule: nonzero; opacity: 1;" transform=" matrix(1 0 0 1 0 0) " stroke-linecap="round" />
	<path d="M 67.526 57.111 c -4.274 -0.313 -7.264 -3.04 -9.901 -5.447 c -2.191 -2 -4.084 -3.727 -6.222 -3.727 c -1.679 0 -2.057 0.985 -2.572 3.405 c -0.416 1.949 -0.985 4.619 -4.003 4.619 c -2.479 0 -3.687 -2.309 -4.752 -4.345 c -0.813 -1.553 -1.58 -3.019 -2.606 -3.019 c -2.14 0 -3.577 1.676 -5.1 3.449 c -1.995 2.326 -4.479 5.225 -8.842 3.032 c -0.494 -0.247 -0.693 -0.849 -0.446 -1.342 c 0.248 -0.493 0.849 -0.693 1.342 -0.445 c 2.827 1.416 4.215 0.029 6.428 -2.548 c 1.668 -1.943 3.559 -4.146 6.617 -4.146 c 2.238 0 3.375 2.174 4.378 4.092 c 1.034 1.976 1.8 3.271 2.98 3.271 c 1.278 0 1.577 -0.833 2.047 -3.036 c 0.449 -2.105 1.063 -4.988 4.528 -4.988 c 2.913 0 5.175 2.063 7.569 4.249 c 2.516 2.295 5.116 4.669 8.701 4.931 L 67.526 57.111 z" style="stroke: none; stroke-width: 1; stroke-dasharray: none; stroke-linecap: butt; stroke-linejoin: miter; stroke-miterlimit: 10; fill: rgb(29,29,27); fill-rule: nonzero; opacity: 1;" transform=" matrix(1 0 0 1 0 0) " stroke-linecap="round" />
</g>
</svg>