<?xml version="1.0" encoding="UTF-8" standalone="no" ?>
<!DOCTYPE svg PUBLIC "-//W3C//DTD SVG 1.1//EN" "http://www.w3.org/Graphics/SVG/1.1/DTD/svg11.dtd">
<svg xmlns="http://www.w3.org/2000/svg" xmlns:xlink="http://www.w3.org/1999/xlink" version="1.1" width="350" height="350" viewBox="0 0 350 350" xml:space="preserve">
<desc>Created with Fabric.js 1.7.22</desc>
<defs>
</defs>
<g id="icon" style="stroke: none; stroke-width: 1; stroke-dasharray: none; stroke-linecap: butt; stroke-linejoin: miter; stroke-miterlimit: 10; fill: none; fill-rule: nonzero; opacity: 1;" transform="translate(-1.9444444444444287 -1.9444444444444287) scale(3.89 3.89)" >
	<path d="M 20.386 71.792 L 20.386 71.792 C 9.679 71.792 1 63.113 1 52.406 V 23.528 C 1 12.822 9.679 4.143 20.386 4.143 h 0 c 10.706 0 19.386 8.679 19.386 19.386 v 28.878 C 39.772 63.113 31.092 71.792 20.386 71.792 z" style="stroke: none; stroke-width: 1; stroke-dasharray: none; stroke-linecap: butt; stroke-linejoin: miter; stroke-miterlimit: 10; fill: rgb(243,181,137); fill-rule: nonzero; opacity: 1;" transform=" matrix(1 0 0 1 0 0) " stroke-linecap="round" />
	<path d="M 20.386 72.792 C 9.145 72.792 0 63.647 0 52.406 V 23.528 C 0 12.288 9.145 3.143 20.386 3.143 s 20.386 9.145 20.386 20.386 v 28.878 C 40.771 63.647 31.626 72.792 20.386 72.792 z M 20.386 5.143 C 10.248 5.143 2 13.391 2 23.528 v 28.878 c 0 10.138 8.248 18.386 18.386 18.386 s 18.386 -8.248 18.386 -18.386 V 23.528 C 38.771 13.391 30.523 5.143 20.386 5.143 z" style="stroke: none; stroke-width: 1; stroke-dasharray: none; stroke-linecap: butt; stroke-linejoin: miter; stroke-miterlimit: 10; fill: rgb(29,29,27); fill-rule: nonzero; opacity: 1;" transform=" matrix(1 0 0 1 0 0) " stroke-linecap="round" />
	<path d="M 31.51 34.785 c 2.048 0 3.516 -1.963 2.966 -3.936 c -1.719 -6.166 -7.376 -10.689 -14.09 -10.689 S 8.015 24.683 6.296 30.848 c -0.55 1.973 0.917 3.936 2.966 3.936 h 0 c 1.404 0 2.59 -0.963 2.973 -2.314 c 1.007 -3.554 4.275 -6.157 8.151 -6.157 s 7.144 2.604 8.151 6.157 C 28.92 33.822 30.105 34.785 31.51 34.785 L 31.51 34.785 z" style="stroke: none; stroke-width: 1; stroke-dasharray: none; stroke-linecap: butt; stroke-linejoin: miter; stroke-miterlimit: 10; fill: rgb(255,108,82); fill-rule: nonzero; opacity: 1;" transform=" matrix(1 0 0 1 0 0) " stroke-linecap="round" />
	<path d="M 31.51 35.785 c -1.838 0 -3.419 -1.222 -3.935 -3.041 c -0.906 -3.197 -3.862 -5.43 -7.189 -5.43 s -6.284 2.233 -7.189 5.43 c -0.515 1.819 -2.096 3.041 -3.935 3.041 c -1.284 0 -2.467 -0.587 -3.244 -1.611 c -0.784 -1.033 -1.033 -2.342 -0.685 -3.594 c 1.875 -6.725 8.064 -11.421 15.053 -11.421 c 6.988 0 13.178 4.696 15.053 11.421 c 0.349 1.251 0.099 2.562 -0.685 3.594 C 33.977 35.198 32.794 35.785 31.51 35.785 z M 20.386 25.313 c 4.217 0 7.965 2.831 9.113 6.885 c 0.269 0.949 1.077 1.586 2.011 1.586 c 0.653 0 1.255 -0.299 1.651 -0.82 c 0.402 -0.53 0.531 -1.204 0.351 -1.847 c -1.635 -5.863 -7.033 -9.958 -13.126 -9.958 c -6.094 0 -11.492 4.095 -13.126 9.958 c -0.18 0.644 -0.052 1.317 0.351 1.847 c 0.396 0.521 0.998 0.82 1.651 0.82 c 0.934 0 1.742 -0.637 2.011 -1.586 C 12.42 28.145 16.168 25.313 20.386 25.313 z" style="stroke: none; stroke-width: 1; stroke-dasharray: none; stroke-linecap: butt; stroke-linejoin: miter; stroke-miterlimit: 10; fill: rgb(29,29,27); fill-rule: nonzero; opacity: 1;" transform=" matrix(1 0 0 1 0 0) " stroke-linecap="round" />
	<circle cx="20.381" cy="17.851" r="4.001" style="stroke: none; stroke-width: 1; stroke-dasharray: none; stroke-linecap: butt; stroke-linejoin: miter; stroke-miterlimit: 10; fill: rgb(255,108,82); fill-rule: nonzero; opacity: 1;" transform="  matrix(1 0 0 1 0 0) "/>
	<path d="M 20.386 22.849 c -2.757 0 -5 -2.244 -5 -5.001 s 2.243 -5 5 -5 s 5.001 2.243 5.001 5 S 23.143 22.849 20.386 22.849 z M 20.386 14.847 c -1.654 0 -3 1.346 -3 3 c 0 1.655 1.346 3.001 3 3.001 c 1.655 0 3.001 -1.346 3.001 -3.001 C 23.387 16.193 22.041 14.847 20.386 14.847 z" style="stroke: none; stroke-width: 1; stroke-dasharray: none; stroke-linecap: butt; stroke-linejoin: miter; stroke-miterlimit: 10; fill: rgb(29,29,27); fill-rule: nonzero; opacity: 1;" transform=" matrix(1 0 0 1 0 0) " stroke-linecap="round" />
	<path d="M 12.315 71.032 c -0.552 0 -1 -0.447 -1 -1 V 55.385 c 0 -0.553 0.448 -1 1 -1 s 1 0.447 1 1 v 14.647 C 13.315 70.585 12.867 71.032 12.315 71.032 z" style="stroke: none; stroke-width: 1; stroke-dasharray: none; stroke-linecap: butt; stroke-linejoin: miter; stroke-miterlimit: 10; fill: rgb(29,29,27); fill-rule: nonzero; opacity: 1;" transform=" matrix(1 0 0 1 0 0) " stroke-linecap="round" />
	<path d="M 27.191 58.35 c -0.552 0 -1 -0.447 -1 -1 v -8.14 c 0 -0.553 0.448 -1 1 -1 s 1 0.447 1 1 v 8.14 C 28.191 57.902 27.744 58.35 27.191 58.35 z" style="stroke: none; stroke-width: 1; stroke-dasharray: none; stroke-linecap: butt; stroke-linejoin: miter; stroke-miterlimit: 10; fill: rgb(29,29,27); fill-rule: nonzero; opacity: 1;" transform=" matrix(1 0 0 1 0 0) " stroke-linecap="round" />
	<path d="M 29.296 12.037 c -0.552 0 -1 -0.448 -1 -1 V 6.309 c 0 -0.552 0.448 -1 1 -1 s 1 0.448 1 1 v 4.728 C 30.296 11.589 29.849 12.037 29.296 12.037 z" style="stroke: none; stroke-width: 1; stroke-dasharray: none; stroke-linecap: butt; stroke-linejoin: miter; stroke-miterlimit: 10; fill: rgb(29,29,27); fill-rule: nonzero; opacity: 1;" transform=" matrix(1 0 0 1 0 0) " stroke-linecap="round" />
	<path d="M 69.614 85.857 L 69.614 85.857 C 80.321 85.857 89 77.178 89 66.472 V 37.594 c 0 -10.706 -8.679 -19.386 -19.386 -19.386 h 0 c -10.706 0 -19.386 8.679 -19.386 19.386 v 28.878 C 50.228 77.178 58.908 85.857 69.614 85.857 z" style="stroke: none; stroke-width: 1; stroke-dasharray: none; stroke-linecap: butt; stroke-linejoin: miter; stroke-miterlimit: 10; fill: rgb(243,181,137); fill-rule: nonzero; opacity: 1;" transform=" matrix(1 0 0 1 0 0) " stroke-linecap="round" />
	<path d="M 69.614 86.857 c -11.241 0 -20.386 -9.145 -20.386 -20.386 V 37.594 c 0 -11.241 9.145 -20.386 20.386 -20.386 S 90 26.353 90 37.594 v 28.878 C 90 77.713 80.855 86.857 69.614 86.857 z M 69.614 19.208 c -10.138 0 -18.386 8.248 -18.386 18.386 v 28.878 c 0 10.138 8.248 18.386 18.386 18.386 S 88 76.609 88 66.472 V 37.594 C 88 27.456 79.752 19.208 69.614 19.208 z" style="stroke: none; stroke-width: 1; stroke-dasharray: none; stroke-linecap: butt; stroke-linejoin: miter; stroke-miterlimit: 10; fill: rgb(29,29,27); fill-rule: nonzero; opacity: 1;" transform=" matrix(1 0 0 1 0 0) " stroke-linecap="round" />
	<path d="M 58.49 48.85 c -2.048 0 -3.516 -1.963 -2.966 -3.936 c 1.719 -6.166 7.376 -10.689 14.09 -10.689 s 12.371 4.524 14.09 10.689 c 0.55 1.973 -0.917 3.936 -2.966 3.936 l 0 0 c -1.404 0 -2.59 -0.963 -2.973 -2.314 c -1.007 -3.554 -4.275 -6.157 -8.151 -6.157 c -3.876 0 -7.144 2.604 -8.151 6.157 C 61.08 47.887 59.895 48.85 58.49 48.85 L 58.49 48.85 z" style="stroke: none; stroke-width: 1; stroke-dasharray: none; stroke-linecap: butt; stroke-linejoin: miter; stroke-miterlimit: 10; fill: rgb(255,108,82); fill-rule: nonzero; opacity: 1;" transform=" matrix(1 0 0 1 0 0) " stroke-linecap="round" />
	<path d="M 80.738 49.85 c -1.838 0 -3.42 -1.222 -3.935 -3.041 c -0.906 -3.197 -3.862 -5.43 -7.189 -5.43 s -6.283 2.233 -7.189 5.43 c -0.515 1.819 -2.097 3.041 -3.935 3.041 c -1.284 0 -2.467 -0.587 -3.244 -1.61 c -0.784 -1.032 -1.034 -2.342 -0.685 -3.594 c 1.874 -6.724 8.064 -11.42 15.053 -11.42 s 13.179 4.696 15.053 11.42 c 0.349 1.251 0.1 2.561 -0.685 3.594 C 83.205 49.263 82.022 49.85 80.738 49.85 z M 69.614 39.379 c 4.218 0 7.965 2.831 9.113 6.885 c 0.269 0.948 1.077 1.586 2.011 1.586 c 0.653 0 1.255 -0.299 1.651 -0.82 c 0.402 -0.53 0.53 -1.204 0.352 -1.847 c -1.635 -5.863 -7.032 -9.958 -13.127 -9.958 s -11.492 4.095 -13.127 9.958 c -0.179 0.644 -0.051 1.317 0.352 1.847 c 0.396 0.521 0.998 0.82 1.651 0.82 c 0.934 0 1.742 -0.638 2.011 -1.586 C 61.649 42.21 65.396 39.379 69.614 39.379 z" style="stroke: none; stroke-width: 1; stroke-dasharray: none; stroke-linecap: butt; stroke-linejoin: miter; stroke-miterlimit: 10; fill: rgb(29,29,27); fill-rule: nonzero; opacity: 1;" transform=" matrix(1 0 0 1 0 0) " stroke-linecap="round" />
	<circle cx="69.611" cy="31.911" r="4.001" style="stroke: none; stroke-width: 1; stroke-dasharray: none; stroke-linecap: butt; stroke-linejoin: miter; stroke-miterlimit: 10; fill: rgb(255,108,82); fill-rule: nonzero; opacity: 1;" transform="  matrix(1 0 0 1 0 0) "/>
	<path d="M 69.614 36.914 c -2.758 0 -5.001 -2.243 -5.001 -5 s 2.243 -5.001 5.001 -5.001 s 5.001 2.244 5.001 5.001 S 72.372 36.914 69.614 36.914 z M 69.614 28.912 c -1.654 0 -3.001 1.346 -3.001 3.001 c 0 1.654 1.347 3 3.001 3 s 3.001 -1.346 3.001 -3 C 72.615 30.258 71.269 28.912 69.614 28.912 z" style="stroke: none; stroke-width: 1; stroke-dasharray: none; stroke-linecap: butt; stroke-linejoin: miter; stroke-miterlimit: 10; fill: rgb(29,29,27); fill-rule: nonzero; opacity: 1;" transform=" matrix(1 0 0 1 0 0) " stroke-linecap="round" />
	<path d="M 77.686 85.098 c -0.553 0 -1 -0.447 -1 -1 V 69.45 c 0 -0.553 0.447 -1 1 -1 s 1 0.447 1 1 v 14.647 C 78.686 84.65 78.238 85.098 77.686 85.098 z" style="stroke: none; stroke-width: 1; stroke-dasharray: none; stroke-linecap: butt; stroke-linejoin: miter; stroke-miterlimit: 10; fill: rgb(29,29,27); fill-rule: nonzero; opacity: 1;" transform=" matrix(1 0 0 1 0 0) " stroke-linecap="round" />
	<path d="M 62.809 72.415 c -0.553 0 -1 -0.447 -1 -1 v -8.14 c 0 -0.553 0.447 -1 1 -1 s 1 0.447 1 1 v 8.14 C 63.809 71.968 63.361 72.415 62.809 72.415 z" style="stroke: none; stroke-width: 1; stroke-dasharray: none; stroke-linecap: butt; stroke-linejoin: miter; stroke-miterlimit: 10; fill: rgb(29,29,27); fill-rule: nonzero; opacity: 1;" transform=" matrix(1 0 0 1 0 0) " stroke-linecap="round" />
	<path d="M 60.704 26.102 c -0.553 0 -1 -0.448 -1 -1 v -4.728 c 0 -0.552 0.447 -1 1 -1 s 1 0.448 1 1 v 4.728 C 61.704 25.654 61.257 26.102 60.704 26.102 z" style="stroke: none; stroke-width: 1; stroke-dasharray: none; stroke-linecap: butt; stroke-linejoin: miter; stroke-miterlimit: 10; fill: rgb(29,29,27); fill-rule: nonzero; opacity: 1;" transform=" matrix(1 0 0 1 0 0) " stroke-linecap="round" />
</g>
</svg>