<?xml version="1.0" encoding="UTF-8" standalone="no" ?>
<!DOCTYPE svg PUBLIC "-//W3C//DTD SVG 1.1//EN" "http://www.w3.org/Graphics/SVG/1.1/DTD/svg11.dtd">
<svg xmlns="http://www.w3.org/2000/svg" xmlns:xlink="http://www.w3.org/1999/xlink" version="1.1" width="350" height="350" viewBox="0 0 350 350" xml:space="preserve">
<desc>Created with Fabric.js 1.7.22</desc>
<defs>
</defs>
<g id="icon" style="stroke: none; stroke-width: 1; stroke-dasharray: none; stroke-linecap: butt; stroke-linejoin: miter; stroke-miterlimit: 10; fill: none; fill-rule: nonzero; opacity: 1;" transform="translate(-1.9444444444444287 -1.9444444444444287) scale(3.89 3.89)" >
	<rect x="9.43" y="18.27" rx="0" ry="0" width="10.52" height="62.68" style="stroke: none; stroke-width: 1; stroke-dasharray: none; stroke-linecap: butt; stroke-linejoin: miter; stroke-miterlimit: 10; fill: rgb(243,181,137); fill-rule: nonzero; opacity: 1;" transform=" matrix(1 0 0 1 0 0) "/>
	<rect x="70.06" y="18.27" rx="0" ry="0" width="10.52" height="62.68" style="stroke: none; stroke-width: 1; stroke-dasharray: none; stroke-linecap: butt; stroke-linejoin: miter; stroke-miterlimit: 10; fill: rgb(243,181,137); fill-rule: nonzero; opacity: 1;" transform=" matrix(1 0 0 1 0 0) "/>
	<path d="M 19.945 81.953 H 9.425 c -0.552 0 -1 -0.447 -1 -1 V 18.271 c 0 -0.552 0.448 -1 1 -1 h 10.52 c 0.552 0 1 0.448 1 1 v 62.682 C 20.945 81.506 20.498 81.953 19.945 81.953 z M 10.425 79.953 h 8.52 V 19.271 h -8.52 V 79.953 z" style="stroke: none; stroke-width: 1; stroke-dasharray: none; stroke-linecap: butt; stroke-linejoin: miter; stroke-miterlimit: 10; fill: rgb(29,29,27); fill-rule: nonzero; opacity: 1;" transform=" matrix(1 0 0 1 0 0) " stroke-linecap="round" />
	<path d="M 80.574 81.953 h -10.52 c -0.553 0 -1 -0.447 -1 -1 V 18.271 c 0 -0.552 0.447 -1 1 -1 h 10.52 c 0.553 0 1 0.448 1 1 v 62.682 C 81.574 81.506 81.127 81.953 80.574 81.953 z M 71.055 79.953 h 8.52 V 19.271 h -8.52 V 79.953 z" style="stroke: none; stroke-width: 1; stroke-dasharray: none; stroke-linecap: butt; stroke-linejoin: miter; stroke-miterlimit: 10; fill: rgb(29,29,27); fill-rule: nonzero; opacity: 1;" transform=" matrix(1 0 0 1 0 0) " stroke-linecap="round" />
	<path d="M 45 15.046 c -17.216 0 -32.781 -2.685 -44 -7.012 l 1.766 10.296 C 13.828 22.27 28.67 24.686 45 24.686 s 31.172 -2.416 42.234 -6.357 L 89 8.033 C 77.781 12.361 62.216 15.046 45 15.046 z" style="stroke: none; stroke-width: 1; stroke-dasharray: none; stroke-linecap: butt; stroke-linejoin: miter; stroke-miterlimit: 10; fill: rgb(221,153,104); fill-rule: nonzero; opacity: 1;" transform=" matrix(1 0 0 1 0 0) " stroke-linecap="round" />
	<path d="M 45 25.686 c -15.84 0 -30.958 -2.278 -42.569 -6.415 c -0.34 -0.121 -0.589 -0.417 -0.65 -0.773 L 0.014 8.202 C -0.046 7.848 0.088 7.488 0.366 7.26 C 0.644 7.031 1.023 6.971 1.36 7.1 c 11.612 4.479 27.11 6.946 43.64 6.946 c 16.529 0 32.028 -2.467 43.64 -6.946 c 0.337 -0.129 0.715 -0.069 0.994 0.16 c 0.278 0.228 0.413 0.588 0.352 0.942 l -1.767 10.296 c -0.061 0.356 -0.31 0.652 -0.649 0.773 C 75.959 23.408 60.841 25.686 45 25.686 z M 3.653 17.581 C 14.98 21.521 29.632 23.686 45 23.686 c 15.368 0 30.021 -2.166 41.347 -6.105 l 1.374 -8.004 C 76.088 13.755 61.007 16.046 45 16.046 c -16.008 0 -31.089 -2.291 -42.721 -6.469 L 3.653 17.581 z" style="stroke: none; stroke-width: 1; stroke-dasharray: none; stroke-linecap: butt; stroke-linejoin: miter; stroke-miterlimit: 10; fill: rgb(29,29,27); fill-rule: nonzero; opacity: 1;" transform=" matrix(1 0 0 1 0 0) " stroke-linecap="round" />
	<rect x="7.26" y="73.26" rx="0" ry="0" width="14.86" height="8.71" style="stroke: none; stroke-width: 1; stroke-dasharray: none; stroke-linecap: butt; stroke-linejoin: miter; stroke-miterlimit: 10; fill: rgb(221,153,104); fill-rule: nonzero; opacity: 1;" transform=" matrix(1 0 0 1 0 0) "/>
	<path d="M 22.114 82.967 H 7.257 c -0.552 0 -1 -0.447 -1 -1 V 73.26 c 0 -0.553 0.448 -1 1 -1 h 14.856 c 0.552 0 1 0.447 1 1 v 8.707 C 23.114 82.52 22.666 82.967 22.114 82.967 z M 8.257 80.967 h 12.856 V 74.26 H 8.257 V 80.967 z" style="stroke: none; stroke-width: 1; stroke-dasharray: none; stroke-linecap: butt; stroke-linejoin: miter; stroke-miterlimit: 10; fill: rgb(29,29,27); fill-rule: nonzero; opacity: 1;" transform=" matrix(1 0 0 1 0 0) " stroke-linecap="round" />
	<rect x="67.89" y="73.26" rx="0" ry="0" width="14.86" height="8.71" style="stroke: none; stroke-width: 1; stroke-dasharray: none; stroke-linecap: butt; stroke-linejoin: miter; stroke-miterlimit: 10; fill: rgb(221,153,104); fill-rule: nonzero; opacity: 1;" transform=" matrix(1 0 0 1 0 0) "/>
	<path d="M 82.743 82.967 H 67.887 c -0.553 0 -1 -0.447 -1 -1 V 73.26 c 0 -0.553 0.447 -1 1 -1 h 14.856 c 0.553 0 1 0.447 1 1 v 8.707 C 83.743 82.52 83.296 82.967 82.743 82.967 z M 68.887 80.967 h 12.856 V 74.26 H 68.887 V 80.967 z" style="stroke: none; stroke-width: 1; stroke-dasharray: none; stroke-linecap: butt; stroke-linejoin: miter; stroke-miterlimit: 10; fill: rgb(29,29,27); fill-rule: nonzero; opacity: 1;" transform=" matrix(1 0 0 1 0 0) " stroke-linecap="round" />
	<circle cx="44.997" cy="51.497" r="18.067" style="stroke: none; stroke-width: 1; stroke-dasharray: none; stroke-linecap: butt; stroke-linejoin: miter; stroke-miterlimit: 10; fill: rgb(245,216,130); fill-rule: nonzero; opacity: 1;" transform="  matrix(1 0 0 1 0 0) "/>
	<path d="M 45 70.566 c -10.514 0 -19.067 -8.553 -19.067 -19.066 S 34.486 32.433 45 32.433 S 64.066 40.986 64.066 51.5 S 55.514 70.566 45 70.566 z M 45 34.433 c -9.411 0 -17.067 7.656 -17.067 17.067 c 0 9.41 7.656 17.066 17.067 17.066 c 9.41 0 17.066 -7.656 17.066 -17.066 C 62.066 42.089 54.41 34.433 45 34.433 z" style="stroke: none; stroke-width: 1; stroke-dasharray: none; stroke-linecap: butt; stroke-linejoin: miter; stroke-miterlimit: 10; fill: rgb(29,29,27); fill-rule: nonzero; opacity: 1;" transform=" matrix(1 0 0 1 0 0) " stroke-linecap="round" />
	<circle cx="45" cy="51.5" r="7" style="stroke: none; stroke-width: 1; stroke-dasharray: none; stroke-linecap: butt; stroke-linejoin: miter; stroke-miterlimit: 10; fill: rgb(255,210,120); fill-rule: nonzero; opacity: 1;" transform="  matrix(1 0 0 1 0 0) "/>
	<path d="M 45 59.5 c -4.411 0 -8 -3.589 -8 -8 s 3.589 -8 8 -8 s 8 3.589 8 8 S 49.411 59.5 45 59.5 z M 45 45.5 c -3.309 0 -6 2.691 -6 6 s 2.691 6 6 6 s 6 -2.691 6 -6 S 48.309 45.5 45 45.5 z" style="stroke: none; stroke-width: 1; stroke-dasharray: none; stroke-linecap: butt; stroke-linejoin: miter; stroke-miterlimit: 10; fill: rgb(29,29,27); fill-rule: nonzero; opacity: 1;" transform=" matrix(1 0 0 1 0 0) " stroke-linecap="round" />
	<path d="M 33.153 38.867 c -0.28 0 -0.558 -0.117 -0.755 -0.344 L 19.19 23.323 c -0.362 -0.417 -0.318 -1.048 0.099 -1.411 c 0.417 -0.363 1.048 -0.318 1.411 0.099 l 13.208 15.199 c 0.362 0.417 0.318 1.048 -0.099 1.411 C 33.62 38.786 33.386 38.867 33.153 38.867 z" style="stroke: none; stroke-width: 1; stroke-dasharray: none; stroke-linecap: butt; stroke-linejoin: miter; stroke-miterlimit: 10; fill: rgb(29,29,27); fill-rule: nonzero; opacity: 1;" transform=" matrix(1 0 0 1 0 0) " stroke-linecap="round" />
	<path d="M 56.85 38.864 c -0.233 0 -0.467 -0.081 -0.656 -0.245 c -0.417 -0.362 -0.461 -0.994 -0.099 -1.411 l 13.206 -15.197 c 0.364 -0.417 0.995 -0.46 1.411 -0.099 c 0.417 0.362 0.461 0.994 0.099 1.411 L 57.604 38.52 C 57.406 38.748 57.129 38.864 56.85 38.864 z" style="stroke: none; stroke-width: 1; stroke-dasharray: none; stroke-linecap: butt; stroke-linejoin: miter; stroke-miterlimit: 10; fill: rgb(29,29,27); fill-rule: nonzero; opacity: 1;" transform=" matrix(1 0 0 1 0 0) " stroke-linecap="round" />
	<rect x="54.01" y="57.32" rx="0" ry="0" width="4.33" height="16.24" style="stroke: none; stroke-width: 1; stroke-dasharray: none; stroke-linecap: butt; stroke-linejoin: miter; stroke-miterlimit: 10; fill: rgb(243,181,137); fill-rule: nonzero; opacity: 1;" transform=" matrix(0.7071 -0.7071 0.7071 0.7071 -29.8203 58.8913) "/>
	<path d="M 60.39 73.717 c -0.266 0 -0.52 -0.105 -0.707 -0.293 L 48.196 61.938 c -0.188 -0.188 -0.293 -0.441 -0.293 -0.707 s 0.105 -0.52 0.293 -0.707 l 3.063 -3.063 c 0.391 -0.391 1.023 -0.391 1.414 0 l 11.485 11.485 c 0.391 0.391 0.391 1.023 0 1.414 l -3.063 3.063 C 60.909 73.611 60.655 73.717 60.39 73.717 z M 50.317 61.23 L 60.39 71.303 l 1.648 -1.649 L 51.967 59.582 L 50.317 61.23 z" style="stroke: none; stroke-width: 1; stroke-dasharray: none; stroke-linecap: butt; stroke-linejoin: miter; stroke-miterlimit: 10; fill: rgb(29,29,27); fill-rule: nonzero; opacity: 1;" transform=" matrix(1 0 0 1 0 0) " stroke-linecap="round" />
	<circle cx="48.67100000000001" cy="57.931" r="4.791" style="stroke: none; stroke-width: 1; stroke-dasharray: none; stroke-linecap: butt; stroke-linejoin: miter; stroke-miterlimit: 10; fill: rgb(255,108,82); fill-rule: nonzero; opacity: 1;" transform="  matrix(1 0 0 1 0 0) "/>
	<path d="M 48.669 63.721 c -1.483 0 -2.966 -0.564 -4.095 -1.693 c -2.258 -2.258 -2.258 -5.932 0 -8.189 s 5.932 -2.258 8.189 0 l 0 0 c 2.257 2.258 2.257 5.932 0 8.189 C 51.635 63.156 50.151 63.721 48.669 63.721 z M 48.669 54.144 c -0.971 0 -1.941 0.369 -2.681 1.108 c -1.478 1.479 -1.478 3.883 0 5.361 c 1.479 1.479 3.883 1.479 5.361 0 c 1.478 -1.479 1.478 -3.883 0 -5.361 C 50.61 54.513 49.64 54.144 48.669 54.144 z" style="stroke: none; stroke-width: 1; stroke-dasharray: none; stroke-linecap: butt; stroke-linejoin: miter; stroke-miterlimit: 10; fill: rgb(29,29,27); fill-rule: nonzero; opacity: 1;" transform=" matrix(1 0 0 1 0 0) " stroke-linecap="round" />
</g>
</svg>