<?xml version="1.0" encoding="UTF-8" standalone="no" ?>
<!DOCTYPE svg PUBLIC "-//W3C//DTD SVG 1.1//EN" "http://www.w3.org/Graphics/SVG/1.1/DTD/svg11.dtd">
<svg xmlns="http://www.w3.org/2000/svg" xmlns:xlink="http://www.w3.org/1999/xlink" version="1.1" width="350" height="350" viewBox="0 0 350 350" xml:space="preserve">
<desc>Created with Fabric.js 1.7.22</desc>
<defs>
</defs>
<g id="icon" style="stroke: none; stroke-width: 1; stroke-dasharray: none; stroke-linecap: butt; stroke-linejoin: miter; stroke-miterlimit: 10; fill: none; fill-rule: nonzero; opacity: 1;" transform="translate(-1.9444444444444287 -1.9444444444444287) scale(3.89 3.89)" >
	<path d="M 79.181 48.189 c -2.624 6.77 -5.649 12.197 -9.012 11.43 c -3.363 -0.767 -4.78 -7.127 -3.166 -14.207 c 1.614 -7.079 7.215 -8.486 9.012 -11.43 C 80.101 27.287 83.253 37.682 79.181 48.189 z" style="stroke: none; stroke-width: 1; stroke-dasharray: none; stroke-linecap: butt; stroke-linejoin: miter; stroke-miterlimit: 10; fill: rgb(243,83,58); fill-rule: nonzero; opacity: 1;" transform=" matrix(1 0 0 1 0 0) " stroke-linecap="round" />
	<path d="M 70.827 60.695 c -0.288 0 -0.582 -0.033 -0.881 -0.102 c -2.024 -0.461 -3.516 -2.412 -4.202 -5.494 c -0.629 -2.825 -0.528 -6.345 0.285 -9.91 c 1.145 -5.022 4.13 -7.364 6.53 -9.246 c 1.119 -0.878 2.087 -1.637 2.603 -2.483 c 1.84 -3.015 3.523 -2.771 4.363 -2.358 c 3.172 1.567 3.458 10.046 0.59 17.446 l 0 0 C 77.891 54.284 74.862 60.695 70.827 60.695 z M 78.517 32.871 c -0.335 0 -0.944 0.48 -1.649 1.632 c -0.704 1.153 -1.856 2.057 -3.075 3.014 c -2.263 1.775 -4.826 3.786 -5.815 8.117 c -0.748 3.282 -0.849 6.49 -0.282 9.031 c 0.502 2.252 1.484 3.702 2.695 3.979 c 1.538 0.343 4.147 -1.243 7.857 -10.817 l 0 0 c 3.01 -7.767 1.734 -14.266 0.39 -14.931 C 78.603 32.88 78.563 32.871 78.517 32.871 z" style="stroke: none; stroke-width: 1; stroke-dasharray: none; stroke-linecap: butt; stroke-linejoin: miter; stroke-miterlimit: 10; fill: rgb(29,29,27); fill-rule: nonzero; opacity: 1;" transform=" matrix(1 0 0 1 0 0) " stroke-linecap="round" />
	<path d="M 10.819 48.189 c 2.624 6.77 5.649 12.197 9.012 11.43 c 3.363 -0.767 4.78 -7.127 3.166 -14.207 c -1.614 -7.079 -7.215 -8.486 -9.012 -11.43 C 9.898 27.287 6.746 37.682 10.819 48.189 z" style="stroke: none; stroke-width: 1; stroke-dasharray: none; stroke-linecap: butt; stroke-linejoin: miter; stroke-miterlimit: 10; fill: rgb(243,83,58); fill-rule: nonzero; opacity: 1;" transform=" matrix(1 0 0 1 0 0) " stroke-linecap="round" />
	<path d="M 19.173 60.695 c -4.034 0 -7.063 -6.411 -9.286 -12.145 l 0 0 c -2.868 -7.401 -2.582 -15.879 0.59 -17.446 c 0.839 -0.414 2.521 -0.66 4.362 2.358 c 0.516 0.845 1.483 1.604 2.603 2.482 c 2.399 1.882 5.385 4.224 6.53 9.247 c 0.813 3.565 0.914 7.085 0.285 9.91 c -0.687 3.081 -2.179 5.033 -4.203 5.494 C 19.755 60.662 19.461 60.695 19.173 60.695 z M 11.752 47.827 c 3.712 9.576 6.322 11.159 7.857 10.817 c 1.211 -0.276 2.194 -1.727 2.695 -3.979 c 0.566 -2.541 0.466 -5.748 -0.283 -9.031 c -0.987 -4.331 -3.552 -6.342 -5.814 -8.117 c -1.22 -0.957 -2.372 -1.86 -3.076 -3.014 c -0.799 -1.309 -1.478 -1.749 -1.769 -1.607 C 10.018 33.561 8.741 40.061 11.752 47.827 L 11.752 47.827 z" style="stroke: none; stroke-width: 1; stroke-dasharray: none; stroke-linecap: butt; stroke-linejoin: miter; stroke-miterlimit: 10; fill: rgb(29,29,27); fill-rule: nonzero; opacity: 1;" transform=" matrix(1 0 0 1 0 0) " stroke-linecap="round" />
	<path d="M 45.091 86.709 c 3.183 3.485 13.037 4.085 16.492 -6.026 c 1.917 -6.116 6.316 -10.064 9.095 -16.294 c 2.508 -5.624 3.443 -13.36 4.511 -21.76 c 2.525 -21.76 -12.624 -30.097 -30.097 -30.097 h 0 h 0 h 0 h 0 c -17.474 0 -32.622 8.338 -30.097 30.097 c 1.067 8.4 2.003 16.136 4.511 21.76 c 2.779 6.231 7.178 10.178 9.095 16.294 C 32.054 90.794 41.908 90.194 45.091 86.709 L 45.091 86.709 z" style="stroke: none; stroke-width: 1; stroke-dasharray: none; stroke-linecap: butt; stroke-linejoin: miter; stroke-miterlimit: 10; fill: rgb(255,108,82); fill-rule: nonzero; opacity: 1;" transform=" matrix(1 0 0 1 0 0) " stroke-linecap="round" />
	<path d="M 45.091 69.371 h 1.753 c 3.71 0 7.405 -0.484 10.99 -1.44 h 0 c 1.471 -0.392 2.681 1.191 1.917 2.507 l -1.675 2.887 c -2.233 3.849 -6.347 6.218 -10.797 6.218 h -2.188 h -2.188 c -4.45 0 -8.564 -2.369 -10.797 -6.218 l -1.675 -2.887 c -0.764 -1.317 0.446 -2.9 1.917 -2.507 h 0 c 3.585 0.956 7.279 1.44 10.99 1.44 H 45.091 z" style="stroke: none; stroke-width: 1; stroke-dasharray: none; stroke-linecap: butt; stroke-linejoin: miter; stroke-miterlimit: 10; fill: rgb(243,83,58); fill-rule: nonzero; opacity: 1;" transform=" matrix(1 0 0 1 0 0) " stroke-linecap="round" />
	<path d="M 68.08 48.124 c -8.212 11.199 -19.265 10.059 -20.126 -2.431 C 52.137 48.67 59.135 49.231 68.08 48.124 z" style="stroke: none; stroke-width: 1; stroke-dasharray: none; stroke-linecap: butt; stroke-linejoin: miter; stroke-miterlimit: 10; fill: rgb(243,83,58); fill-rule: nonzero; opacity: 1;" transform=" matrix(1 0 0 1 0 0) " stroke-linecap="round" />
	<path d="M 22.103 48.124 c 8.212 11.199 19.265 10.059 20.126 -2.431 C 38.046 48.67 31.047 49.231 22.103 48.124 z" style="stroke: none; stroke-width: 1; stroke-dasharray: none; stroke-linecap: butt; stroke-linejoin: miter; stroke-miterlimit: 10; fill: rgb(243,83,58); fill-rule: nonzero; opacity: 1;" transform=" matrix(1 0 0 1 0 0) " stroke-linecap="round" />
	<path d="M 47.278 80.544 h -4.375 c -4.789 0 -9.258 -2.573 -11.662 -6.716 l -1.675 -2.888 c -0.561 -0.966 -0.487 -2.117 0.191 -3.004 c 0.678 -0.887 1.771 -1.257 2.849 -0.971 c 3.5 0.933 7.11 1.406 10.732 1.406 h 3.506 c 3.621 0 7.232 -0.474 10.732 -1.406 c 1.067 -0.287 2.183 0.098 2.85 0.972 c 0.678 0.887 0.751 2.038 0.189 3.003 l -1.674 2.888 C 56.537 77.971 52.068 80.544 47.278 80.544 z M 31.892 68.87 c -0.294 0 -0.474 0.188 -0.545 0.281 c -0.086 0.113 -0.264 0.416 -0.05 0.785 l 1.675 2.888 c 2.047 3.529 5.853 5.72 9.932 5.72 h 4.375 c 4.079 0 7.885 -2.192 9.932 -5.72 l 1.675 -2.888 c 0.215 -0.369 0.037 -0.672 -0.049 -0.785 c -0.088 -0.112 -0.332 -0.359 -0.745 -0.254 c -3.668 0.979 -7.453 1.475 -11.248 1.475 h -3.506 c -3.795 0 -7.58 -0.496 -11.247 -1.475 C 32.02 68.879 31.953 68.87 31.892 68.87 z" style="stroke: none; stroke-width: 1; stroke-dasharray: none; stroke-linecap: butt; stroke-linejoin: miter; stroke-miterlimit: 10; fill: rgb(29,29,27); fill-rule: nonzero; opacity: 1;" transform=" matrix(1 0 0 1 0 0) " stroke-linecap="round" />
	<path d="M 56.17 56.846 c -0.815 0 -1.612 -0.109 -2.385 -0.332 c -3.948 -1.144 -6.437 -5.063 -6.83 -10.752 c -0.026 -0.386 0.172 -0.752 0.51 -0.941 c 0.337 -0.189 0.753 -0.166 1.068 0.058 c 3.7 2.632 10.234 3.39 19.423 2.254 c 0.392 -0.047 0.783 0.142 0.985 0.486 c 0.202 0.344 0.18 0.775 -0.056 1.098 C 65.079 53.907 60.397 56.846 56.17 56.846 z M 49.192 47.587 c 0.675 3.727 2.497 6.238 5.15 7.005 c 3.471 1.007 7.733 -0.972 11.453 -5.213 C 58.493 50.06 53.019 49.471 49.192 47.587 z" style="stroke: none; stroke-width: 1; stroke-dasharray: none; stroke-linecap: butt; stroke-linejoin: miter; stroke-miterlimit: 10; fill: rgb(29,29,27); fill-rule: nonzero; opacity: 1;" transform=" matrix(1 0 0 1 0 0) " stroke-linecap="round" />
	<path d="M 34.013 56.846 c -4.227 0 -8.909 -2.939 -12.717 -8.13 c -0.236 -0.322 -0.258 -0.754 -0.056 -1.098 c 0.202 -0.345 0.588 -0.533 0.985 -0.486 c 9.189 1.138 15.724 0.379 19.424 -2.254 c 0.314 -0.224 0.731 -0.246 1.068 -0.058 c 0.337 0.189 0.536 0.556 0.509 0.941 c -0.392 5.689 -2.882 9.609 -6.829 10.751 C 35.626 56.737 34.828 56.846 34.013 56.846 z M 24.388 49.379 c 3.72 4.241 7.976 6.221 11.453 5.213 c 2.652 -0.768 4.474 -3.279 5.149 -7.005 C 37.164 49.471 31.692 50.062 24.388 49.379 z" style="stroke: none; stroke-width: 1; stroke-dasharray: none; stroke-linecap: butt; stroke-linejoin: miter; stroke-miterlimit: 10; fill: rgb(29,29,27); fill-rule: nonzero; opacity: 1;" transform=" matrix(1 0 0 1 0 0) " stroke-linecap="round" />
	<path d="M 14.787 40.147 c 0.36 0.023 0.716 0.066 1.081 0.066 c 10.918 0 19.769 -10.648 19.769 -23.783 c 0 -1.003 -0.068 -1.985 -0.168 -2.955 C 23.116 16.064 13.887 24.182 14.787 40.147 z" style="stroke: none; stroke-width: 1; stroke-dasharray: none; stroke-linecap: butt; stroke-linejoin: miter; stroke-miterlimit: 10; fill: rgb(243,83,58); fill-rule: nonzero; opacity: 1;" transform=" matrix(1 0 0 1 0 0) " stroke-linecap="round" />
	<path d="M 75.405 40.147 c -0.36 0.023 -0.716 0.066 -1.081 0.066 c -10.918 0 -19.769 -10.648 -19.769 -23.783 c 0 -1.003 0.068 -1.985 0.168 -2.955 C 67.075 16.064 76.305 24.182 75.405 40.147 z" style="stroke: none; stroke-width: 1; stroke-dasharray: none; stroke-linecap: butt; stroke-linejoin: miter; stroke-miterlimit: 10; fill: rgb(243,83,58); fill-rule: nonzero; opacity: 1;" transform=" matrix(1 0 0 1 0 0) " stroke-linecap="round" />
	<path d="M 15.869 41.213 c -0.283 0 -0.561 -0.021 -0.839 -0.044 l -0.309 -0.024 c -0.504 -0.033 -0.904 -0.437 -0.932 -0.941 c -0.834 -14.79 6.792 -24.63 21.475 -27.706 c 0.276 -0.06 0.565 0.004 0.795 0.171 c 0.229 0.167 0.376 0.423 0.405 0.705 c 0.119 1.149 0.174 2.12 0.174 3.057 C 36.638 30.095 27.321 41.213 15.869 41.213 z M 15.747 39.211 c 0.041 0.001 0.081 0.002 0.122 0.002 c 10.349 0 18.769 -10.22 18.769 -22.783 c 0 -0.549 -0.021 -1.113 -0.064 -1.728 C 21.983 17.736 15.334 26.387 15.747 39.211 z" style="stroke: none; stroke-width: 1; stroke-dasharray: none; stroke-linecap: butt; stroke-linejoin: miter; stroke-miterlimit: 10; fill: rgb(29,29,27); fill-rule: nonzero; opacity: 1;" transform=" matrix(1 0 0 1 0 0) " stroke-linecap="round" />
	<path d="M 74.323 41.213 c -11.452 0 -20.769 -11.118 -20.769 -24.783 c 0 -0.94 0.056 -1.911 0.174 -3.057 c 0.029 -0.282 0.177 -0.538 0.405 -0.705 c 0.23 -0.167 0.518 -0.23 0.795 -0.171 c 14.683 3.076 22.309 12.916 21.474 27.706 c -0.028 0.504 -0.428 0.908 -0.932 0.941 l -0.308 0.024 C 74.885 41.191 74.606 41.213 74.323 41.213 z M 75.404 40.147 h 0.01 H 75.404 z M 55.619 14.702 c -0.044 0.613 -0.064 1.178 -0.064 1.728 c 0 12.563 8.419 22.783 18.769 22.783 c 0.041 0 0.081 0 0.122 -0.002 C 74.857 26.387 68.208 17.736 55.619 14.702 z" style="stroke: none; stroke-width: 1; stroke-dasharray: none; stroke-linecap: butt; stroke-linejoin: miter; stroke-miterlimit: 10; fill: rgb(29,29,27); fill-rule: nonzero; opacity: 1;" transform=" matrix(1 0 0 1 0 0) " stroke-linecap="round" />
	<path d="M 38.992 90 c -0.757 0 -1.522 -0.075 -2.271 -0.231 c -2.442 -0.509 -6.868 -2.323 -9.068 -8.763 c -1.029 -3.282 -2.799 -5.919 -4.672 -8.711 c -1.534 -2.286 -3.12 -4.65 -4.39 -7.5 c -2.505 -5.618 -3.479 -13.288 -4.51 -21.408 l -0.081 -0.633 c -1.061 -9.142 0.838 -16.506 5.642 -21.9 c 5.355 -6.012 14.393 -9.323 25.447 -9.323 s 20.093 3.311 25.447 9.324 c 4.804 5.394 6.703 12.758 5.643 21.889 l -0.083 0.656 c -1.03 8.116 -2.003 15.781 -4.508 21.396 c -1.271 2.85 -2.857 5.213 -4.39 7.5 c -1.873 2.791 -3.642 5.428 -4.663 8.686 c -2.208 6.464 -6.633 8.279 -9.076 8.788 c -3.031 0.632 -6.313 -0.063 -8.37 -1.698 C 43.543 89.302 41.3 90 38.992 90 z M 45.091 13.531 c -10.477 0 -18.984 3.073 -23.954 8.653 c -4.408 4.95 -6.142 11.789 -5.151 20.328 l 0.079 0.623 c 1.012 7.97 1.967 15.498 4.352 20.846 c 1.201 2.693 2.738 4.984 4.225 7.199 c 1.956 2.916 3.803 5.669 4.911 9.204 c 1.385 4.053 4.078 6.699 7.576 7.427 c 3.091 0.647 5.973 -0.406 7.224 -1.776 c 0.379 -0.416 1.098 -0.415 1.477 -0.001 c 1.252 1.37 4.132 2.422 7.225 1.776 c 3.496 -0.729 6.19 -3.375 7.583 -7.452 c 1.1 -3.51 2.947 -6.263 4.903 -9.178 c 1.486 -2.216 3.024 -4.507 4.225 -7.2 c 2.384 -5.345 3.339 -12.869 4.35 -20.833 l 0.082 -0.646 c 0.99 -8.528 -0.742 -15.368 -5.151 -20.317 C 64.075 16.604 55.568 13.531 45.091 13.531 z" style="stroke: none; stroke-width: 1; stroke-dasharray: none; stroke-linecap: butt; stroke-linejoin: miter; stroke-miterlimit: 10; fill: rgb(29,29,27); fill-rule: nonzero; opacity: 1;" transform=" matrix(1 0 0 1 0 0) " stroke-linecap="round" />
	<path d="M 49.82 65.228 c -0.256 0 -0.512 -0.098 -0.707 -0.293 l -4.022 -4.022 l -4.022 4.022 c -0.391 0.391 -1.024 0.391 -1.414 0 s -0.391 -1.024 0 -1.414 l 4.729 -4.729 c 0.391 -0.391 1.024 -0.391 1.414 0 l 4.729 4.729 c 0.391 0.391 0.391 1.024 0 1.414 C 50.332 65.13 50.076 65.228 49.82 65.228 z" style="stroke: none; stroke-width: 1; stroke-dasharray: none; stroke-linecap: butt; stroke-linejoin: miter; stroke-miterlimit: 10; fill: rgb(29,29,27); fill-rule: nonzero; opacity: 1;" transform=" matrix(1 0 0 1 0 0) " stroke-linecap="round" />
	<path d="M 85.876 1 c -2.67 10.047 -4.717 31.972 -17.284 28.783 c -6.07 -3.365 -7.521 -8.205 -6.4 -13.867 C 69.012 16.245 76.974 12.609 85.876 1" style="stroke: none; stroke-width: 1; stroke-dasharray: none; stroke-linecap: butt; stroke-linejoin: miter; stroke-miterlimit: 10; fill: rgb(234,234,234); fill-rule: nonzero; opacity: 1;" transform=" matrix(1 0 0 1 0 0) " stroke-linecap="round" />
	<path d="M 70.969 31.096 c -0.845 0 -1.72 -0.115 -2.623 -0.344 c -0.083 -0.021 -0.163 -0.053 -0.238 -0.095 c -5.976 -3.313 -8.232 -8.198 -6.896 -14.936 c 0.096 -0.487 0.56 -0.832 1.028 -0.805 c 7.511 0.381 15.175 -4.526 22.842 -14.525 c 0.292 -0.379 0.807 -0.499 1.235 -0.289 c 0.428 0.21 0.648 0.693 0.525 1.154 c -0.437 1.643 -0.864 3.645 -1.317 5.765 c -1.818 8.511 -4.08 19.104 -9.985 22.772 C 74.146 30.661 72.616 31.096 70.969 31.096 z M 68.962 28.844 c 2.094 0.503 3.902 0.259 5.523 -0.749 c 5.183 -3.22 7.438 -13.78 9.085 -21.491 c 0.117 -0.55 0.233 -1.091 0.348 -1.622 c -6.912 7.935 -13.923 11.949 -20.889 11.953 C 62.205 22.309 64.107 26.11 68.962 28.844 z" style="stroke: none; stroke-width: 1; stroke-dasharray: none; stroke-linecap: butt; stroke-linejoin: miter; stroke-miterlimit: 10; fill: rgb(29,29,27); fill-rule: nonzero; opacity: 1;" transform=" matrix(1 0 0 1 0 0) " stroke-linecap="round" />
	<path d="M 4.123 1 c 2.67 10.047 4.717 31.972 17.284 28.783 c 6.07 -3.365 7.521 -8.205 6.4 -13.867 C 20.987 16.245 13.025 12.609 4.123 1" style="stroke: none; stroke-width: 1; stroke-dasharray: none; stroke-linecap: butt; stroke-linejoin: miter; stroke-miterlimit: 10; fill: rgb(234,234,234); fill-rule: nonzero; opacity: 1;" transform=" matrix(1 0 0 1 0 0) " stroke-linecap="round" />
	<path d="M 19.03 31.096 c -1.647 0 -3.176 -0.435 -4.572 -1.301 C 8.554 26.125 6.291 15.532 4.473 7.02 C 4.021 4.901 3.593 2.9 3.157 1.257 C 3.034 0.796 3.254 0.313 3.682 0.103 c 0.429 -0.21 0.945 -0.09 1.235 0.289 c 7.667 9.999 15.349 14.884 22.843 14.525 c 0.504 -0.004 0.933 0.319 1.029 0.805 c 1.335 6.738 -0.921 11.623 -6.896 14.936 c -0.075 0.042 -0.156 0.074 -0.239 0.095 C 20.751 30.981 19.875 31.096 19.03 31.096 z M 6.082 4.982 c 0.115 0.53 0.23 1.071 0.347 1.62 c 1.647 7.712 3.903 18.273 9.086 21.494 c 1.622 1.007 3.428 1.251 5.523 0.749 c 4.856 -2.734 6.756 -6.535 5.934 -11.908 C 20.005 16.933 12.994 12.918 6.082 4.982 z" style="stroke: none; stroke-width: 1; stroke-dasharray: none; stroke-linecap: butt; stroke-linejoin: miter; stroke-miterlimit: 10; fill: rgb(29,29,27); fill-rule: nonzero; opacity: 1;" transform=" matrix(1 0 0 1 0 0) " stroke-linecap="round" />
</g>
</svg>