<?xml version="1.0" encoding="UTF-8" standalone="no" ?>
<!DOCTYPE svg PUBLIC "-//W3C//DTD SVG 1.1//EN" "http://www.w3.org/Graphics/SVG/1.1/DTD/svg11.dtd">
<svg xmlns="http://www.w3.org/2000/svg" xmlns:xlink="http://www.w3.org/1999/xlink" version="1.1" width="350" height="350" viewBox="0 0 350 350" xml:space="preserve">
<desc>Created with Fabric.js 1.7.22</desc>
<defs>
</defs>
<g id="icon" style="stroke: none; stroke-width: 1; stroke-dasharray: none; stroke-linecap: butt; stroke-linejoin: miter; stroke-miterlimit: 10; fill: none; fill-rule: nonzero; opacity: 1;" transform="translate(-1.9444444444444287 -1.9444444444444287) scale(3.89 3.89)" >
	<path d="M 70.407 29.708 c -0.022 -1.554 -0.189 -3.291 -1.364 -4.309 c -0.77 -0.668 -1.824 -0.881 -2.829 -1.053 c -1.248 -0.213 -2.588 -0.386 -3.735 0.151 c -1.121 0.525 -1.849 1.641 -2.328 2.782 c -1.336 3.182 -1.146 6.761 -1.228 10.212 c -0.083 3.45 -0.571 7.153 -2.897 9.703 c -3.897 4.274 -11.413 3.704 -15.011 8.233 c -1.038 1.306 -1.623 2.906 -2.443 4.359 s -2.006 2.849 -3.629 3.235 c -1.242 0.296 -2.539 -0.045 -3.763 -0.408 c -3.231 -0.955 -6.522 -2.082 -9.88 -1.813 c -3.359 0.269 -6.849 2.378 -7.497 5.684 c -0.063 0.322 -0.097 0.667 0.029 0.97 c 0.269 0.653 1.103 0.82 1.807 0.873 c 3.096 0.234 6.224 0.046 9.271 -0.557 c 0.951 2.012 -1.828 4.02 -1.683 6.241 c 0.024 0.362 0.156 0.754 0.475 0.926 c 0.194 0.104 0.425 0.109 0.645 0.104 c 2.116 -0.053 4.208 -0.876 5.775 -2.305 c 0.428 -0.39 0.922 -0.709 1.463 -0.918 c 3.772 -1.462 4.337 4.063 7.349 4.211 c 1.254 0.061 2.336 -0.847 2.683 -2.053 c 0.263 -0.916 0.21 -1.79 -0.02 -2.629 c -0.422 -1.539 0.806 -3.038 2.401 -2.978 l 9.269 0.345 c 2.67 0.1 5.673 0.076 7.565 -1.811 c 1.487 -1.484 1.859 -3.724 2.093 -5.812 c 0.425 -3.795 0.649 -7.631 1.571 -11.337 c 0.922 -3.706 2.828 -6.02 4.745 -9.141 C 70.895 37.921 70.45 32.829 70.407 29.708 z" style="stroke: none; stroke-width: 1; stroke-dasharray: none; stroke-linecap: butt; stroke-linejoin: miter; stroke-miterlimit: 10; fill: rgb(25,207,252); fill-rule: nonzero; opacity: 1;" transform=" matrix(1 0 0 1 0 0) " stroke-linecap="round" />
	<path d="M 72.41 5.837 c -0.422 1.56 -0.276 3.261 -0.912 4.747 c -0.884 2.067 -3.036 3.228 -4.944 4.417 c -1.908 1.189 -3.881 2.863 -3.969 5.11 c 1.503 0.746 3.128 -0.697 4.765 -1.064 c 3.224 -0.722 6.052 2.827 9.353 2.692 c 3.122 -0.128 5.47 -3.499 8.593 -3.404 c 1.229 0.037 2.779 0.497 3.455 -0.53 c 0.224 -0.34 0.269 -0.769 0.24 -1.175 c -0.136 -1.887 -1.686 -3.357 -3.289 -4.361 c -1.603 -1.003 -3.407 -1.779 -4.651 -3.205 c -1.705 -1.955 -1.809 -5.092 -3.628 -6.883 C 75.459 0.247 72.927 3.929 72.41 5.837 z" style="stroke: none; stroke-width: 1; stroke-dasharray: none; stroke-linecap: butt; stroke-linejoin: miter; stroke-miterlimit: 10; fill: rgb(25,207,252); fill-rule: nonzero; opacity: 1;" transform=" matrix(1 0 0 1 0 0) " stroke-linecap="round" />
	<path d="M 5.883 70.901 c -1.348 -0.196 -2.849 0.134 -3.739 1.165 c -0.812 0.94 -0.979 2.258 -1.112 3.493 c -0.036 0.339 -0.069 0.7 0.086 1.004 c 0.109 0.215 0.3 0.375 0.488 0.525 c 1.207 0.963 2.564 1.835 3.324 3.179 c 0.774 1.369 0.808 3.015 1.155 4.549 c 0.347 1.534 1.234 3.169 2.773 3.491 c 1.777 0.371 3.374 -1.202 4.207 -2.815 c 1.605 -3.108 1.766 -6.927 0.427 -10.159 c -0.585 -1.412 -1.535 -2.609 -3.012 -3.097 C 9.104 71.783 7.351 71.115 5.883 70.901 z" style="stroke: none; stroke-width: 1; stroke-dasharray: none; stroke-linecap: butt; stroke-linejoin: miter; stroke-miterlimit: 10; fill: rgb(25,207,252); fill-rule: nonzero; opacity: 1;" transform=" matrix(1 0 0 1 0 0) " stroke-linecap="round" />
	<path d="M 18.562 82.153 c -0.194 0.152 -0.386 0.319 -0.498 0.539 c -0.147 0.288 -0.138 0.628 -0.125 0.952 c 0.029 0.729 0.057 1.458 0.086 2.187 c 0.015 0.388 0.035 0.794 0.226 1.132 c 0.256 0.456 0.792 0.708 1.315 0.725 c 0.523 0.018 1.034 -0.168 1.494 -0.417 c 0.424 -0.228 0.831 -0.526 1.064 -0.947 c 0.157 -0.284 0.229 -0.614 0.422 -0.876 c 0.351 -0.478 1.012 -0.611 1.605 -0.585 c 0.593 0.026 1.184 0.173 1.773 0.102 c 0.941 -0.115 1.778 -0.838 2.029 -1.752 C 29.229 78.56 20.336 80.76 18.562 82.153 z" style="stroke: none; stroke-width: 1; stroke-dasharray: none; stroke-linecap: butt; stroke-linejoin: miter; stroke-miterlimit: 10; fill: rgb(25,207,252); fill-rule: nonzero; opacity: 1;" transform=" matrix(1 0 0 1 0 0) " stroke-linecap="round" />
	<path d="M 39.055 77.033 c -0.057 0 -0.114 -0.001 -0.171 -0.004 c -1.763 -0.087 -2.813 -1.423 -3.739 -2.603 c -1.273 -1.621 -1.88 -2.187 -3.199 -1.674 c -0.411 0.158 -0.798 0.402 -1.151 0.725 c -1.724 1.571 -4.065 2.506 -6.424 2.565 c -0.224 0.006 -0.696 0.019 -1.144 -0.223 c -0.584 -0.315 -0.948 -0.949 -1 -1.742 c -0.083 -1.287 0.541 -2.425 1.092 -3.428 c 0.387 -0.704 0.674 -1.249 0.76 -1.71 c -2.811 0.47 -5.671 0.602 -8.517 0.386 c -0.522 -0.04 -2.108 -0.161 -2.656 -1.489 c -0.237 -0.572 -0.162 -1.156 -0.085 -1.545 c 0.76 -3.878 4.8 -6.199 8.398 -6.487 c 3.214 -0.253 6.307 0.67 9.296 1.567 l 0.947 0.283 c 1.151 0.34 2.265 0.627 3.248 0.394 c 1.372 -0.327 2.383 -1.678 2.99 -2.754 c 0.269 -0.478 0.512 -0.971 0.754 -1.464 c 0.503 -1.022 1.024 -2.079 1.776 -3.025 c 2.033 -2.559 5.115 -3.605 8.096 -4.618 c 2.694 -0.916 5.239 -1.78 6.959 -3.666 c 2.202 -2.414 2.566 -6.106 2.637 -9.054 c 0.013 -0.519 0.019 -1.04 0.024 -1.563 c 0.036 -3.014 0.073 -6.131 1.281 -9.012 c 0.687 -1.633 1.637 -2.744 2.825 -3.301 c 1.401 -0.655 2.907 -0.473 4.328 -0.231 c 1.155 0.197 2.364 0.458 3.315 1.282 c 1.462 1.267 1.685 3.264 1.709 5.051 l 0 0 c 0.006 0.446 0.021 0.932 0.036 1.446 c 0.1 3.314 0.223 7.439 -1.352 10 c -0.414 0.675 -0.828 1.312 -1.231 1.934 c -1.455 2.239 -2.711 4.173 -3.395 6.924 c -0.699 2.809 -0.995 5.776 -1.282 8.647 c -0.085 0.854 -0.171 1.708 -0.266 2.56 c -0.246 2.196 -0.652 4.685 -2.381 6.408 c -2.148 2.145 -5.41 2.21 -8.309 2.102 l -9.268 -0.345 c -0.441 0 -0.871 0.177 -1.152 0.532 c -0.27 0.34 -0.359 0.771 -0.247 1.182 c 0.305 1.113 0.31 2.15 0.016 3.17 C 42.1 75.912 40.666 77.033 39.055 77.033 z M 32.793 70.569 c 1.864 0 3.026 1.479 3.924 2.622 c 0.878 1.119 1.469 1.801 2.264 1.84 c 0.741 0.027 1.441 -0.523 1.673 -1.33 c 0.189 -0.657 0.182 -1.341 -0.023 -2.089 c -0.283 -1.031 -0.062 -2.108 0.608 -2.952 c 0.671 -0.847 1.715 -1.343 2.793 -1.288 l 9.268 0.345 c 2.586 0.095 5.24 0.058 6.822 -1.52 c 1.27 -1.266 1.598 -3.355 1.805 -5.215 c 0.095 -0.844 0.18 -1.689 0.264 -2.535 c 0.294 -2.941 0.598 -5.983 1.331 -8.932 c 0.765 -3.076 2.17 -5.24 3.658 -7.532 c 0.396 -0.608 0.8 -1.231 1.205 -1.891 c 1.262 -2.052 1.143 -6.006 1.057 -8.893 c -0.016 -0.525 -0.03 -1.022 -0.037 -1.477 v 0 c -0.019 -1.344 -0.154 -2.818 -1.019 -3.567 c -0.562 -0.487 -1.428 -0.667 -2.342 -0.822 c -1.11 -0.189 -2.266 -0.34 -3.144 0.071 c -0.726 0.34 -1.342 1.102 -1.83 2.264 c -1.057 2.52 -1.092 5.439 -1.125 8.261 c -0.006 0.531 -0.012 1.061 -0.024 1.587 c -0.079 3.295 -0.51 7.45 -3.158 10.353 c -2.067 2.266 -4.978 3.255 -7.794 4.212 c -2.832 0.962 -5.506 1.87 -7.174 3.969 c -0.619 0.778 -1.07 1.694 -1.547 2.665 c -0.259 0.526 -0.52 1.053 -0.807 1.562 c -1.168 2.07 -2.604 3.32 -4.268 3.717 c -1.461 0.347 -2.915 -0.018 -4.279 -0.421 l -0.955 -0.285 c -2.812 -0.845 -5.718 -1.718 -8.561 -1.489 c -2.847 0.228 -6.027 1.977 -6.596 4.879 c -0.06 0.306 -0.032 0.388 -0.028 0.396 c 0.001 0.003 0.116 0.193 0.958 0.258 c 3.012 0.229 6.039 0.045 9 -0.541 c 0.451 -0.087 0.902 0.14 1.098 0.554 c 0.743 1.57 -0.045 3.004 -0.74 4.269 c -0.46 0.838 -0.895 1.63 -0.849 2.335 c 0.002 0.038 0.007 0.07 0.012 0.097 c 0.022 0 0.05 -0.001 0.084 -0.002 c 1.886 -0.047 3.754 -0.792 5.127 -2.044 c 0.537 -0.489 1.134 -0.863 1.776 -1.111 C 31.797 70.665 32.318 70.569 32.793 70.569 z" style="stroke: none; stroke-width: 1; stroke-dasharray: none; stroke-linecap: butt; stroke-linejoin: miter; stroke-miterlimit: 10; fill: rgb(29,29,27); fill-rule: nonzero; opacity: 1;" transform=" matrix(1 0 0 1 0 0) " stroke-linecap="round" />
	<path d="M 76.514 22.742 c -1.711 0 -3.218 -0.776 -4.677 -1.528 c -1.494 -0.77 -2.908 -1.497 -4.268 -1.192 c -0.453 0.101 -0.94 0.318 -1.455 0.548 c -1.138 0.509 -2.556 1.138 -3.973 0.435 c -0.354 -0.175 -0.57 -0.541 -0.555 -0.935 c 0.085 -2.174 1.537 -4.11 4.438 -5.919 l 0.56 -0.346 c 1.633 -1.002 3.319 -2.039 3.995 -3.616 c 0.31 -0.726 0.404 -1.563 0.505 -2.45 c 0.08 -0.706 0.163 -1.435 0.36 -2.164 l 0 0 c 0.381 -1.41 1.961 -4.278 4.049 -4.843 c 0.948 -0.257 1.887 0.003 2.631 0.735 c 1.105 1.088 1.637 2.518 2.15 3.899 c 0.429 1.152 0.833 2.24 1.53 3.04 c 0.808 0.926 1.926 1.564 3.11 2.239 c 0.444 0.253 0.888 0.506 1.316 0.775 c 2.319 1.451 3.619 3.228 3.757 5.136 c 0.052 0.709 -0.084 1.313 -0.402 1.797 c -0.86 1.309 -2.413 1.153 -3.554 1.041 c -0.262 -0.026 -0.521 -0.053 -0.767 -0.061 c -1.341 -0.033 -2.546 0.729 -3.86 1.543 c -1.418 0.879 -2.884 1.788 -4.661 1.86 C 76.668 22.741 76.591 22.742 76.514 22.742 z M 68.247 17.947 c 1.617 0 3.081 0.755 4.507 1.489 c 1.352 0.697 2.638 1.362 3.909 1.303 c 1.252 -0.051 2.437 -0.785 3.689 -1.562 c 1.508 -0.935 3.08 -1.899 4.975 -1.842 c 0.29 0.009 0.596 0.039 0.904 0.069 c 0.696 0.069 1.488 0.148 1.686 -0.15 c 0.067 -0.103 0.096 -0.304 0.078 -0.553 c -0.114 -1.574 -1.599 -2.818 -2.823 -3.585 c -0.406 -0.254 -0.826 -0.493 -1.246 -0.733 c -1.277 -0.728 -2.598 -1.481 -3.628 -2.662 c -0.937 -1.075 -1.425 -2.388 -1.897 -3.657 c -0.457 -1.231 -0.89 -2.394 -1.678 -3.17 c -0.277 -0.273 -0.48 -0.291 -0.706 -0.23 c -0.977 0.265 -2.291 2.142 -2.642 3.435 c -0.157 0.583 -0.228 1.206 -0.303 1.866 c -0.112 0.991 -0.229 2.016 -0.653 3.012 c -0.926 2.162 -2.977 3.422 -4.787 4.534 l -0.548 0.339 c -1.851 1.153 -2.953 2.29 -3.342 3.453 c 0.416 -0.062 0.917 -0.271 1.557 -0.557 c 0.582 -0.26 1.185 -0.529 1.833 -0.674 C 67.512 17.985 67.884 17.947 68.247 17.947 z" style="stroke: none; stroke-width: 1; stroke-dasharray: none; stroke-linecap: butt; stroke-linejoin: miter; stroke-miterlimit: 10; fill: rgb(29,29,27); fill-rule: nonzero; opacity: 1;" transform=" matrix(1 0 0 1 0 0) " stroke-linecap="round" />
	<path d="M 9.398 89.364 c -0.243 0 -0.491 -0.024 -0.745 -0.078 c -1.698 -0.354 -3.023 -1.942 -3.544 -4.248 c -0.107 -0.475 -0.187 -0.959 -0.265 -1.443 c -0.169 -1.042 -0.329 -2.026 -0.785 -2.834 c -0.521 -0.922 -1.43 -1.619 -2.392 -2.357 c -0.23 -0.177 -0.46 -0.354 -0.686 -0.533 c -0.26 -0.207 -0.557 -0.462 -0.755 -0.852 c -0.295 -0.579 -0.231 -1.173 -0.188 -1.565 c 0.128 -1.193 0.304 -2.829 1.35 -4.039 c 1.03 -1.193 2.808 -1.772 4.64 -1.502 l 0 0 c 1.278 0.186 2.695 0.67 3.945 1.098 l 0.822 0.278 c 1.595 0.526 2.848 1.793 3.622 3.663 c 1.455 3.512 1.282 7.624 -0.462 11.001 C 13.099 87.604 11.442 89.364 9.398 89.364 z M 5.14 71.847 c -0.797 0 -1.683 0.228 -2.24 0.873 c -0.589 0.683 -0.745 1.738 -0.875 2.946 c -0.012 0.112 -0.04 0.374 -0.014 0.451 c 0.025 0.036 0.169 0.15 0.216 0.187 c 0.217 0.173 0.437 0.342 0.657 0.511 c 1.079 0.828 2.194 1.684 2.916 2.96 c 0.632 1.119 0.829 2.328 1.019 3.498 c 0.072 0.443 0.143 0.888 0.242 1.322 c 0.265 1.174 0.93 2.509 2.002 2.732 c 1.197 0.241 2.431 -0.971 3.114 -2.295 c 1.478 -2.86 1.624 -6.344 0.392 -9.317 c -0.553 -1.335 -1.361 -2.187 -2.401 -2.53 l -0.842 -0.284 c -1.168 -0.399 -2.492 -0.853 -3.586 -1.012 C 5.55 71.863 5.348 71.847 5.14 71.847 z" style="stroke: none; stroke-width: 1; stroke-dasharray: none; stroke-linecap: butt; stroke-linejoin: miter; stroke-miterlimit: 10; fill: rgb(29,29,27); fill-rule: nonzero; opacity: 1;" transform=" matrix(1 0 0 1 0 0) " stroke-linecap="round" />
	<path d="M 19.637 88.689 c -0.035 0 -0.07 0 -0.105 -0.002 c -0.917 -0.03 -1.743 -0.503 -2.153 -1.233 c -0.312 -0.555 -0.336 -1.148 -0.354 -1.583 l -0.086 -2.188 c -0.015 -0.365 -0.036 -0.917 0.233 -1.444 c 0.199 -0.391 0.501 -0.659 0.771 -0.871 l 0 0 c 1.532 -1.203 7.428 -2.942 9.931 -1.279 c 0.623 0.413 1.586 1.404 1.041 3.391 c -0.356 1.297 -1.537 2.316 -2.872 2.479 c -0.498 0.061 -0.966 0.006 -1.378 -0.042 c -0.187 -0.021 -0.374 -0.044 -0.561 -0.053 c -0.411 -0.021 -0.681 0.079 -0.754 0.178 c -0.039 0.053 -0.088 0.174 -0.135 0.292 c -0.065 0.162 -0.133 0.324 -0.218 0.477 c -0.294 0.531 -0.773 0.971 -1.464 1.343 C 20.864 88.513 20.242 88.689 19.637 88.689 z M 19.18 82.939 c -0.169 0.134 -0.214 0.188 -0.226 0.209 c -0.031 0.069 -0.021 0.33 -0.016 0.456 l 0.086 2.187 c 0.01 0.242 0.022 0.546 0.098 0.681 c 0.065 0.117 0.271 0.209 0.478 0.217 c 0.283 0 0.604 -0.091 0.986 -0.298 c 0.338 -0.182 0.561 -0.367 0.663 -0.551 c 0.045 -0.081 0.078 -0.169 0.113 -0.256 c 0.085 -0.211 0.19 -0.473 0.378 -0.728 c 0.504 -0.688 1.372 -1.042 2.455 -0.992 c 0.235 0.011 0.47 0.037 0.704 0.064 c 0.331 0.038 0.643 0.076 0.905 0.043 c 0.541 -0.065 1.041 -0.497 1.185 -1.023 c 0.244 -0.888 -0.069 -1.096 -0.22 -1.195 C 25.304 80.778 20.361 82.012 19.18 82.939 L 19.18 82.939 z" style="stroke: none; stroke-width: 1; stroke-dasharray: none; stroke-linecap: butt; stroke-linejoin: miter; stroke-miterlimit: 10; fill: rgb(29,29,27); fill-rule: nonzero; opacity: 1;" transform=" matrix(1 0 0 1 0 0) " stroke-linecap="round" />
	<path d="M 45.823 58.733 c 0.6 -0.243 1.026 -0.786 1.121 -1.426 l 0.582 -3.897 c 1.197 -7.999 2.327 -15.554 2.555 -18.524 c 0.15 -2.199 -0.195 -4.341 -1.024 -6.382 c -2.98 -7.34 -11.376 -10.888 -18.717 -7.908 s -10.888 11.376 -7.908 18.717 c 0.829 2.042 2.075 3.818 3.715 5.29 c 2.234 1.971 8.311 6.6 14.744 11.501 l 3.134 2.389 C 44.54 58.884 45.224 58.976 45.823 58.733 z" style="stroke: none; stroke-width: 1; stroke-dasharray: none; stroke-linecap: butt; stroke-linejoin: miter; stroke-miterlimit: 10; fill: rgb(234,234,234); fill-rule: nonzero; opacity: 1;" transform=" matrix(1 0 0 1 0 0) " stroke-linecap="round" />
	<path d="M 37.639 38.572 c 2.83 -1.149 4.198 -4.386 3.049 -7.216 c -1.149 -2.83 -4.386 -4.198 -7.216 -3.049 l 0 0 c -2.83 1.149 -4.198 4.386 -3.049 7.216 C 31.572 38.353 34.809 39.721 37.639 38.572 L 37.639 38.572 z" style="stroke: none; stroke-width: 1; stroke-dasharray: none; stroke-linecap: butt; stroke-linejoin: miter; stroke-miterlimit: 10; fill: rgb(255,108,82); fill-rule: nonzero; opacity: 1;" transform=" matrix(1 0 0 1 0 0) " stroke-linecap="round" />
	<path d="M 45.139 59.866 c -0.613 0 -1.22 -0.198 -1.72 -0.579 l -3.133 -2.389 c -6.444 -4.908 -12.531 -9.544 -14.8 -11.546 c -1.757 -1.577 -3.093 -3.481 -3.979 -5.664 c -3.187 -7.851 0.607 -16.832 8.458 -20.02 c 7.851 -3.186 16.832 0.607 20.02 8.459 c 0.887 2.184 1.255 4.48 1.095 6.827 c -0.232 3.029 -1.365 10.594 -2.563 18.604 l -0.582 3.896 c -0.146 0.984 -0.811 1.829 -1.734 2.204 C 45.858 59.798 45.497 59.866 45.139 59.866 z M 35.728 20.54 c -1.671 0 -3.37 0.315 -5.011 0.982 c -6.829 2.772 -10.13 10.584 -7.357 17.414 c 0.771 1.899 1.934 3.555 3.456 4.922 c 2.208 1.948 8.268 6.563 14.682 11.449 l 3.134 2.39 c 0.232 0.176 0.543 0.218 0.814 0.109 l 0.001 -0.001 c 0.271 -0.109 0.465 -0.356 0.508 -0.645 l 0.582 -3.898 c 1.193 -7.974 2.321 -15.505 2.547 -18.453 c 0.139 -2.032 -0.182 -4.03 -0.953 -5.93 C 46.025 23.691 41.011 20.54 35.728 20.54 z" style="stroke: none; stroke-width: 1; stroke-dasharray: none; stroke-linecap: butt; stroke-linejoin: miter; stroke-miterlimit: 10; fill: rgb(29,29,27); fill-rule: nonzero; opacity: 1;" transform=" matrix(1 0 0 1 0 0) " stroke-linecap="round" />
	<path d="M 35.56 39.981 c -0.864 0 -1.728 -0.173 -2.548 -0.521 c -1.61 -0.68 -2.859 -1.945 -3.515 -3.561 c -1.356 -3.341 0.258 -7.163 3.6 -8.519 c 3.34 -1.354 7.163 0.259 8.519 3.6 c 1.356 3.341 -0.259 7.163 -3.6 8.519 l 0 0 C 37.222 39.82 36.391 39.981 35.56 39.981 z M 35.55 28.9 c -0.568 0 -1.145 0.107 -1.702 0.333 c -2.319 0.941 -3.44 3.594 -2.498 5.914 c 0.941 2.319 3.595 3.438 5.914 2.498 h 0 c 2.319 -0.941 3.44 -3.594 2.499 -5.914 C 39.046 29.97 37.343 28.9 35.55 28.9 z" style="stroke: none; stroke-width: 1; stroke-dasharray: none; stroke-linecap: butt; stroke-linejoin: miter; stroke-miterlimit: 10; fill: rgb(29,29,27); fill-rule: nonzero; opacity: 1;" transform=" matrix(1 0 0 1 0 0) " stroke-linecap="round" />
</g>
</svg>