<?xml version="1.0" encoding="UTF-8" standalone="no" ?>
<!DOCTYPE svg PUBLIC "-//W3C//DTD SVG 1.1//EN" "http://www.w3.org/Graphics/SVG/1.1/DTD/svg11.dtd">
<svg xmlns="http://www.w3.org/2000/svg" xmlns:xlink="http://www.w3.org/1999/xlink" version="1.1" width="350" height="350" viewBox="0 0 350 350" xml:space="preserve">
<desc>Created with Fabric.js 1.7.22</desc>
<defs>
</defs>
<g id="icon" style="stroke: none; stroke-width: 1; stroke-dasharray: none; stroke-linecap: butt; stroke-linejoin: miter; stroke-miterlimit: 10; fill: none; fill-rule: nonzero; opacity: 1;" transform="translate(-1.9444444444444287 -1.9444444444444287) scale(3.89 3.89)" >
	<path d="M 52.255 47.5 l 0.014 1.334 c 0 2.588 1.814 4.807 4.311 5.272 l 6.452 1.202 c 3.399 0.633 5.868 3.653 5.868 7.175 v 23.054 c 0 1.912 -1.55 3.463 -3.463 3.463 H 45 H 24.563 c -1.913 0 -3.463 -1.55 -3.463 -3.463 V 62.483 c 0 -3.523 2.469 -6.542 5.868 -7.175 l 6.452 -1.202 c 2.497 -0.465 4.311 -2.684 4.311 -5.272 v -1.398 L 52.255 47.5 z" style="stroke: none; stroke-width: 1; stroke-dasharray: none; stroke-linecap: butt; stroke-linejoin: miter; stroke-miterlimit: 10; fill: rgb(243,83,58); fill-rule: nonzero; opacity: 1;" transform=" matrix(1 0 0 1 0 0) " stroke-linecap="round" />
	<path d="M 33.42 54.106 c 2.497 -0.465 4.311 -2.684 4.311 -5.272 v -1.398 L 52.255 47.5 l 0.014 1.334 c 0 2.588 1.814 4.807 4.311 5.272 L 44.975 68.81 L 33.42 54.106 z" style="stroke: none; stroke-width: 1; stroke-dasharray: none; stroke-linecap: butt; stroke-linejoin: miter; stroke-miterlimit: 10; fill: rgb(255,242,222); fill-rule: nonzero; opacity: 1;" transform=" matrix(1 0 0 1 0 0) " stroke-linecap="round" />
	<path d="M 65.437 90 H 24.563 c -2.461 0 -4.463 -2.002 -4.463 -4.463 V 62.483 c 0 -4.006 2.812 -7.437 6.685 -8.158 l 6.452 -1.202 c 2.025 -0.377 3.495 -2.182 3.495 -4.289 v -1.397 c 0 -0.266 0.106 -0.521 0.294 -0.709 c 0.188 -0.187 0.441 -0.291 0.706 -0.291 c 0.001 0 0.003 0 0.004 0 L 52.259 46.5 c 0.547 0.002 0.99 0.443 0.996 0.99 l 0.014 1.334 c 0 2.117 1.47 3.922 3.495 4.299 l 6.451 1.202 c 3.873 0.722 6.685 4.152 6.685 8.158 v 23.054 C 69.899 87.998 67.897 90 65.437 90 z M 38.731 48.44 v 0.394 c 0 3.07 -2.157 5.701 -5.128 6.256 l -6.452 1.202 c -2.927 0.545 -5.051 3.148 -5.051 6.191 v 23.054 c 0 1.358 1.105 2.463 2.463 2.463 h 40.873 c 1.358 0 2.463 -1.104 2.463 -2.463 V 62.483 c 0 -3.043 -2.124 -5.646 -5.051 -6.191 l -6.452 -1.202 c -2.972 -0.555 -5.128 -3.186 -5.128 -6.256 l -0.004 -0.338 L 38.731 48.44 z" style="stroke: none; stroke-width: 1; stroke-dasharray: none; stroke-linecap: butt; stroke-linejoin: miter; stroke-miterlimit: 10; fill: rgb(0,0,0); fill-rule: nonzero; opacity: 1;" transform=" matrix(1 0 0 1 0 0) " stroke-linecap="round" />
	<circle cx="45.001000000000005" cy="11.261" r="10.261" style="stroke: none; stroke-width: 1; stroke-dasharray: none; stroke-linecap: butt; stroke-linejoin: miter; stroke-miterlimit: 10; fill: rgb(172,167,167); fill-rule: nonzero; opacity: 1;" transform="  matrix(1 0 0 1 0 0) "/>
	<path d="M 45 22.522 c -6.209 0 -11.261 -5.052 -11.261 -11.261 S 38.791 0 45 0 s 11.261 5.052 11.261 11.261 S 51.209 22.522 45 22.522 z M 45 2 c -5.106 0 -9.261 4.155 -9.261 9.261 s 4.155 9.261 9.261 9.261 s 9.261 -4.155 9.261 -9.261 S 50.106 2 45 2 z" style="stroke: none; stroke-width: 1; stroke-dasharray: none; stroke-linecap: butt; stroke-linejoin: miter; stroke-miterlimit: 10; fill: rgb(0,0,0); fill-rule: nonzero; opacity: 1;" transform=" matrix(1 0 0 1 0 0) " stroke-linecap="round" />
	<path d="M 65.385 30.192 c 0.005 -0.303 0.004 -0.609 -0.005 -0.915 C 65.09 18.66 56.404 9.866 45.79 9.465 c -11.62 -0.439 -21.178 8.851 -21.178 20.373 c 0 0.147 0.002 0.293 0.005 0.439 c 0.043 1.991 1.685 3.578 3.677 3.578 h 33.414 C 63.733 33.855 65.35 32.217 65.385 30.192 z" style="stroke: none; stroke-width: 1; stroke-dasharray: none; stroke-linecap: butt; stroke-linejoin: miter; stroke-miterlimit: 10; fill: rgb(172,167,167); fill-rule: nonzero; opacity: 1;" transform=" matrix(1 0 0 1 0 0) " stroke-linecap="round" />
	<path d="M 61.708 34.855 H 28.293 c -2.525 0 -4.623 -2.044 -4.677 -4.557 l -0.005 -0.46 c 0 -5.866 2.328 -11.338 6.554 -15.408 c 4.226 -4.068 9.799 -6.176 15.662 -5.964 C 57.046 8.89 66.074 18.019 66.38 29.25 c 0.009 0.321 0.011 0.641 0.005 0.96 l 0 0 C 66.34 32.815 64.285 34.855 61.708 34.855 z M 44.993 10.45 c -5.045 0 -9.792 1.909 -13.44 5.421 c -3.831 3.689 -5.941 8.65 -5.941 13.967 l 0.005 0.419 c 0.03 1.432 1.231 2.598 2.677 2.598 h 33.415 c 1.475 0 2.65 -1.177 2.677 -2.681 c 0 0 0 -0.001 0 -0.002 c 0.006 -0.287 0.004 -0.576 -0.005 -0.867 c -0.272 -10.012 -8.629 -18.464 -18.627 -18.841 C 45.499 10.455 45.246 10.45 44.993 10.45 z" style="stroke: none; stroke-width: 1; stroke-dasharray: none; stroke-linecap: butt; stroke-linejoin: miter; stroke-miterlimit: 10; fill: rgb(0,0,0); fill-rule: nonzero; opacity: 1;" transform=" matrix(1 0 0 1 0 0) " stroke-linecap="round" />
	<path d="M 58.049 28.728 l -0.07 7.027 c -0.163 1.985 -0.271 3.82 -1.052 5.572 c -0.422 0.947 -0.928 1.85 -1.508 2.698 c -0.58 0.848 -1.236 1.642 -1.958 2.371 c -1.693 1.708 -3.755 3.059 -6.082 3.917 l 0 0 c -1.537 0.566 -3.22 0.566 -4.757 0 l 0 0 c -6.152 -2.266 -9.994 -7.912 -10.54 -14.558 l -0.181 -7.027 c 0 -9.758 26.145 -9.758 26.145 0 H 58.049 z" style="stroke: none; stroke-width: 1; stroke-dasharray: none; stroke-linecap: butt; stroke-linejoin: miter; stroke-miterlimit: 10; fill: rgb(255,242,222); fill-rule: nonzero; opacity: 1;" transform=" matrix(1 0 0 1 0 0) " stroke-linecap="round" />
	<path d="M 43.253 34.217 c -0.158 0 -0.319 -0.038 -0.469 -0.117 c -1.25 -0.665 -2.467 -0.665 -3.719 0 c -0.49 0.26 -1.094 0.074 -1.353 -0.413 c -0.259 -0.488 -0.074 -1.093 0.413 -1.353 c 1.856 -0.988 3.74 -0.989 5.598 0 c 0.487 0.259 0.672 0.865 0.413 1.353 C 43.957 34.025 43.611 34.217 43.253 34.217 z" style="stroke: none; stroke-width: 1; stroke-dasharray: none; stroke-linecap: butt; stroke-linejoin: miter; stroke-miterlimit: 10; fill: rgb(0,0,0); fill-rule: nonzero; opacity: 1;" transform=" matrix(1 0 0 1 0 0) " stroke-linecap="round" />
	<path d="M 52.108 34.217 c -0.158 0 -0.319 -0.038 -0.469 -0.117 c -1.25 -0.665 -2.468 -0.665 -3.72 0 c -0.492 0.26 -1.094 0.074 -1.353 -0.414 c -0.26 -0.488 -0.074 -1.093 0.413 -1.352 c 1.859 -0.987 3.741 -0.987 5.599 0 c 0.487 0.259 0.673 0.865 0.413 1.353 C 52.813 34.025 52.467 34.217 52.108 34.217 z" style="stroke: none; stroke-width: 1; stroke-dasharray: none; stroke-linecap: butt; stroke-linejoin: miter; stroke-miterlimit: 10; fill: rgb(0,0,0); fill-rule: nonzero; opacity: 1;" transform=" matrix(1 0 0 1 0 0) " stroke-linecap="round" />
	<path d="M 45 51.736 c -0.923 0 -1.846 -0.162 -2.725 -0.485 c -6.313 -2.326 -10.601 -8.233 -11.19 -15.414 l -0.184 -7.083 c 0 -5.741 7.294 -8.344 14.072 -8.344 c 6.745 0 14.002 2.578 14.071 8.236 c 0.003 0.03 0.004 0.061 0.004 0.092 l -0.102 7.439 c -0.154 1.929 -0.301 3.75 -1.107 5.557 c -0.442 0.993 -0.979 1.954 -1.596 2.855 c -0.613 0.896 -1.311 1.741 -2.073 2.511 c -1.84 1.855 -4.009 3.252 -6.446 4.15 C 46.846 51.574 45.923 51.736 45 51.736 z M 44.974 22.41 c -6 0 -12.073 2.17 -12.073 6.318 l 0.18 7.001 c 0.53 6.438 4.227 11.56 9.886 13.645 c 1.311 0.482 2.756 0.482 4.066 0 c 2.161 -0.796 4.085 -2.035 5.718 -3.682 c 0.678 -0.684 1.298 -1.435 1.843 -2.232 c 0.548 -0.802 1.025 -1.657 1.42 -2.541 c 0.666 -1.495 0.793 -3.074 0.94 -4.903 l 0.027 -0.343 l 0.066 -6.878 c -0.001 -0.022 -0.002 -0.045 -0.002 -0.067 c 0 -2.344 -1.92 -3.792 -3.53 -4.593 C 51.313 23.038 48.199 22.41 44.974 22.41 z" style="stroke: none; stroke-width: 1; stroke-dasharray: none; stroke-linecap: butt; stroke-linejoin: miter; stroke-miterlimit: 10; fill: rgb(0,0,0); fill-rule: nonzero; opacity: 1;" transform=" matrix(1 0 0 1 0 0) " stroke-linecap="round" />
	<path d="M 45 43.866 c -1.247 0 -2.493 -0.336 -3.731 -1.008 c -0.485 -0.264 -0.666 -0.871 -0.402 -1.356 c 0.264 -0.486 0.871 -0.665 1.356 -0.402 c 1.87 1.016 3.687 1.015 5.553 0 c 0.487 -0.263 1.092 -0.083 1.356 0.402 s 0.084 1.092 -0.401 1.356 C 47.493 43.53 46.247 43.866 45 43.866 z" style="stroke: none; stroke-width: 1; stroke-dasharray: none; stroke-linecap: butt; stroke-linejoin: miter; stroke-miterlimit: 10; fill: rgb(0,0,0); fill-rule: nonzero; opacity: 1;" transform=" matrix(1 0 0 1 0 0) " stroke-linecap="round" />
	<path d="M 49.07 75.021 c -0.297 0 -0.59 -0.131 -0.787 -0.382 L 32.634 54.725 c -0.341 -0.435 -0.266 -1.063 0.168 -1.404 c 0.434 -0.343 1.063 -0.267 1.404 0.168 l 15.649 19.914 c 0.342 0.435 0.266 1.063 -0.168 1.404 C 49.504 74.951 49.286 75.021 49.07 75.021 z" style="stroke: none; stroke-width: 1; stroke-dasharray: none; stroke-linecap: butt; stroke-linejoin: miter; stroke-miterlimit: 10; fill: rgb(0,0,0); fill-rule: nonzero; opacity: 1;" transform=" matrix(1 0 0 1 0 0) " stroke-linecap="round" />
	<path d="M 31.901 90 c -0.552 0 -1 -0.447 -1 -1 V 69.162 c 0 -0.553 0.448 -1 1 -1 s 1 0.447 1 1 V 89 C 32.901 89.553 32.453 90 31.901 90 z" style="stroke: none; stroke-width: 1; stroke-dasharray: none; stroke-linecap: butt; stroke-linejoin: miter; stroke-miterlimit: 10; fill: rgb(0,0,0); fill-rule: nonzero; opacity: 1;" transform=" matrix(1 0 0 1 0 0) " stroke-linecap="round" />
	<path d="M 58.049 90 c -0.553 0 -1 -0.447 -1 -1 V 69.162 c 0 -0.553 0.447 -1 1 -1 s 1 0.447 1 1 V 89 C 59.049 89.553 58.602 90 58.049 90 z" style="stroke: none; stroke-width: 1; stroke-dasharray: none; stroke-linecap: butt; stroke-linejoin: miter; stroke-miterlimit: 10; fill: rgb(0,0,0); fill-rule: nonzero; opacity: 1;" transform=" matrix(1 0 0 1 0 0) " stroke-linecap="round" />
	<path d="M 44.975 69.81 c -0.217 0 -0.436 -0.07 -0.619 -0.215 c -0.434 -0.343 -0.507 -0.971 -0.166 -1.404 l 11.605 -14.703 c 0.342 -0.433 0.974 -0.508 1.404 -0.166 c 0.434 0.343 0.508 0.971 0.166 1.404 L 45.76 69.429 C 45.563 69.679 45.27 69.81 44.975 69.81 z" style="stroke: none; stroke-width: 1; stroke-dasharray: none; stroke-linecap: butt; stroke-linejoin: miter; stroke-miterlimit: 10; fill: rgb(0,0,0); fill-rule: nonzero; opacity: 1;" transform=" matrix(1 0 0 1 0 0) " stroke-linecap="round" />
	<rect x="31.9" y="74.02" rx="0" ry="0" width="25.73" height="8.98" style="stroke: none; stroke-width: 1; stroke-dasharray: none; stroke-linecap: butt; stroke-linejoin: miter; stroke-miterlimit: 10; fill: rgb(255,210,120); fill-rule: nonzero; opacity: 1;" transform=" matrix(1 0 0 1 0 0) "/>
	<path d="M 57.634 84 H 31.901 c -0.552 0 -1 -0.447 -1 -1 v -8.979 c 0 -0.553 0.448 -1 1 -1 h 25.733 c 0.553 0 1 0.447 1 1 V 83 C 58.634 83.553 58.187 84 57.634 84 z M 32.901 82 h 23.733 v -6.979 H 32.901 V 82 z" style="stroke: none; stroke-width: 1; stroke-dasharray: none; stroke-linecap: butt; stroke-linejoin: miter; stroke-miterlimit: 10; fill: rgb(0,0,0); fill-rule: nonzero; opacity: 1;" transform=" matrix(1 0 0 1 0 0) " stroke-linecap="round" />
</g>
</svg>