<?xml version="1.0" encoding="UTF-8" standalone="no" ?>
<!DOCTYPE svg PUBLIC "-//W3C//DTD SVG 1.1//EN" "http://www.w3.org/Graphics/SVG/1.1/DTD/svg11.dtd">
<svg xmlns="http://www.w3.org/2000/svg" xmlns:xlink="http://www.w3.org/1999/xlink" version="1.1" width="350" height="350" viewBox="0 0 350 350" xml:space="preserve">
<desc>Created with Fabric.js 1.7.22</desc>
<defs>
</defs>
<g id="icon" style="stroke: none; stroke-width: 1; stroke-dasharray: none; stroke-linecap: butt; stroke-linejoin: miter; stroke-miterlimit: 10; fill: none; fill-rule: nonzero; opacity: 1;" transform="translate(-1.9444444444444287 -1.9444444444444287) scale(3.89 3.89)" >
	<path d="M 52.516 46.005 l 0.014 1.382 c 0 2.681 1.88 4.98 4.467 5.462 l 8.756 1.246 c 3.521 0.656 6.079 3.784 6.079 7.434 v 23.884 c 0 1.981 -1.606 3.588 -3.588 3.588 H 45 H 21.755 c -1.981 0 -3.588 -1.606 -3.588 -3.588 V 61.528 c 0 -3.649 2.558 -6.777 6.079 -7.434 l 8.756 -1.246 c 2.587 -0.482 4.467 -2.78 4.467 -5.462 v -1.448 L 52.516 46.005 z" style="stroke: none; stroke-width: 1; stroke-dasharray: none; stroke-linecap: butt; stroke-linejoin: miter; stroke-miterlimit: 10; fill: rgb(207,249,255); fill-rule: nonzero; opacity: 1;" transform=" matrix(1 0 0 1 0 0) " stroke-linecap="round" />
	<path d="M 33.003 52.849 c 2.587 -0.482 4.467 -2.78 4.467 -5.462 v -1.448 l 15.047 0.066 l 0.014 1.382 c 0 2.681 1.88 4.98 4.467 5.462 L 45.365 76.866 L 33.003 52.849 z" style="stroke: none; stroke-width: 1; stroke-dasharray: none; stroke-linecap: butt; stroke-linejoin: miter; stroke-miterlimit: 10; fill: rgb(255,242,222); fill-rule: nonzero; opacity: 1;" transform=" matrix(1 0 0 1 0 0) " stroke-linecap="round" />
	<path d="M 68.245 90 h -46.49 c -2.529 0 -4.587 -2.059 -4.587 -4.588 V 61.528 c 0 -4.132 2.9 -7.672 6.896 -8.417 l 8.798 -1.253 c 2.073 -0.388 3.608 -2.271 3.608 -4.472 v -1.448 c 0 -0.266 0.106 -0.521 0.294 -0.708 c 0.188 -0.188 0.482 -0.267 0.71 -0.292 l 15.046 0.066 c 0.547 0.002 0.99 0.443 0.996 0.99 l 0.014 1.382 c 0 2.211 1.535 4.094 3.65 4.488 l 8.714 1.239 c 4.038 0.752 6.938 4.292 6.938 8.424 v 23.884 C 72.833 87.941 70.774 90 68.245 90 z M 38.47 46.943 v 0.443 c 0 3.163 -2.222 5.874 -5.284 6.445 l -8.798 1.253 c -3.007 0.562 -5.22 3.274 -5.22 6.443 v 23.884 c 0 1.427 1.161 2.588 2.587 2.588 h 46.49 c 1.427 0 2.588 -1.161 2.588 -2.588 V 61.528 c 0 -3.169 -2.213 -5.882 -5.263 -6.45 l -8.714 -1.239 c -3.104 -0.578 -5.326 -3.289 -5.326 -6.452 l -0.004 -0.386 L 38.47 46.943 z" style="stroke: none; stroke-width: 1; stroke-dasharray: none; stroke-linecap: butt; stroke-linejoin: miter; stroke-miterlimit: 10; fill: rgb(0,0,0); fill-rule: nonzero; opacity: 1;" transform=" matrix(1 0 0 1 0 0) " stroke-linecap="round" />
	<path d="M 58.519 26.556 l -0.073 7.28 c -0.169 2.057 -0.28 3.958 -1.09 5.773 c -0.438 0.981 -0.961 1.916 -1.562 2.795 s -1.28 1.702 -2.029 2.457 c -1.754 1.77 -3.89 3.169 -6.301 4.058 l 0 0 c -1.593 0.587 -3.336 0.587 -4.929 0 l 0 0 c -6.373 -2.348 -10.354 -8.197 -10.919 -15.082 l -0.187 -7.28 c 0 -10.109 27.087 -10.109 27.087 0 L 58.519 26.556 L 58.519 26.556 z" style="stroke: none; stroke-width: 1; stroke-dasharray: none; stroke-linecap: butt; stroke-linejoin: miter; stroke-miterlimit: 10; fill: rgb(255,242,222); fill-rule: nonzero; opacity: 1;" transform=" matrix(1 0 0 1 0 0) " stroke-linecap="round" />
	<path d="M 43.026 32.821 c -0.245 0 -0.489 -0.089 -0.682 -0.269 c -1.083 -1.01 -2.313 -1.339 -3.756 -1.006 c -0.537 0.12 -1.075 -0.211 -1.199 -0.75 c -0.124 -0.538 0.212 -1.075 0.75 -1.199 c 2.111 -0.486 3.984 0.016 5.569 1.493 c 0.404 0.376 0.426 1.009 0.049 1.414 C 43.561 32.714 43.293 32.821 43.026 32.821 z" style="stroke: none; stroke-width: 1; stroke-dasharray: none; stroke-linecap: butt; stroke-linejoin: miter; stroke-miterlimit: 10; fill: rgb(0,0,0); fill-rule: nonzero; opacity: 1;" transform=" matrix(1 0 0 1 0 0) " stroke-linecap="round" />
	<path d="M 47.704 32.821 c -0.268 0 -0.534 -0.107 -0.731 -0.318 c -0.377 -0.404 -0.354 -1.037 0.05 -1.414 c 1.584 -1.478 3.458 -1.98 5.568 -1.493 c 0.538 0.125 0.874 0.661 0.75 1.199 c -0.124 0.539 -0.661 0.872 -1.199 0.75 c -1.44 -0.333 -2.672 -0.004 -3.756 1.006 C 48.193 32.732 47.948 32.821 47.704 32.821 z" style="stroke: none; stroke-width: 1; stroke-dasharray: none; stroke-linecap: butt; stroke-linejoin: miter; stroke-miterlimit: 10; fill: rgb(0,0,0); fill-rule: nonzero; opacity: 1;" transform=" matrix(1 0 0 1 0 0) " stroke-linecap="round" />
	<path d="M 45 42.204 c -1.286 0 -2.571 -0.347 -3.848 -1.04 c -0.485 -0.263 -0.666 -0.871 -0.402 -1.356 s 0.869 -0.665 1.356 -0.402 c 1.948 1.057 3.842 1.057 5.788 0 c 0.487 -0.263 1.092 -0.084 1.356 0.402 c 0.264 0.485 0.084 1.092 -0.401 1.356 C 47.571 41.857 46.286 42.204 45 42.204 z" style="stroke: none; stroke-width: 1; stroke-dasharray: none; stroke-linecap: butt; stroke-linejoin: miter; stroke-miterlimit: 10; fill: rgb(0,0,0); fill-rule: nonzero; opacity: 1;" transform=" matrix(1 0 0 1 0 0) " stroke-linecap="round" />
	<path d="M 49.217 85.349 c -0.363 0 -0.713 -0.197 -0.89 -0.542 l -16.213 -31.5 c -0.253 -0.491 -0.06 -1.095 0.432 -1.347 c 0.492 -0.256 1.094 -0.061 1.347 0.431 l 16.212 31.5 c 0.253 0.491 0.06 1.095 -0.431 1.347 C 49.527 85.313 49.371 85.349 49.217 85.349 z" style="stroke: none; stroke-width: 1; stroke-dasharray: none; stroke-linecap: butt; stroke-linejoin: miter; stroke-miterlimit: 10; fill: rgb(0,0,0); fill-rule: nonzero; opacity: 1;" transform=" matrix(1 0 0 1 0 0) " stroke-linecap="round" />
	<path d="M 31.429 90 c -0.552 0 -1 -0.447 -1 -1 V 68.447 c 0 -0.553 0.448 -1 1 -1 s 1 0.447 1 1 V 89 C 32.429 89.553 31.981 90 31.429 90 z" style="stroke: none; stroke-width: 1; stroke-dasharray: none; stroke-linecap: butt; stroke-linejoin: miter; stroke-miterlimit: 10; fill: rgb(0,0,0); fill-rule: nonzero; opacity: 1;" transform=" matrix(1 0 0 1 0 0) " stroke-linecap="round" />
	<path d="M 58.52 90 c -0.553 0 -1 -0.447 -1 -1 V 68.447 c 0 -0.553 0.447 -1 1 -1 s 1 0.447 1 1 V 89 C 59.52 89.553 59.072 90 58.52 90 z" style="stroke: none; stroke-width: 1; stroke-dasharray: none; stroke-linecap: butt; stroke-linejoin: miter; stroke-miterlimit: 10; fill: rgb(0,0,0); fill-rule: nonzero; opacity: 1;" transform=" matrix(1 0 0 1 0 0) " stroke-linecap="round" />
	<path d="M 45.364 77.866 c -0.146 0 -0.295 -0.032 -0.436 -0.1 c -0.497 -0.241 -0.705 -0.839 -0.464 -1.336 l 11.632 -24.018 c 0.24 -0.498 0.843 -0.702 1.336 -0.465 c 0.497 0.241 0.705 0.839 0.465 1.336 L 46.265 77.302 C 46.092 77.659 45.735 77.866 45.364 77.866 z" style="stroke: none; stroke-width: 1; stroke-dasharray: none; stroke-linecap: butt; stroke-linejoin: miter; stroke-miterlimit: 10; fill: rgb(0,0,0); fill-rule: nonzero; opacity: 1;" transform=" matrix(1 0 0 1 0 0) " stroke-linecap="round" />
	<rect x="31.43" y="84.35" rx="0" ry="0" width="26.66" height="4.65" style="stroke: none; stroke-width: 1; stroke-dasharray: none; stroke-linecap: butt; stroke-linejoin: miter; stroke-miterlimit: 10; fill: rgb(25,207,252); fill-rule: nonzero; opacity: 1;" transform=" matrix(1 0 0 1 0 0) "/>
	<path d="M 58.089 90 h -26.66 c -0.552 0 -1 -0.447 -1 -1 v -4.651 c 0 -0.553 0.448 -1 1 -1 h 26.66 c 0.553 0 1 0.447 1 1 V 89 C 59.089 89.553 58.642 90 58.089 90 z M 32.429 88 h 24.66 v -2.651 h -24.66 V 88 z" style="stroke: none; stroke-width: 1; stroke-dasharray: none; stroke-linecap: butt; stroke-linejoin: miter; stroke-miterlimit: 10; fill: rgb(0,0,0); fill-rule: nonzero; opacity: 1;" transform=" matrix(1 0 0 1 0 0) " stroke-linecap="round" />
	<path d="M 45 50.358 c -0.952 0 -1.904 -0.167 -2.81 -0.501 c -6.527 -2.405 -10.961 -8.513 -11.57 -15.939 l -0.19 -7.336 c -0.014 -0.552 0.422 -1.011 0.974 -1.025 c 0.544 -0.048 1.011 0.421 1.025 0.974 l 0.187 7.28 c 0.55 6.687 4.389 12.004 10.266 14.17 c 1.366 0.504 2.871 0.504 4.238 0 c 2.244 -0.827 4.241 -2.113 5.937 -3.823 c 0.702 -0.708 1.346 -1.488 1.914 -2.318 c 0.567 -0.83 1.063 -1.718 1.474 -2.638 c 0.693 -1.554 0.825 -3.193 0.978 -5.091 l 0.028 -0.356 l 0.069 -7.131 c -0.001 -0.022 -0.002 -0.045 -0.002 -0.067 c 0 -0.552 0.447 -1 1 -1 c 0.15 0 0.293 0.033 0.421 0.092 c 0.107 0.05 0.206 0.119 0.291 0.204 c 0.188 0.19 0.294 0.447 0.291 0.714 l -0.105 7.705 c -0.16 1.995 -0.312 3.878 -1.145 5.745 c -0.459 1.03 -1.014 2.023 -1.649 2.952 c -0.636 0.93 -1.357 1.804 -2.145 2.597 c -1.901 1.919 -4.145 3.362 -6.665 4.292 C 46.904 50.191 45.952 50.358 45 50.358 z" style="stroke: none; stroke-width: 1; stroke-dasharray: none; stroke-linecap: butt; stroke-linejoin: miter; stroke-miterlimit: 10; fill: rgb(0,0,0); fill-rule: nonzero; opacity: 1;" transform=" matrix(1 0 0 1 0 0) " stroke-linecap="round" />
	<circle cx="44.999" cy="6.479" r="5.479" style="stroke: none; stroke-width: 1; stroke-dasharray: none; stroke-linecap: butt; stroke-linejoin: miter; stroke-miterlimit: 10; fill: rgb(172,167,167); fill-rule: nonzero; opacity: 1;" transform="  matrix(1 0 0 1 0 0) "/>
	<path d="M 45 12.958 c -3.572 0 -6.479 -2.906 -6.479 -6.479 S 41.428 0 45 0 s 6.479 2.906 6.479 6.479 C 51.479 10.051 48.572 12.958 45 12.958 z M 45 2 c -2.469 0 -4.479 2.009 -4.479 4.479 S 42.53 10.958 45 10.958 s 4.479 -2.009 4.479 -4.479 S 47.47 2 45 2 z" style="stroke: none; stroke-width: 1; stroke-dasharray: none; stroke-linecap: butt; stroke-linejoin: miter; stroke-miterlimit: 10; fill: rgb(0,0,0); fill-rule: nonzero; opacity: 1;" transform=" matrix(1 0 0 1 0 0) " stroke-linecap="round" />
	<path d="M 44.974 5.531 c -8.932 0 -16.174 7.241 -16.174 16.174 v 0.63 v 5.123 v 3.539 c 0 1.452 1.177 2.629 2.629 2.629 l 1 -8.107 c 2.088 -2.004 2.604 -3.696 3.573 -6.112 c 6.181 3.452 12.177 3.701 17.945 0 c 1.084 2.798 1.569 4.65 3.572 6.459 l 1 7.76 c 1.452 0 2.629 -1.177 2.629 -2.629 v -3.539 v -5.123 v -0.63 C 61.148 12.772 53.907 5.531 44.974 5.531 z" style="stroke: none; stroke-width: 1; stroke-dasharray: none; stroke-linecap: butt; stroke-linejoin: miter; stroke-miterlimit: 10; fill: rgb(172,167,167); fill-rule: nonzero; opacity: 1;" transform=" matrix(1 0 0 1 0 0) " stroke-linecap="round" />
	<path d="M 58.52 34.625 c -0.503 0 -0.928 -0.374 -0.992 -0.872 l -0.953 -7.402 c -1.695 -1.639 -2.34 -3.344 -3.138 -5.471 c -5.288 2.96 -10.968 2.939 -16.917 -0.064 c -0.744 1.881 -1.407 3.427 -3.141 5.172 l -0.957 7.76 c -0.062 0.501 -0.488 0.877 -0.993 0.877 c -2.001 0 -3.629 -1.628 -3.629 -3.628 v -9.292 c 0 -9.469 7.704 -17.173 17.174 -17.173 c 9.469 0 17.173 7.704 17.173 17.173 v 9.292 C 62.147 32.997 60.52 34.625 58.52 34.625 z M 53.947 18.407 c 0.104 0 0.209 0.016 0.311 0.049 c 0.285 0.093 0.514 0.31 0.622 0.59 c 0.149 0.385 0.287 0.752 0.419 1.104 c 0.808 2.152 1.341 3.574 2.891 4.973 c 0.178 0.16 0.291 0.378 0.322 0.614 l 0.856 6.648 c 0.467 -0.287 0.779 -0.802 0.779 -1.389 v -9.292 c 0 -8.367 -6.807 -15.173 -15.173 -15.173 S 29.8 13.337 29.8 21.704 v 9.292 c 0 0.585 0.31 1.099 0.774 1.386 l 0.862 -6.987 c 0.028 -0.228 0.134 -0.439 0.3 -0.599 c 1.713 -1.645 2.272 -3.064 3.045 -5.028 l 0.291 -0.735 c 0.107 -0.267 0.324 -0.475 0.595 -0.571 c 0.272 -0.094 0.57 -0.069 0.821 0.07 c 6.103 3.409 11.639 3.419 16.918 0.031 C 53.57 18.46 53.758 18.407 53.947 18.407 z" style="stroke: none; stroke-width: 1; stroke-dasharray: none; stroke-linecap: butt; stroke-linejoin: miter; stroke-miterlimit: 10; fill: rgb(0,0,0); fill-rule: nonzero; opacity: 1;" transform=" matrix(1 0 0 1 0 0) " stroke-linecap="round" />
</g>
</svg>