<?xml version="1.0" encoding="UTF-8" standalone="no" ?>
<!DOCTYPE svg PUBLIC "-//W3C//DTD SVG 1.1//EN" "http://www.w3.org/Graphics/SVG/1.1/DTD/svg11.dtd">
<svg xmlns="http://www.w3.org/2000/svg" xmlns:xlink="http://www.w3.org/1999/xlink" version="1.1" width="350" height="350" viewBox="0 0 350 350" xml:space="preserve">
<desc>Created with Fabric.js 1.7.22</desc>
<defs>
</defs>
<g id="icon" style="stroke: none; stroke-width: 1; stroke-dasharray: none; stroke-linecap: butt; stroke-linejoin: miter; stroke-miterlimit: 10; fill: none; fill-rule: nonzero; opacity: 1;" transform="translate(-1.9444444444444287 -1.9444444444444287) scale(3.89 3.89)" >
	<polygon points="45,40.31 89,40.31 45,11.85 1,40.31 " style="stroke: none; stroke-width: 1; stroke-dasharray: none; stroke-linecap: butt; stroke-linejoin: miter; stroke-miterlimit: 10; fill: rgb(243,181,137); fill-rule: nonzero; opacity: 1;" transform="  matrix(1 0 0 1 0 0) "/>
	<path d="M 89 41.306 H 1 c -0.443 0 -0.833 -0.292 -0.959 -0.717 c -0.125 -0.425 0.044 -0.882 0.416 -1.123 l 44 -28.454 c 0.33 -0.214 0.756 -0.214 1.086 0 l 44 28.454 c 0.372 0.241 0.542 0.698 0.416 1.123 C 89.834 41.014 89.443 41.306 89 41.306 z M 4.388 39.306 h 81.225 L 45 13.043 L 4.388 39.306 z" style="stroke: none; stroke-width: 1; stroke-dasharray: none; stroke-linecap: butt; stroke-linejoin: miter; stroke-miterlimit: 10; fill: rgb(29,29,27); fill-rule: nonzero; opacity: 1;" transform=" matrix(1 0 0 1 0 0) " stroke-linecap="round" />
	<path d="M 66.538 41.306 H 23.461 c -0.379 0 -0.727 -0.215 -0.896 -0.555 s -0.131 -0.746 0.098 -1.049 l 21.539 -28.454 c 0.378 -0.499 1.217 -0.499 1.595 0 l 21.538 28.454 c 0.229 0.303 0.268 0.709 0.099 1.049 S 66.918 41.306 66.538 41.306 z M 25.473 39.306 h 39.055 L 45 13.509 L 25.473 39.306 z" style="stroke: none; stroke-width: 1; stroke-dasharray: none; stroke-linecap: butt; stroke-linejoin: miter; stroke-miterlimit: 10; fill: rgb(29,29,27); fill-rule: nonzero; opacity: 1;" transform=" matrix(1 0 0 1 0 0) " stroke-linecap="round" />
	<path d="M 45 41.306 c -0.552 0 -1 -0.448 -1 -1 V 11.853 c 0 -0.552 0.448 -1 1 -1 s 1 0.448 1 1 v 28.454 C 46 40.858 45.552 41.306 45 41.306 z" style="stroke: none; stroke-width: 1; stroke-dasharray: none; stroke-linecap: butt; stroke-linejoin: miter; stroke-miterlimit: 10; fill: rgb(29,29,27); fill-rule: nonzero; opacity: 1;" transform=" matrix(1 0 0 1 0 0) " stroke-linecap="round" />
	<path d="M 45 72.92 c -15.322 0 -27.788 -12.466 -27.788 -27.788 v -4.826 c 0 -0.552 0.448 -1 1 -1 h 53.576 c 0.553 0 1 0.448 1 1 v 4.826 C 72.788 60.454 60.322 72.92 45 72.92 z M 19.212 41.306 v 3.826 C 19.212 59.352 30.781 70.92 45 70.92 c 14.22 0 25.788 -11.568 25.788 -25.788 v -3.826 H 19.212 z" style="stroke: none; stroke-width: 1; stroke-dasharray: none; stroke-linecap: butt; stroke-linejoin: miter; stroke-miterlimit: 10; fill: rgb(29,29,27); fill-rule: nonzero; opacity: 1;" transform=" matrix(1 0 0 1 0 0) " stroke-linecap="round" />
	<path d="M 51.228 79.147 c -0.256 0 -0.512 -0.098 -0.707 -0.293 L 45 73.334 l -5.521 5.521 c -0.391 0.391 -1.023 0.391 -1.414 0 s -0.391 -1.023 0 -1.414 l 6.228 -6.228 c 0.391 -0.391 1.023 -0.391 1.414 0 l 6.228 6.228 c 0.391 0.391 0.391 1.023 0 1.414 C 51.739 79.05 51.483 79.147 51.228 79.147 z" style="stroke: none; stroke-width: 1; stroke-dasharray: none; stroke-linecap: butt; stroke-linejoin: miter; stroke-miterlimit: 10; fill: rgb(29,29,27); fill-rule: nonzero; opacity: 1;" transform=" matrix(1 0 0 1 0 0) " stroke-linecap="round" />
</g>
</svg>