<?xml version="1.0" encoding="UTF-8" standalone="no" ?>
<!DOCTYPE svg PUBLIC "-//W3C//DTD SVG 1.1//EN" "http://www.w3.org/Graphics/SVG/1.1/DTD/svg11.dtd">
<svg xmlns="http://www.w3.org/2000/svg" xmlns:xlink="http://www.w3.org/1999/xlink" version="1.1" width="350" height="350" viewBox="0 0 350 350" xml:space="preserve">
<desc>Created with Fabric.js 1.7.22</desc>
<defs>
</defs>
<g id="icon" style="stroke: none; stroke-width: 1; stroke-dasharray: none; stroke-linecap: butt; stroke-linejoin: miter; stroke-miterlimit: 10; fill: none; fill-rule: nonzero; opacity: 1;" transform="translate(-1.9444444444444287 -1.9444444444444287) scale(3.89 3.89)" >
	<polygon points="19.46,68.25 24.05,72.83 85.91,10.97 86.71,1 " style="stroke: none; stroke-width: 1; stroke-dasharray: none; stroke-linecap: butt; stroke-linejoin: miter; stroke-miterlimit: 10; fill: rgb(234,234,234); fill-rule: nonzero; opacity: 1;" transform="  matrix(1 0 0 1 0 0) "/>
	<rect x="10.02" y="68.18" rx="0" ry="0" width="6.49" height="21.7" style="stroke: none; stroke-width: 1; stroke-dasharray: none; stroke-linecap: butt; stroke-linejoin: miter; stroke-miterlimit: 10; fill: rgb(255,108,82); fill-rule: nonzero; opacity: 1;" transform=" matrix(-0.7071 -0.7071 0.7071 -0.7071 -33.2485 144.2947) "/>
	<path d="M 24.046 73.834 c -0.265 0 -0.52 -0.105 -0.707 -0.293 l -4.587 -4.587 c -0.391 -0.391 -0.391 -1.023 0 -1.414 L 85.999 0.293 c 0.295 -0.297 0.747 -0.377 1.126 -0.201 c 0.381 0.175 0.611 0.569 0.578 0.987 l -0.795 9.969 c -0.02 0.237 -0.122 0.459 -0.29 0.627 L 24.753 73.541 C 24.566 73.729 24.312 73.834 24.046 73.834 z M 20.874 68.247 l 3.173 3.173 l 60.897 -60.898 l 0.55 -6.895 L 20.874 68.247 z" style="stroke: none; stroke-width: 1; stroke-dasharray: none; stroke-linecap: butt; stroke-linejoin: miter; stroke-miterlimit: 10; fill: rgb(29,29,27); fill-rule: nonzero; opacity: 1;" transform=" matrix(1 0 0 1 0 0) " stroke-linecap="round" />
	<path d="M 7.88 90 c -0.256 0 -0.512 -0.098 -0.707 -0.293 L 2.586 85.12 c -0.391 -0.391 -0.391 -1.023 0 -1.414 l 15.346 -15.347 c 0.391 -0.391 1.023 -0.391 1.414 0 l 4.587 4.587 c 0.188 0.188 0.293 0.441 0.293 0.707 s -0.105 0.52 -0.293 0.707 L 8.587 89.707 C 8.392 89.902 8.136 90 7.88 90 z M 4.708 84.413 l 3.173 3.173 l 13.933 -13.933 L 18.64 70.48 L 4.708 84.413 z" style="stroke: none; stroke-width: 1; stroke-dasharray: none; stroke-linecap: butt; stroke-linejoin: miter; stroke-miterlimit: 10; fill: rgb(29,29,27); fill-rule: nonzero; opacity: 1;" transform=" matrix(1 0 0 1 0 0) " stroke-linecap="round" />
	<rect x="14.74" y="67.77" rx="0" ry="0" width="15.36" height="4.2" style="stroke: none; stroke-width: 1; stroke-dasharray: none; stroke-linecap: butt; stroke-linejoin: miter; stroke-miterlimit: 10; fill: rgb(172,167,167); fill-rule: nonzero; opacity: 1;" transform=" matrix(-0.7071 -0.7071 0.7071 -0.7071 -11.1358 135.1353) "/>
	<path d="M 26.364 77.791 L 26.364 77.791 c -0.265 0 -0.52 -0.105 -0.707 -0.293 L 14.796 66.637 c -0.391 -0.391 -0.391 -1.023 0 -1.414 l 2.972 -2.973 c 0.375 -0.375 1.039 -0.375 1.414 0 l 10.861 10.861 c 0.391 0.391 0.391 1.023 0 1.414 l -2.973 2.973 C 26.883 77.686 26.629 77.791 26.364 77.791 z M 16.917 65.93 l 9.447 9.447 l 1.559 -1.559 l -9.447 -9.447 L 16.917 65.93 z" style="stroke: none; stroke-width: 1; stroke-dasharray: none; stroke-linecap: butt; stroke-linejoin: miter; stroke-miterlimit: 10; fill: rgb(29,29,27); fill-rule: nonzero; opacity: 1;" transform=" matrix(1 0 0 1 0 0) " stroke-linecap="round" />
	<path d="M 13.262 84.618 c -0.265 0 -0.52 -0.105 -0.707 -0.293 l -4.587 -4.587 c -0.391 -0.391 -0.391 -1.023 0 -1.414 l 4.583 -4.583 c 0.375 -0.375 1.039 -0.375 1.414 0 l 4.587 4.587 c 0.391 0.391 0.391 1.023 0 1.414 l -4.583 4.583 C 13.782 84.513 13.527 84.618 13.262 84.618 z M 10.089 79.031 l 3.173 3.173 l 3.168 -3.169 l -3.173 -3.173 L 10.089 79.031 z" style="stroke: none; stroke-width: 1; stroke-dasharray: none; stroke-linecap: butt; stroke-linejoin: miter; stroke-miterlimit: 10; fill: rgb(29,29,27); fill-rule: nonzero; opacity: 1;" transform=" matrix(1 0 0 1 0 0) " stroke-linecap="round" />
	<polygon points="70.54,68.25 65.95,72.83 4.09,10.97 3.29,1 " style="stroke: none; stroke-width: 1; stroke-dasharray: none; stroke-linecap: butt; stroke-linejoin: miter; stroke-miterlimit: 10; fill: rgb(234,234,234); fill-rule: nonzero; opacity: 1;" transform="  matrix(1 0 0 1 0 0) "/>
	<rect x="73.5" y="68.18" rx="0" ry="0" width="6.49" height="21.7" style="stroke: none; stroke-width: 1; stroke-dasharray: none; stroke-linecap: butt; stroke-linejoin: miter; stroke-miterlimit: 10; fill: rgb(255,108,82); fill-rule: nonzero; opacity: 1;" transform=" matrix(0.7071 -0.7071 0.7071 0.7071 -33.4084 77.4116) "/>
	<path d="M 65.954 73.834 c -0.256 0 -0.512 -0.098 -0.707 -0.293 L 3.381 11.676 c -0.168 -0.168 -0.271 -0.391 -0.29 -0.627 L 2.296 1.08 C 2.263 0.662 2.494 0.268 2.875 0.092 S 3.705 -0.004 4 0.293 L 71.248 67.54 c 0.188 0.188 0.293 0.441 0.293 0.707 s -0.105 0.52 -0.293 0.707 l -4.587 4.587 C 66.466 73.736 66.21 73.834 65.954 73.834 z M 5.056 10.522 L 65.954 71.42 l 3.173 -3.173 L 4.506 3.627 L 5.056 10.522 z" style="stroke: none; stroke-width: 1; stroke-dasharray: none; stroke-linecap: butt; stroke-linejoin: miter; stroke-miterlimit: 10; fill: rgb(29,29,27); fill-rule: nonzero; opacity: 1;" transform=" matrix(1 0 0 1 0 0) " stroke-linecap="round" />
	<path d="M 82.119 90 c -0.266 0 -0.52 -0.105 -0.707 -0.293 L 66.066 74.36 c -0.391 -0.391 -0.391 -1.023 0 -1.414 l 4.587 -4.587 c 0.375 -0.375 1.039 -0.375 1.414 0 l 15.346 15.347 c 0.391 0.391 0.391 1.023 0 1.414 l -4.587 4.587 C 82.639 89.895 82.385 90 82.119 90 z M 68.188 73.653 l 13.932 13.933 l 3.173 -3.173 L 71.36 70.48 L 68.188 73.653 z" style="stroke: none; stroke-width: 1; stroke-dasharray: none; stroke-linecap: butt; stroke-linejoin: miter; stroke-miterlimit: 10; fill: rgb(29,29,27); fill-rule: nonzero; opacity: 1;" transform=" matrix(1 0 0 1 0 0) " stroke-linecap="round" />
	<rect x="59.9" y="67.77" rx="0" ry="0" width="15.36" height="4.2" style="stroke: none; stroke-width: 1; stroke-dasharray: none; stroke-linecap: butt; stroke-linejoin: miter; stroke-miterlimit: 10; fill: rgb(172,167,167); fill-rule: nonzero; opacity: 1;" transform=" matrix(0.7071 -0.7071 0.7071 0.7071 -29.6145 68.2522) "/>
	<path d="M 63.636 77.791 L 63.636 77.791 c -0.266 0 -0.52 -0.105 -0.707 -0.293 l -2.972 -2.973 c -0.391 -0.391 -0.391 -1.023 0 -1.414 L 70.818 62.25 c 0.188 -0.188 0.441 -0.293 0.707 -0.293 l 0 0 c 0.266 0 0.52 0.105 0.707 0.293 l 2.972 2.973 c 0.391 0.391 0.391 1.023 0 1.414 L 64.343 77.498 C 64.155 77.686 63.901 77.791 63.636 77.791 z M 62.078 73.818 l 1.558 1.559 l 9.447 -9.447 l -1.558 -1.559 L 62.078 73.818 z" style="stroke: none; stroke-width: 1; stroke-dasharray: none; stroke-linecap: butt; stroke-linejoin: miter; stroke-miterlimit: 10; fill: rgb(29,29,27); fill-rule: nonzero; opacity: 1;" transform=" matrix(1 0 0 1 0 0) " stroke-linecap="round" />
	<path d="M 76.737 84.618 L 76.737 84.618 c -0.266 0 -0.52 -0.105 -0.707 -0.293 l -4.582 -4.583 c -0.391 -0.391 -0.391 -1.023 0 -1.414 l 4.587 -4.587 c 0.188 -0.188 0.441 -0.293 0.707 -0.293 l 0 0 c 0.266 0 0.52 0.105 0.707 0.293 l 4.582 4.583 c 0.391 0.391 0.391 1.023 0 1.414 l -4.587 4.587 C 77.257 84.513 77.003 84.618 76.737 84.618 z M 73.569 79.035 l 3.168 3.169 l 3.173 -3.173 l -3.168 -3.169 L 73.569 79.035 z" style="stroke: none; stroke-width: 1; stroke-dasharray: none; stroke-linecap: butt; stroke-linejoin: miter; stroke-miterlimit: 10; fill: rgb(29,29,27); fill-rule: nonzero; opacity: 1;" transform=" matrix(1 0 0 1 0 0) " stroke-linecap="round" />
</g>
</svg>