<?xml version="1.0" encoding="UTF-8" standalone="no" ?>
<!DOCTYPE svg PUBLIC "-//W3C//DTD SVG 1.1//EN" "http://www.w3.org/Graphics/SVG/1.1/DTD/svg11.dtd">
<svg xmlns="http://www.w3.org/2000/svg" xmlns:xlink="http://www.w3.org/1999/xlink" version="1.1" width="350" height="350" viewBox="0 0 350 350" xml:space="preserve">
<desc>Created with Fabric.js 1.7.22</desc>
<defs>
</defs>
<g id="icon" style="stroke: none; stroke-width: 1; stroke-dasharray: none; stroke-linecap: butt; stroke-linejoin: miter; stroke-miterlimit: 10; fill: none; fill-rule: nonzero; opacity: 1;" transform="translate(-1.9444444444444287 -1.9444444444444287) scale(3.89 3.89)" >
	<rect x="29.23" y="6.19" rx="0" ry="0" width="31.55" height="77.62" style="stroke: none; stroke-width: 1; stroke-dasharray: none; stroke-linecap: butt; stroke-linejoin: miter; stroke-miterlimit: 10; fill: rgb(255,108,82); fill-rule: nonzero; opacity: 1;" transform=" matrix(1 0 0 1 0 0) "/>
	<polygon points="13.45,48.29 1,36.82 29.23,6.19 29.23,31.17 " style="stroke: none; stroke-width: 1; stroke-dasharray: none; stroke-linecap: butt; stroke-linejoin: miter; stroke-miterlimit: 10; fill: rgb(255,108,82); fill-rule: nonzero; opacity: 1;" transform="  matrix(1 0 0 1 0 0) "/>
	<rect x="2.42" y="33.18" rx="0" ry="0" width="16.93" height="10.8" style="stroke: none; stroke-width: 1; stroke-dasharray: none; stroke-linecap: butt; stroke-linejoin: miter; stroke-miterlimit: 10; fill: rgb(255,108,82); fill-rule: nonzero; opacity: 1;" transform=" matrix(0.7354 0.6776 -0.6776 0.7354 29.0258 2.8331) "/>
	<polygon points="76.55,48.29 89,36.82 60.77,6.19 60.77,31.17 " style="stroke: none; stroke-width: 1; stroke-dasharray: none; stroke-linecap: butt; stroke-linejoin: miter; stroke-miterlimit: 10; fill: rgb(255,108,82); fill-rule: nonzero; opacity: 1;" transform="  matrix(1 0 0 1 0 0) "/>
	<rect x="70.65" y="33.18" rx="0" ry="0" width="16.93" height="10.8" style="stroke: none; stroke-width: 1; stroke-dasharray: none; stroke-linecap: butt; stroke-linejoin: miter; stroke-miterlimit: 10; fill: rgb(255,108,82); fill-rule: nonzero; opacity: 1;" transform=" matrix(-0.7354 0.6776 -0.6776 -0.7354 163.4426 13.3503) "/>
	<rect x="2.42" y="33.18" rx="0" ry="0" width="16.93" height="10.8" style="stroke: none; stroke-width: 1; stroke-dasharray: none; stroke-linecap: butt; stroke-linejoin: miter; stroke-miterlimit: 10; fill: rgb(255,215,209); fill-rule: nonzero; opacity: 1;" transform=" matrix(0.7354 0.6776 -0.6776 0.7354 29.0258 2.8331) "/>
	<rect x="70.65" y="33.18" rx="0" ry="0" width="16.93" height="10.8" style="stroke: none; stroke-width: 1; stroke-dasharray: none; stroke-linecap: butt; stroke-linejoin: miter; stroke-miterlimit: 10; fill: rgb(255,215,209); fill-rule: nonzero; opacity: 1;" transform=" matrix(-0.7354 0.6776 -0.6776 -0.7354 163.4426 13.3503) "/>
	<path d="M 60.775 84.812 h -31.55 c -0.552 0 -1 -0.447 -1 -1 V 6.188 c 0 -0.552 0.448 -1 1 -1 h 31.55 c 0.553 0 1 0.448 1 1 v 77.623 C 61.775 84.364 61.328 84.812 60.775 84.812 z M 30.225 82.812 h 29.55 V 7.188 h -29.55 V 82.812 z" style="stroke: none; stroke-width: 1; stroke-dasharray: none; stroke-linecap: butt; stroke-linejoin: miter; stroke-miterlimit: 10; fill: rgb(29,29,27); fill-rule: nonzero; opacity: 1;" transform=" matrix(1 0 0 1 0 0) " stroke-linecap="round" />
	<path d="M 13.451 49.293 c -0.25 0 -0.493 -0.094 -0.678 -0.265 L 0.322 37.556 c -0.195 -0.18 -0.311 -0.43 -0.321 -0.694 c -0.011 -0.265 0.084 -0.523 0.264 -0.719 L 28.49 5.511 c 0.278 -0.303 0.714 -0.404 1.099 -0.254 c 0.384 0.15 0.636 0.52 0.636 0.932 v 24.984 c 0 0.251 -0.094 0.493 -0.265 0.678 l -15.774 17.12 c -0.18 0.195 -0.43 0.311 -0.694 0.321 C 13.478 49.293 13.464 49.293 13.451 49.293 z M 2.413 36.763 l 10.98 10.117 l 14.832 -16.098 V 8.75 L 2.413 36.763 z" style="stroke: none; stroke-width: 1; stroke-dasharray: none; stroke-linecap: butt; stroke-linejoin: miter; stroke-miterlimit: 10; fill: rgb(29,29,27); fill-rule: nonzero; opacity: 1;" transform=" matrix(1 0 0 1 0 0) " stroke-linecap="round" />
	<path d="M 13.451 49.293 c -0.25 0 -0.493 -0.094 -0.678 -0.265 L 0.322 37.556 c -0.406 -0.374 -0.432 -1.007 -0.058 -1.413 l 7.32 -7.944 c 0.18 -0.195 0.43 -0.311 0.694 -0.321 c 0.27 -0.007 0.523 0.084 0.719 0.264 l 12.45 11.472 c 0.406 0.374 0.432 1.007 0.058 1.413 l -7.319 7.944 c -0.18 0.195 -0.43 0.311 -0.694 0.321 C 13.478 49.293 13.464 49.293 13.451 49.293 z M 2.413 36.763 l 10.98 10.117 l 5.964 -6.474 L 8.377 30.29 L 2.413 36.763 z" style="stroke: none; stroke-width: 1; stroke-dasharray: none; stroke-linecap: butt; stroke-linejoin: miter; stroke-miterlimit: 10; fill: rgb(29,29,27); fill-rule: nonzero; opacity: 1;" transform=" matrix(1 0 0 1 0 0) " stroke-linecap="round" />
	<path d="M 76.55 49.293 c -0.014 0 -0.027 0 -0.041 -0.001 c -0.265 -0.011 -0.515 -0.126 -0.694 -0.321 L 60.04 31.851 c -0.17 -0.185 -0.265 -0.427 -0.265 -0.678 V 6.188 c 0 -0.412 0.253 -0.782 0.637 -0.932 c 0.383 -0.148 0.819 -0.049 1.099 0.254 l 28.225 30.632 c 0.374 0.406 0.349 1.039 -0.058 1.413 l -12.45 11.472 C 77.042 49.199 76.801 49.293 76.55 49.293 z M 61.775 30.782 L 76.607 46.88 l 10.979 -10.117 L 61.775 8.75 V 30.782 z" style="stroke: none; stroke-width: 1; stroke-dasharray: none; stroke-linecap: butt; stroke-linejoin: miter; stroke-miterlimit: 10; fill: rgb(29,29,27); fill-rule: nonzero; opacity: 1;" transform=" matrix(1 0 0 1 0 0) " stroke-linecap="round" />
	<path d="M 76.55 49.293 c -0.27 0 -0.538 -0.108 -0.735 -0.322 l -7.32 -7.944 c -0.18 -0.195 -0.274 -0.454 -0.264 -0.719 c 0.011 -0.265 0.126 -0.515 0.321 -0.694 l 12.451 -11.472 c 0.196 -0.179 0.455 -0.266 0.719 -0.264 c 0.265 0.011 0.515 0.126 0.694 0.321 l 7.319 7.944 c 0.374 0.406 0.349 1.039 -0.058 1.413 l -12.45 11.472 C 77.035 49.205 76.792 49.293 76.55 49.293 z M 70.643 40.406 l 5.965 6.474 l 10.979 -10.117 l -5.964 -6.474 L 70.643 40.406 z" style="stroke: none; stroke-width: 1; stroke-dasharray: none; stroke-linecap: butt; stroke-linejoin: miter; stroke-miterlimit: 10; fill: rgb(29,29,27); fill-rule: nonzero; opacity: 1;" transform=" matrix(1 0 0 1 0 0) " stroke-linecap="round" />
	<rect x="29.23" y="35.19" rx="0" ry="0" width="31.55" height="7.05" style="stroke: none; stroke-width: 1; stroke-dasharray: none; stroke-linecap: butt; stroke-linejoin: miter; stroke-miterlimit: 10; fill: rgb(255,215,209); fill-rule: nonzero; opacity: 1;" transform=" matrix(1 0 0 1 0 0) "/>
	<rect x="29.23" y="42.24" rx="0" ry="0" width="31.55" height="7.05" style="stroke: none; stroke-width: 1; stroke-dasharray: none; stroke-linecap: butt; stroke-linejoin: miter; stroke-miterlimit: 10; fill: rgb(255,215,209); fill-rule: nonzero; opacity: 1;" transform=" matrix(1 0 0 1 0 0) "/>
	<path d="M 60.775 43.237 h -31.55 c -0.552 0 -1 -0.448 -1 -1 v -7.05 c 0 -0.552 0.448 -1 1 -1 h 31.55 c 0.553 0 1 0.448 1 1 v 7.05 C 61.775 42.79 61.328 43.237 60.775 43.237 z M 30.225 41.237 h 29.55 v -5.05 h -29.55 V 41.237 z" style="stroke: none; stroke-width: 1; stroke-dasharray: none; stroke-linecap: butt; stroke-linejoin: miter; stroke-miterlimit: 10; fill: rgb(29,29,27); fill-rule: nonzero; opacity: 1;" transform=" matrix(1 0 0 1 0 0) " stroke-linecap="round" />
	<path d="M 60.775 50.287 h -31.55 c -0.552 0 -1 -0.447 -1 -1 v -7.05 c 0 -0.552 0.448 -1 1 -1 h 31.55 c 0.553 0 1 0.448 1 1 v 7.05 C 61.775 49.84 61.328 50.287 60.775 50.287 z M 30.225 48.287 h 29.55 v -5.05 h -29.55 V 48.287 z" style="stroke: none; stroke-width: 1; stroke-dasharray: none; stroke-linecap: butt; stroke-linejoin: miter; stroke-miterlimit: 10; fill: rgb(29,29,27); fill-rule: nonzero; opacity: 1;" transform=" matrix(1 0 0 1 0 0) " stroke-linecap="round" />
	<polygon points="29.23,6.19 48.96,35.19 56.41,35.19 36.67,6.19 " style="stroke: none; stroke-width: 1; stroke-dasharray: none; stroke-linecap: butt; stroke-linejoin: miter; stroke-miterlimit: 10; fill: rgb(255,215,209); fill-rule: nonzero; opacity: 1;" transform="  matrix(1 0 0 1 0 0) "/>
	<polygon points="48.73,23.89 60.77,6.19 53.33,6.19 45,18.42 " style="stroke: none; stroke-width: 1; stroke-dasharray: none; stroke-linecap: butt; stroke-linejoin: miter; stroke-miterlimit: 10; fill: rgb(255,215,209); fill-rule: nonzero; opacity: 1;" transform="  matrix(1 0 0 1 0 0) "/>
	<path d="M 56.41 36.187 h -7.449 c -0.331 0 -0.641 -0.164 -0.827 -0.438 L 28.398 6.751 c -0.208 -0.306 -0.23 -0.703 -0.057 -1.03 c 0.173 -0.327 0.513 -0.532 0.884 -0.532 h 7.449 c 0.331 0 0.641 0.164 0.827 0.438 l 19.736 28.999 c 0.208 0.306 0.23 0.703 0.057 1.03 C 57.121 35.982 56.78 36.187 56.41 36.187 z M 49.49 34.187 h 5.029 L 36.146 7.188 h -5.03 L 49.49 34.187 z" style="stroke: none; stroke-width: 1; stroke-dasharray: none; stroke-linecap: butt; stroke-linejoin: miter; stroke-miterlimit: 10; fill: rgb(29,29,27); fill-rule: nonzero; opacity: 1;" transform=" matrix(1 0 0 1 0 0) " stroke-linecap="round" />
	<path d="M 48.725 24.894 c -0.331 0 -0.641 -0.164 -0.827 -0.438 l -3.724 -5.473 c -0.231 -0.339 -0.231 -0.786 0 -1.125 l 8.325 -12.233 c 0.187 -0.274 0.496 -0.438 0.827 -0.438 h 7.45 c 0.37 0 0.711 0.205 0.884 0.532 c 0.174 0.328 0.151 0.724 -0.057 1.03 L 49.552 24.457 C 49.365 24.73 49.056 24.894 48.725 24.894 z M 46.21 18.421 l 2.515 3.695 l 10.16 -14.928 h -5.03 L 46.21 18.421 z" style="stroke: none; stroke-width: 1; stroke-dasharray: none; stroke-linecap: butt; stroke-linejoin: miter; stroke-miterlimit: 10; fill: rgb(29,29,27); fill-rule: nonzero; opacity: 1;" transform=" matrix(1 0 0 1 0 0) " stroke-linecap="round" />
	<circle cx="55.199" cy="26.108999999999998" r="1.769" style="stroke: none; stroke-width: 1; stroke-dasharray: none; stroke-linecap: butt; stroke-linejoin: miter; stroke-miterlimit: 10; fill: rgb(243,83,58); fill-rule: nonzero; opacity: 1;" transform="  matrix(1 0 0 1 0 0) "/>
	<circle cx="34.568999999999996" cy="57.109" r="1.769" style="stroke: none; stroke-width: 1; stroke-dasharray: none; stroke-linecap: butt; stroke-linejoin: miter; stroke-miterlimit: 10; fill: rgb(243,83,58); fill-rule: nonzero; opacity: 1;" transform="  matrix(1 0 0 1 0 0) "/>
	<circle cx="34.568999999999996" cy="67.299" r="1.769" style="stroke: none; stroke-width: 1; stroke-dasharray: none; stroke-linecap: butt; stroke-linejoin: miter; stroke-miterlimit: 10; fill: rgb(243,83,58); fill-rule: nonzero; opacity: 1;" transform="  matrix(1 0 0 1 0 0) "/>
	<circle cx="34.568999999999996" cy="77.299" r="1.769" style="stroke: none; stroke-width: 1; stroke-dasharray: none; stroke-linecap: butt; stroke-linejoin: miter; stroke-miterlimit: 10; fill: rgb(243,83,58); fill-rule: nonzero; opacity: 1;" transform="  matrix(1 0 0 1 0 0) "/>
	<circle cx="41.428999999999995" cy="62.199" r="1.769" style="stroke: none; stroke-width: 1; stroke-dasharray: none; stroke-linecap: butt; stroke-linejoin: miter; stroke-miterlimit: 10; fill: rgb(243,83,58); fill-rule: nonzero; opacity: 1;" transform="  matrix(1 0 0 1 0 0) "/>
	<circle cx="41.428999999999995" cy="72.399" r="1.769" style="stroke: none; stroke-width: 1; stroke-dasharray: none; stroke-linecap: butt; stroke-linejoin: miter; stroke-miterlimit: 10; fill: rgb(243,83,58); fill-rule: nonzero; opacity: 1;" transform="  matrix(1 0 0 1 0 0) "/>
	<circle cx="48.568999999999996" cy="57.109" r="1.769" style="stroke: none; stroke-width: 1; stroke-dasharray: none; stroke-linecap: butt; stroke-linejoin: miter; stroke-miterlimit: 10; fill: rgb(243,83,58); fill-rule: nonzero; opacity: 1;" transform="  matrix(1 0 0 1 0 0) "/>
	<circle cx="48.568999999999996" cy="67.299" r="1.769" style="stroke: none; stroke-width: 1; stroke-dasharray: none; stroke-linecap: butt; stroke-linejoin: miter; stroke-miterlimit: 10; fill: rgb(243,83,58); fill-rule: nonzero; opacity: 1;" transform="  matrix(1 0 0 1 0 0) "/>
	<circle cx="48.568999999999996" cy="77.299" r="1.769" style="stroke: none; stroke-width: 1; stroke-dasharray: none; stroke-linecap: butt; stroke-linejoin: miter; stroke-miterlimit: 10; fill: rgb(243,83,58); fill-rule: nonzero; opacity: 1;" transform="  matrix(1 0 0 1 0 0) "/>
	<circle cx="55.428999999999995" cy="62.199" r="1.769" style="stroke: none; stroke-width: 1; stroke-dasharray: none; stroke-linecap: butt; stroke-linejoin: miter; stroke-miterlimit: 10; fill: rgb(243,83,58); fill-rule: nonzero; opacity: 1;" transform="  matrix(1 0 0 1 0 0) "/>
	<circle cx="55.428999999999995" cy="72.399" r="1.769" style="stroke: none; stroke-width: 1; stroke-dasharray: none; stroke-linecap: butt; stroke-linejoin: miter; stroke-miterlimit: 10; fill: rgb(243,83,58); fill-rule: nonzero; opacity: 1;" transform="  matrix(1 0 0 1 0 0) "/>
	<circle cx="23.108999999999998" cy="20.788999999999998" r="1.769" style="stroke: none; stroke-width: 1; stroke-dasharray: none; stroke-linecap: butt; stroke-linejoin: miter; stroke-miterlimit: 10; fill: rgb(243,83,58); fill-rule: nonzero; opacity: 1;" transform="  matrix(1 0 0 1 0 0) "/>
	<circle cx="23.799" cy="28.889" r="1.769" style="stroke: none; stroke-width: 1; stroke-dasharray: none; stroke-linecap: butt; stroke-linejoin: miter; stroke-miterlimit: 10; fill: rgb(243,83,58); fill-rule: nonzero; opacity: 1;" transform="  matrix(1 0 0 1 0 0) "/>
	<circle cx="15.879" cy="28.889" r="1.769" style="stroke: none; stroke-width: 1; stroke-dasharray: none; stroke-linecap: butt; stroke-linejoin: miter; stroke-miterlimit: 10; fill: rgb(243,83,58); fill-rule: nonzero; opacity: 1;" transform="  matrix(1 0 0 1 0 0) "/>
	<circle cx="66.569" cy="20.788999999999998" r="1.769" style="stroke: none; stroke-width: 1; stroke-dasharray: none; stroke-linecap: butt; stroke-linejoin: miter; stroke-miterlimit: 10; fill: rgb(243,83,58); fill-rule: nonzero; opacity: 1;" transform="  matrix(1 0 0 1 0 0) "/>
	<circle cx="65.879" cy="28.889" r="1.769" style="stroke: none; stroke-width: 1; stroke-dasharray: none; stroke-linecap: butt; stroke-linejoin: miter; stroke-miterlimit: 10; fill: rgb(243,83,58); fill-rule: nonzero; opacity: 1;" transform="  matrix(1 0 0 1 0 0) "/>
	<circle cx="73.799" cy="28.889" r="1.769" style="stroke: none; stroke-width: 1; stroke-dasharray: none; stroke-linecap: butt; stroke-linejoin: miter; stroke-miterlimit: 10; fill: rgb(243,83,58); fill-rule: nonzero; opacity: 1;" transform="  matrix(1 0 0 1 0 0) "/>
	<circle cx="34.568999999999996" cy="26.108999999999998" r="1.769" style="stroke: none; stroke-width: 1; stroke-dasharray: none; stroke-linecap: butt; stroke-linejoin: miter; stroke-miterlimit: 10; fill: rgb(243,83,58); fill-rule: nonzero; opacity: 1;" transform="  matrix(1 0 0 1 0 0) "/>
	<circle cx="41.428999999999995" cy="31.198999999999998" r="1.769" style="stroke: none; stroke-width: 1; stroke-dasharray: none; stroke-linecap: butt; stroke-linejoin: miter; stroke-miterlimit: 10; fill: rgb(243,83,58); fill-rule: nonzero; opacity: 1;" transform="  matrix(1 0 0 1 0 0) "/>
</g>
</svg>