<?xml version="1.0" encoding="UTF-8" standalone="no" ?>
<!DOCTYPE svg PUBLIC "-//W3C//DTD SVG 1.1//EN" "http://www.w3.org/Graphics/SVG/1.1/DTD/svg11.dtd">
<svg xmlns="http://www.w3.org/2000/svg" xmlns:xlink="http://www.w3.org/1999/xlink" version="1.1" width="350" height="350" viewBox="0 0 350 350" xml:space="preserve">
<desc>Created with Fabric.js 1.7.22</desc>
<defs>
</defs>
<g id="icon" style="stroke: none; stroke-width: 1; stroke-dasharray: none; stroke-linecap: butt; stroke-linejoin: miter; stroke-miterlimit: 10; fill: none; fill-rule: nonzero; opacity: 1;" transform="translate(-1.9444444444444287 -1.9444444444444287) scale(3.89 3.89)" >
	<path d="M 64.514 86.839 c 0.068 -21.151 -0.742 -53.339 -1.996 -83.765 C 62.471 1.913 61.515 1 60.353 1 H 29.647 c -1.162 0 -2.118 0.913 -2.166 2.074 c -1.253 30.426 -2.063 62.614 -1.996 83.765 C 25.489 88.034 26.458 89 27.653 89 h 34.695 C 63.542 89 64.511 88.034 64.514 86.839 z" style="stroke: none; stroke-width: 1; stroke-dasharray: none; stroke-linecap: butt; stroke-linejoin: miter; stroke-miterlimit: 10; fill: rgb(221,153,104); fill-rule: nonzero; opacity: 1;" transform=" matrix(1 0 0 1 0 0) " stroke-linecap="round" />
	<path d="M 62.348 90 H 27.652 c -1.741 0 -3.162 -1.417 -3.167 -3.158 c -0.065 -20.233 0.7 -52.347 1.996 -83.809 C 26.552 1.332 27.942 0 29.647 0 h 30.706 c 1.705 0 3.095 1.332 3.165 3.033 c 1.296 31.453 2.062 63.566 1.997 83.809 l 0 0 C 65.509 88.583 64.088 90 62.348 90 z M 29.647 2 c -0.628 0 -1.141 0.49 -1.167 1.115 c -1.295 31.434 -2.059 63.514 -1.994 83.721 C 26.488 87.478 27.011 88 27.652 88 h 34.695 c 0.642 0 1.165 -0.522 1.167 -1.164 c 0.064 -20.215 -0.7 -52.295 -1.995 -83.721 C 61.493 2.49 60.981 2 60.353 2 H 29.647 z M 64.515 86.839 h 0.01 H 64.515 z" style="stroke: none; stroke-width: 1; stroke-dasharray: none; stroke-linecap: butt; stroke-linejoin: miter; stroke-miterlimit: 10; fill: rgb(29,29,27); fill-rule: nonzero; opacity: 1;" transform=" matrix(1 0 0 1 0 0) " stroke-linecap="round" />
	<path d="M 58.465 74.464 c -0.553 0 -1 -0.447 -1 -1 v -53.57 c 0 -0.552 0.447 -1 1 -1 s 1 0.448 1 1 v 53.57 C 59.465 74.017 59.018 74.464 58.465 74.464 z" style="stroke: none; stroke-width: 1; stroke-dasharray: none; stroke-linecap: butt; stroke-linejoin: miter; stroke-miterlimit: 10; fill: rgb(29,29,27); fill-rule: nonzero; opacity: 1;" transform=" matrix(1 0 0 1 0 0) " stroke-linecap="round" />
	<path d="M 51.732 74.464 c -0.553 0 -1 -0.447 -1 -1 v -53.57 c 0 -0.552 0.447 -1 1 -1 s 1 0.448 1 1 v 53.57 C 52.732 74.017 52.285 74.464 51.732 74.464 z" style="stroke: none; stroke-width: 1; stroke-dasharray: none; stroke-linecap: butt; stroke-linejoin: miter; stroke-miterlimit: 10; fill: rgb(29,29,27); fill-rule: nonzero; opacity: 1;" transform=" matrix(1 0 0 1 0 0) " stroke-linecap="round" />
	<path d="M 45 74.464 c -0.552 0 -1 -0.447 -1 -1 v -53.57 c 0 -0.552 0.448 -1 1 -1 s 1 0.448 1 1 v 53.57 C 46 74.017 45.552 74.464 45 74.464 z" style="stroke: none; stroke-width: 1; stroke-dasharray: none; stroke-linecap: butt; stroke-linejoin: miter; stroke-miterlimit: 10; fill: rgb(29,29,27); fill-rule: nonzero; opacity: 1;" transform=" matrix(1 0 0 1 0 0) " stroke-linecap="round" />
	<path d="M 38.268 74.464 c -0.552 0 -1 -0.447 -1 -1 v -53.57 c 0 -0.552 0.448 -1 1 -1 s 1 0.448 1 1 v 53.57 C 39.268 74.017 38.82 74.464 38.268 74.464 z" style="stroke: none; stroke-width: 1; stroke-dasharray: none; stroke-linecap: butt; stroke-linejoin: miter; stroke-miterlimit: 10; fill: rgb(29,29,27); fill-rule: nonzero; opacity: 1;" transform=" matrix(1 0 0 1 0 0) " stroke-linecap="round" />
	<path d="M 31.535 74.464 c -0.552 0 -1 -0.447 -1 -1 v -53.57 c 0 -0.552 0.448 -1 1 -1 s 1 0.448 1 1 v 53.57 C 32.535 74.017 32.087 74.464 31.535 74.464 z" style="stroke: none; stroke-width: 1; stroke-dasharray: none; stroke-linecap: butt; stroke-linejoin: miter; stroke-miterlimit: 10; fill: rgb(29,29,27); fill-rule: nonzero; opacity: 1;" transform=" matrix(1 0 0 1 0 0) " stroke-linecap="round" />
	<path d="M 64.376 74.789 H 25.624 c -1.224 0 -2.217 -0.992 -2.217 -2.217 v 0 c 0 -1.224 0.992 -2.217 2.217 -2.217 h 38.752 c 1.224 0 2.217 0.992 2.217 2.217 v 0 C 66.592 73.797 65.6 74.789 64.376 74.789 z" style="stroke: none; stroke-width: 1; stroke-dasharray: none; stroke-linecap: butt; stroke-linejoin: miter; stroke-miterlimit: 10; fill: rgb(234,234,234); fill-rule: nonzero; opacity: 1;" transform=" matrix(1 0 0 1 0 0) " stroke-linecap="round" />
	<path d="M 64.376 75.789 H 25.624 c -1.773 0 -3.216 -1.442 -3.216 -3.216 s 1.443 -3.217 3.216 -3.217 h 38.752 c 1.773 0 3.217 1.442 3.217 3.216 S 66.149 75.789 64.376 75.789 z M 25.624 71.356 c -0.671 0 -1.216 0.546 -1.216 1.216 c 0 0.671 0.545 1.217 1.216 1.217 h 38.752 c 0.671 0 1.217 -0.546 1.217 -1.216 c 0 -0.671 -0.546 -1.217 -1.217 -1.217 H 25.624 z" style="stroke: none; stroke-width: 1; stroke-dasharray: none; stroke-linecap: butt; stroke-linejoin: miter; stroke-miterlimit: 10; fill: rgb(29,29,27); fill-rule: nonzero; opacity: 1;" transform=" matrix(1 0 0 1 0 0) " stroke-linecap="round" />
	<path d="M 64.376 19.894 H 25.624 c -1.224 0 -2.217 -0.992 -2.217 -2.217 v 0 c 0 -1.224 0.992 -2.217 2.217 -2.217 h 38.752 c 1.224 0 2.217 0.992 2.217 2.217 v 0 C 66.592 18.901 65.6 19.894 64.376 19.894 z" style="stroke: none; stroke-width: 1; stroke-dasharray: none; stroke-linecap: butt; stroke-linejoin: miter; stroke-miterlimit: 10; fill: rgb(234,234,234); fill-rule: nonzero; opacity: 1;" transform=" matrix(1 0 0 1 0 0) " stroke-linecap="round" />
	<path d="M 64.376 20.894 H 25.624 c -1.773 0 -3.216 -1.443 -3.216 -3.216 c 0 -1.774 1.443 -3.217 3.216 -3.217 h 38.752 c 1.773 0 3.217 1.443 3.217 3.217 C 67.593 19.451 66.149 20.894 64.376 20.894 z M 25.624 16.46 c -0.671 0 -1.216 0.546 -1.216 1.217 s 0.545 1.216 1.216 1.216 h 38.752 c 0.671 0 1.217 -0.545 1.217 -1.216 s -0.546 -1.217 -1.217 -1.217 H 25.624 z" style="stroke: none; stroke-width: 1; stroke-dasharray: none; stroke-linecap: butt; stroke-linejoin: miter; stroke-miterlimit: 10; fill: rgb(29,29,27); fill-rule: nonzero; opacity: 1;" transform=" matrix(1 0 0 1 0 0) " stroke-linecap="round" />
	<circle cx="31.534" cy="61.934" r="2.314" style="stroke: none; stroke-width: 1; stroke-dasharray: none; stroke-linecap: butt; stroke-linejoin: miter; stroke-miterlimit: 10; fill: rgb(245,216,130); fill-rule: nonzero; opacity: 1;" transform="  matrix(1 0 0 1 0 0) "/>
	<path d="M 31.535 65.244 c -1.827 0 -3.314 -1.487 -3.314 -3.314 s 1.487 -3.314 3.314 -3.314 s 3.314 1.487 3.314 3.314 S 33.362 65.244 31.535 65.244 z M 31.535 60.615 c -0.725 0 -1.314 0.59 -1.314 1.314 s 0.589 1.314 1.314 1.314 s 1.314 -0.59 1.314 -1.314 S 32.26 60.615 31.535 60.615 z" style="stroke: none; stroke-width: 1; stroke-dasharray: none; stroke-linecap: butt; stroke-linejoin: miter; stroke-miterlimit: 10; fill: rgb(29,29,27); fill-rule: nonzero; opacity: 1;" transform=" matrix(1 0 0 1 0 0) " stroke-linecap="round" />
	<circle cx="38.264" cy="53.384" r="2.314" style="stroke: none; stroke-width: 1; stroke-dasharray: none; stroke-linecap: butt; stroke-linejoin: miter; stroke-miterlimit: 10; fill: rgb(245,216,130); fill-rule: nonzero; opacity: 1;" transform="  matrix(1 0 0 1 0 0) "/>
	<path d="M 38.268 56.698 c -1.827 0 -3.314 -1.486 -3.314 -3.313 s 1.487 -3.314 3.314 -3.314 s 3.314 1.487 3.314 3.314 S 40.095 56.698 38.268 56.698 z M 38.268 52.07 c -0.725 0 -1.314 0.59 -1.314 1.314 s 0.589 1.313 1.314 1.313 s 1.314 -0.589 1.314 -1.313 S 38.992 52.07 38.268 52.07 z" style="stroke: none; stroke-width: 1; stroke-dasharray: none; stroke-linecap: butt; stroke-linejoin: miter; stroke-miterlimit: 10; fill: rgb(29,29,27); fill-rule: nonzero; opacity: 1;" transform=" matrix(1 0 0 1 0 0) " stroke-linecap="round" />
	<circle cx="45.004" cy="44.844" r="2.314" style="stroke: none; stroke-width: 1; stroke-dasharray: none; stroke-linecap: butt; stroke-linejoin: miter; stroke-miterlimit: 10; fill: rgb(245,216,130); fill-rule: nonzero; opacity: 1;" transform="  matrix(1 0 0 1 0 0) "/>
	<path d="M 45 48.153 c -1.827 0 -3.314 -1.486 -3.314 -3.314 c 0 -1.827 1.487 -3.314 3.314 -3.314 s 3.314 1.487 3.314 3.314 C 48.314 46.667 46.827 48.153 45 48.153 z M 45 43.525 c -0.725 0 -1.314 0.589 -1.314 1.314 s 0.589 1.314 1.314 1.314 s 1.314 -0.589 1.314 -1.314 S 45.725 43.525 45 43.525 z" style="stroke: none; stroke-width: 1; stroke-dasharray: none; stroke-linecap: butt; stroke-linejoin: miter; stroke-miterlimit: 10; fill: rgb(29,29,27); fill-rule: nonzero; opacity: 1;" transform=" matrix(1 0 0 1 0 0) " stroke-linecap="round" />
	<circle cx="51.734" cy="36.294" r="2.314" style="stroke: none; stroke-width: 1; stroke-dasharray: none; stroke-linecap: butt; stroke-linejoin: miter; stroke-miterlimit: 10; fill: rgb(245,216,130); fill-rule: nonzero; opacity: 1;" transform="  matrix(1 0 0 1 0 0) "/>
	<path d="M 51.732 39.608 c -1.827 0 -3.313 -1.487 -3.313 -3.314 s 1.486 -3.314 3.313 -3.314 s 3.314 1.487 3.314 3.314 S 53.56 39.608 51.732 39.608 z M 51.732 34.98 c -0.725 0 -1.313 0.589 -1.313 1.314 s 0.589 1.314 1.313 1.314 s 1.314 -0.589 1.314 -1.314 S 52.457 34.98 51.732 34.98 z" style="stroke: none; stroke-width: 1; stroke-dasharray: none; stroke-linecap: butt; stroke-linejoin: miter; stroke-miterlimit: 10; fill: rgb(29,29,27); fill-rule: nonzero; opacity: 1;" transform=" matrix(1 0 0 1 0 0) " stroke-linecap="round" />
	<circle cx="58.464" cy="27.744" r="2.314" style="stroke: none; stroke-width: 1; stroke-dasharray: none; stroke-linecap: butt; stroke-linejoin: miter; stroke-miterlimit: 10; fill: rgb(245,216,130); fill-rule: nonzero; opacity: 1;" transform="  matrix(1 0 0 1 0 0) "/>
	<path d="M 58.465 31.063 c -1.827 0 -3.313 -1.487 -3.313 -3.314 s 1.486 -3.314 3.313 -3.314 s 3.314 1.487 3.314 3.314 S 60.292 31.063 58.465 31.063 z M 58.465 26.436 c -0.725 0 -1.313 0.589 -1.313 1.314 s 0.589 1.314 1.313 1.314 s 1.314 -0.589 1.314 -1.314 S 59.189 26.436 58.465 26.436 z" style="stroke: none; stroke-width: 1; stroke-dasharray: none; stroke-linecap: butt; stroke-linejoin: miter; stroke-miterlimit: 10; fill: rgb(29,29,27); fill-rule: nonzero; opacity: 1;" transform=" matrix(1 0 0 1 0 0) " stroke-linecap="round" />
</g>
</svg>