<?xml version="1.0" encoding="UTF-8" standalone="no" ?>
<!DOCTYPE svg PUBLIC "-//W3C//DTD SVG 1.1//EN" "http://www.w3.org/Graphics/SVG/1.1/DTD/svg11.dtd">
<svg xmlns="http://www.w3.org/2000/svg" xmlns:xlink="http://www.w3.org/1999/xlink" version="1.1" width="350" height="350" viewBox="0 0 350 350" xml:space="preserve">
<desc>Created with Fabric.js 1.7.22</desc>
<defs>
</defs>
<g id="icon" style="stroke: none; stroke-width: 1; stroke-dasharray: none; stroke-linecap: butt; stroke-linejoin: miter; stroke-miterlimit: 10; fill: none; fill-rule: nonzero; opacity: 1;" transform="translate(-1.9444444444444287 -1.9444444444444287) scale(3.89 3.89)" >
	<path d="M 54.704 89 H 35.296 c -2.109 0 -3.819 -1.71 -3.819 -3.819 V 10.752 c 0 -2.109 1.71 -3.819 3.819 -3.819 h 19.408 c 2.109 0 3.819 1.71 3.819 3.819 v 74.429 C 58.523 87.29 56.813 89 54.704 89 z" style="stroke: none; stroke-width: 1; stroke-dasharray: none; stroke-linecap: butt; stroke-linejoin: miter; stroke-miterlimit: 10; fill: rgb(172,167,167); fill-rule: nonzero; opacity: 1;" transform=" matrix(1 0 0 1 0 0) " stroke-linecap="round" />
	<path d="M 54.704 90 H 35.296 c -2.657 0 -4.818 -2.161 -4.818 -4.818 V 10.752 c 0 -2.657 2.162 -4.819 4.818 -4.819 h 19.408 c 2.657 0 4.818 2.162 4.818 4.819 v 74.429 C 59.522 87.839 57.361 90 54.704 90 z M 35.296 7.934 c -1.554 0 -2.818 1.265 -2.818 2.819 v 74.429 c 0 1.554 1.264 2.818 2.818 2.818 h 19.408 c 1.554 0 2.818 -1.265 2.818 -2.818 V 10.752 c 0 -1.554 -1.265 -2.819 -2.818 -2.819 H 35.296 z" style="stroke: none; stroke-width: 1; stroke-dasharray: none; stroke-linecap: butt; stroke-linejoin: miter; stroke-miterlimit: 10; fill: rgb(0,0,0); fill-rule: nonzero; opacity: 1;" transform=" matrix(1 0 0 1 0 0) " stroke-linecap="round" />
	<path d="M 50.88 82.164 H 39.12 c -11.48 0 -20.787 -9.307 -20.787 -20.787 V 34.556 c 0 -11.48 9.307 -20.787 20.787 -20.787 H 50.88 c 11.48 0 20.787 9.307 20.787 20.787 v 26.821 C 71.666 72.858 62.36 82.164 50.88 82.164 z" style="stroke: none; stroke-width: 1; stroke-dasharray: none; stroke-linecap: butt; stroke-linejoin: miter; stroke-miterlimit: 10; fill: rgb(243,83,58); fill-rule: nonzero; opacity: 1;" transform=" matrix(1 0 0 1 0 0) " stroke-linecap="round" />
	<path d="M 50.88 83.164 H 39.121 c -12.014 0 -21.787 -9.773 -21.787 -21.786 V 34.556 c 0 -12.013 9.773 -21.787 21.787 -21.787 H 50.88 c 12.013 0 21.786 9.773 21.786 21.787 v 26.822 C 72.666 73.391 62.893 83.164 50.88 83.164 z M 39.121 14.77 c -10.911 0 -19.787 8.876 -19.787 19.787 v 26.822 c 0 10.91 8.876 19.786 19.787 19.786 H 50.88 c 10.91 0 19.786 -8.876 19.786 -19.786 V 34.556 c 0 -10.91 -8.876 -19.787 -19.786 -19.787 H 39.121 z" style="stroke: none; stroke-width: 1; stroke-dasharray: none; stroke-linecap: butt; stroke-linejoin: miter; stroke-miterlimit: 10; fill: rgb(0,0,0); fill-rule: nonzero; opacity: 1;" transform=" matrix(1 0 0 1 0 0) " stroke-linecap="round" />
	<path d="M 71.666 49.692 H 18.333 c -0.552 0 -1 -0.447 -1 -1 s 0.448 -1 1 -1 h 53.333 c 0.553 0 1 0.447 1 1 S 72.219 49.692 71.666 49.692 z" style="stroke: none; stroke-width: 1; stroke-dasharray: none; stroke-linecap: butt; stroke-linejoin: miter; stroke-miterlimit: 10; fill: rgb(0,0,0); fill-rule: nonzero; opacity: 1;" transform=" matrix(1 0 0 1 0 0) " stroke-linecap="round" />
	<path d="M 71.666 37.896 H 18.333 c -0.552 0 -1 -0.448 -1 -1 s 0.448 -1 1 -1 h 53.333 c 0.553 0 1 0.448 1 1 S 72.219 37.896 71.666 37.896 z" style="stroke: none; stroke-width: 1; stroke-dasharray: none; stroke-linecap: butt; stroke-linejoin: miter; stroke-miterlimit: 10; fill: rgb(0,0,0); fill-rule: nonzero; opacity: 1;" transform=" matrix(1 0 0 1 0 0) " stroke-linecap="round" />
	<path d="M 71.666 61.489 H 18.333 c -0.552 0 -1 -0.447 -1 -1 s 0.448 -1 1 -1 h 53.333 c 0.553 0 1 0.447 1 1 S 72.219 61.489 71.666 61.489 z" style="stroke: none; stroke-width: 1; stroke-dasharray: none; stroke-linecap: butt; stroke-linejoin: miter; stroke-miterlimit: 10; fill: rgb(0,0,0); fill-rule: nonzero; opacity: 1;" transform=" matrix(1 0 0 1 0 0) " stroke-linecap="round" />
	<path d="M 68.574 73.285 H 21.426 c -0.552 0 -1 -0.447 -1 -1 s 0.448 -1 1 -1 h 47.148 c 0.553 0 1 0.447 1 1 S 69.127 73.285 68.574 73.285 z" style="stroke: none; stroke-width: 1; stroke-dasharray: none; stroke-linecap: butt; stroke-linejoin: miter; stroke-miterlimit: 10; fill: rgb(0,0,0); fill-rule: nonzero; opacity: 1;" transform=" matrix(1 0 0 1 0 0) " stroke-linecap="round" />
	<path d="M 69.393 26.099 H 20.61 c -0.552 0 -1 -0.448 -1 -1 s 0.448 -1 1 -1 h 48.783 c 0.553 0 1 0.448 1 1 S 69.945 26.099 69.393 26.099 z" style="stroke: none; stroke-width: 1; stroke-dasharray: none; stroke-linecap: butt; stroke-linejoin: miter; stroke-miterlimit: 10; fill: rgb(0,0,0); fill-rule: nonzero; opacity: 1;" transform=" matrix(1 0 0 1 0 0) " stroke-linecap="round" />
	<path d="M 45 7.934 c -0.552 0 -1 -0.448 -1 -1 V 1 c 0 -0.552 0.448 -1 1 -1 s 1 0.448 1 1 v 5.934 C 46 7.486 45.552 7.934 45 7.934 z" style="stroke: none; stroke-width: 1; stroke-dasharray: none; stroke-linecap: butt; stroke-linejoin: miter; stroke-miterlimit: 10; fill: rgb(0,0,0); fill-rule: nonzero; opacity: 1;" transform=" matrix(1 0 0 1 0 0) " stroke-linecap="round" />
</g>
</svg>