<?xml version="1.0" encoding="UTF-8" standalone="no" ?>
<!DOCTYPE svg PUBLIC "-//W3C//DTD SVG 1.1//EN" "http://www.w3.org/Graphics/SVG/1.1/DTD/svg11.dtd">
<svg xmlns="http://www.w3.org/2000/svg" xmlns:xlink="http://www.w3.org/1999/xlink" version="1.1" width="350" height="350" viewBox="0 0 350 350" xml:space="preserve">
<desc>Created with Fabric.js 1.7.22</desc>
<defs>
</defs>
<g id="icon" style="stroke: none; stroke-width: 1; stroke-dasharray: none; stroke-linecap: butt; stroke-linejoin: miter; stroke-miterlimit: 10; fill: none; fill-rule: nonzero; opacity: 1;" transform="translate(-1.9444444444444287 -1.9444444444444287) scale(3.89 3.89)" >
	<rect x="1" y="58.4" rx="0" ry="0" width="88" height="10.48" style="stroke: none; stroke-width: 1; stroke-dasharray: none; stroke-linecap: butt; stroke-linejoin: miter; stroke-miterlimit: 10; fill: rgb(243,181,137); fill-rule: nonzero; opacity: 1;" transform=" matrix(1 0 0 1 0 0) "/>
	<path d="M 18.68 68.876 v 4.068 c 0 2.21 -1.792 4.002 -4.002 4.002 h -3.65 c -2.21 0 -4.002 -1.792 -4.002 -4.002 v -4.068 H 18.68 z" style="stroke: none; stroke-width: 1; stroke-dasharray: none; stroke-linecap: butt; stroke-linejoin: miter; stroke-miterlimit: 10; fill: rgb(243,181,137); fill-rule: nonzero; opacity: 1;" transform=" matrix(1 0 0 1 0 0) " stroke-linecap="round" />
	<path d="M 82.973 68.876 v 4.068 c 0 2.21 -1.792 4.002 -4.002 4.002 h -3.65 c -2.21 0 -4.002 -1.792 -4.002 -4.002 v -4.068 H 82.973 z" style="stroke: none; stroke-width: 1; stroke-dasharray: none; stroke-linecap: butt; stroke-linejoin: miter; stroke-miterlimit: 10; fill: rgb(243,181,137); fill-rule: nonzero; opacity: 1;" transform=" matrix(1 0 0 1 0 0) " stroke-linecap="round" />
	<path d="M 89 69.876 H 1 c -0.552 0 -1 -0.447 -1 -1 v -10.48 c 0 -0.553 0.448 -1 1 -1 h 88 c 0.553 0 1 0.447 1 1 v 10.48 C 90 69.429 89.553 69.876 89 69.876 z M 2 67.876 h 86 v -8.48 H 2 V 67.876 z" style="stroke: none; stroke-width: 1; stroke-dasharray: none; stroke-linecap: butt; stroke-linejoin: miter; stroke-miterlimit: 10; fill: rgb(29,29,27); fill-rule: nonzero; opacity: 1;" transform=" matrix(1 0 0 1 0 0) " stroke-linecap="round" />
	<path d="M 14.679 77.945 h -3.65 c -2.758 0 -5.001 -2.244 -5.001 -5.002 v -4.067 c 0 -0.553 0.448 -1 1 -1 H 18.68 c 0.552 0 1 0.447 1 1 v 4.067 C 19.68 75.701 17.437 77.945 14.679 77.945 z M 8.027 69.876 v 3.067 c 0 1.655 1.347 3.002 3.001 3.002 h 3.65 c 1.655 0 3.001 -1.347 3.001 -3.002 v -3.067 H 8.027 z" style="stroke: none; stroke-width: 1; stroke-dasharray: none; stroke-linecap: butt; stroke-linejoin: miter; stroke-miterlimit: 10; fill: rgb(29,29,27); fill-rule: nonzero; opacity: 1;" transform=" matrix(1 0 0 1 0 0) " stroke-linecap="round" />
	<path d="M 78.971 77.945 h -3.649 c -2.758 0 -5.002 -2.244 -5.002 -5.002 v -4.067 c 0 -0.553 0.447 -1 1 -1 h 11.653 c 0.553 0 1 0.447 1 1 v 4.067 C 83.973 75.701 81.729 77.945 78.971 77.945 z M 72.319 69.876 v 3.067 c 0 1.655 1.347 3.002 3.002 3.002 h 3.649 c 1.655 0 3.002 -1.347 3.002 -3.002 v -3.067 H 72.319 z" style="stroke: none; stroke-width: 1; stroke-dasharray: none; stroke-linecap: butt; stroke-linejoin: miter; stroke-miterlimit: 10; fill: rgb(29,29,27); fill-rule: nonzero; opacity: 1;" transform=" matrix(1 0 0 1 0 0) " stroke-linecap="round" />
	<path d="M 19.946 51.99 v 4.386 c 0 1.133 -0.919 2.052 -2.052 2.052 h -6.657 c -1.133 0 -2.052 -0.919 -2.052 -2.052 V 51.99 H 19.946 z" style="stroke: none; stroke-width: 1; stroke-dasharray: none; stroke-linecap: butt; stroke-linejoin: miter; stroke-miterlimit: 10; fill: rgb(243,83,58); fill-rule: nonzero; opacity: 1;" transform=" matrix(1 0 0 1 0 0) " stroke-linecap="round" />
	<path d="M 17.894 59.428 h -6.657 c -1.683 0 -3.052 -1.369 -3.052 -3.052 v -4.387 c 0 -0.553 0.448 -1 1 -1 h 10.761 c 0.552 0 1 0.447 1 1 v 4.387 C 20.946 58.059 19.577 59.428 17.894 59.428 z M 10.185 52.989 v 3.387 c 0 0.58 0.472 1.052 1.052 1.052 h 6.657 c 0.58 0 1.052 -0.472 1.052 -1.052 v -3.387 H 10.185 z" style="stroke: none; stroke-width: 1; stroke-dasharray: none; stroke-linecap: butt; stroke-linejoin: miter; stroke-miterlimit: 10; fill: rgb(29,29,27); fill-rule: nonzero; opacity: 1;" transform=" matrix(1 0 0 1 0 0) " stroke-linecap="round" />
	<path d="M 18.725 53.694 h -8.319 c -1.185 0 -2.271 -0.661 -2.815 -1.713 l -5.097 -9.856 h 24.144 L 21.54 51.98 C 20.995 53.033 19.91 53.694 18.725 53.694 z" style="stroke: none; stroke-width: 1; stroke-dasharray: none; stroke-linecap: butt; stroke-linejoin: miter; stroke-miterlimit: 10; fill: rgb(255,108,82); fill-rule: nonzero; opacity: 1;" transform=" matrix(1 0 0 1 0 0) " stroke-linecap="round" />
	<path d="M 18.725 54.693 h -8.319 c -1.565 0 -2.984 -0.863 -3.703 -2.254 l -5.097 -9.855 c -0.16 -0.31 -0.147 -0.681 0.034 -0.979 c 0.181 -0.298 0.505 -0.48 0.854 -0.48 h 24.144 c 0.349 0 0.673 0.182 0.854 0.48 c 0.182 0.298 0.194 0.669 0.034 0.979 l -5.098 9.855 C 21.709 53.83 20.29 54.693 18.725 54.693 z M 4.136 43.125 l 4.342 8.397 c 0.374 0.723 1.112 1.172 1.927 1.172 h 8.319 c 0.814 0 1.553 -0.449 1.927 -1.172 l 4.343 -8.397 H 4.136 z" style="stroke: none; stroke-width: 1; stroke-dasharray: none; stroke-linecap: butt; stroke-linejoin: miter; stroke-miterlimit: 10; fill: rgb(29,29,27); fill-rule: nonzero; opacity: 1;" transform=" matrix(1 0 0 1 0 0) " stroke-linecap="round" />
	<path d="M 65.574 22.175 c 0 -5.037 -4.083 -9.12 -9.12 -9.12 s -9.12 4.083 -9.12 9.12 H 65.574 z" style="stroke: none; stroke-width: 1; stroke-dasharray: none; stroke-linecap: butt; stroke-linejoin: miter; stroke-miterlimit: 10; fill: rgb(243,83,58); fill-rule: nonzero; opacity: 1;" transform=" matrix(1 0 0 1 0 0) " stroke-linecap="round" />
	<path d="M 65.573 23.175 H 47.334 c -0.553 0 -1 -0.448 -1 -1 c 0 -5.58 4.539 -10.12 10.119 -10.12 s 10.12 4.54 10.12 10.12 C 66.573 22.727 66.126 23.175 65.573 23.175 z M 48.396 21.175 h 16.116 c -0.494 -4.007 -3.92 -7.12 -8.059 -7.12 S 48.89 17.167 48.396 21.175 z" style="stroke: none; stroke-width: 1; stroke-dasharray: none; stroke-linecap: butt; stroke-linejoin: miter; stroke-miterlimit: 10; fill: rgb(29,29,27); fill-rule: nonzero; opacity: 1;" transform=" matrix(1 0 0 1 0 0) " stroke-linecap="round" />
	<path d="M 69.515 23.281 L 69.515 23.281 c 0 2.102 -1.704 3.805 -3.805 3.805 H 47.197 c -2.102 0 -3.805 -1.704 -3.805 -3.805 v 0 c 0 -2.102 1.704 -3.805 3.805 -3.805 H 65.71 C 67.812 19.476 69.515 21.18 69.515 23.281 z" style="stroke: none; stroke-width: 1; stroke-dasharray: none; stroke-linecap: butt; stroke-linejoin: miter; stroke-miterlimit: 10; fill: rgb(243,83,58); fill-rule: nonzero; opacity: 1;" transform=" matrix(1 0 0 1 0 0) " stroke-linecap="round" />
	<path d="M 65.71 28.087 H 47.197 c -2.649 0 -4.805 -2.156 -4.805 -4.806 c 0 -2.649 2.156 -4.805 4.805 -4.805 H 65.71 c 2.649 0 4.806 2.156 4.806 4.805 C 70.516 25.931 68.359 28.087 65.71 28.087 z M 47.197 20.476 c -1.547 0 -2.805 1.258 -2.805 2.805 s 1.258 2.806 2.805 2.806 H 65.71 c 1.547 0 2.806 -1.259 2.806 -2.806 s -1.259 -2.805 -2.806 -2.805 H 47.197 z" style="stroke: none; stroke-width: 1; stroke-dasharray: none; stroke-linecap: butt; stroke-linejoin: miter; stroke-miterlimit: 10; fill: rgb(29,29,27); fill-rule: nonzero; opacity: 1;" transform=" matrix(1 0 0 1 0 0) " stroke-linecap="round" />
	<path d="M 69.515 50.845 v 4.706 c 0 1.604 -1.3 2.905 -2.905 2.905 H 46.297 c -1.604 0 -2.905 -1.3 -2.905 -2.905 v -4.706 H 69.515 z" style="stroke: none; stroke-width: 1; stroke-dasharray: none; stroke-linecap: butt; stroke-linejoin: miter; stroke-miterlimit: 10; fill: rgb(243,83,58); fill-rule: nonzero; opacity: 1;" transform=" matrix(1 0 0 1 0 0) " stroke-linecap="round" />
	<path d="M 66.61 59.456 H 46.297 c -2.153 0 -3.905 -1.751 -3.905 -3.904 v -4.706 c 0 -0.553 0.448 -1 1 -1 h 26.124 c 0.553 0 1 0.447 1 1 v 4.706 C 70.516 57.705 68.764 59.456 66.61 59.456 z M 44.392 51.846 v 3.706 c 0 1.05 0.854 1.904 1.905 1.904 H 66.61 c 1.051 0 1.905 -0.854 1.905 -1.904 v -3.706 H 44.392 z" style="stroke: none; stroke-width: 1; stroke-dasharray: none; stroke-linecap: butt; stroke-linejoin: miter; stroke-miterlimit: 10; fill: rgb(29,29,27); fill-rule: nonzero; opacity: 1;" transform=" matrix(1 0 0 1 0 0) " stroke-linecap="round" />
	<path d="M 78.919 45.496 H 68.73 c -0.553 0 -1 -0.448 -1 -1 s 0.447 -1 1 -1 h 10.188 c 4.184 0 7.588 -3.404 7.588 -7.587 v -0.728 c 0 -4.184 -3.404 -7.588 -7.588 -7.588 H 68.73 c -0.553 0 -1 -0.448 -1 -1 s 0.447 -1 1 -1 h 10.188 c 5.287 0 9.588 4.301 9.588 9.588 v 0.728 C 88.507 41.195 84.206 45.496 78.919 45.496 z" style="stroke: none; stroke-width: 1; stroke-dasharray: none; stroke-linecap: butt; stroke-linejoin: miter; stroke-miterlimit: 10; fill: rgb(29,29,27); fill-rule: nonzero; opacity: 1;" transform=" matrix(1 0 0 1 0 0) " stroke-linecap="round" />
	<path d="M 64.501 24.443 H 48.407 c -4.05 0 -7.671 1.811 -10.119 4.659 c -5.947 -0.202 -7.485 -6.662 -15.11 -8.478 v 5.119 c 6.047 3.089 8.26 10.398 11.882 13.576 v 0.812 c 0 7.371 5.976 13.347 13.347 13.347 h 16.094 c 7.371 0 13.347 -5.976 13.347 -13.347 V 37.79 C 77.847 30.419 71.872 24.443 64.501 24.443 z" style="stroke: none; stroke-width: 1; stroke-dasharray: none; stroke-linecap: butt; stroke-linejoin: miter; stroke-miterlimit: 10; fill: rgb(255,108,82); fill-rule: nonzero; opacity: 1;" transform=" matrix(1 0 0 1 0 0) " stroke-linecap="round" />
	<path d="M 64.501 54.479 H 48.406 c -7.911 0 -14.347 -6.437 -14.347 -14.347 v -0.373 c -1.343 -1.291 -2.481 -3.049 -3.68 -4.903 c -1.954 -3.018 -4.167 -6.439 -7.657 -8.221 c -0.334 -0.171 -0.545 -0.515 -0.545 -0.891 v -5.119 c 0 -0.306 0.14 -0.595 0.38 -0.785 c 0.24 -0.19 0.552 -0.261 0.851 -0.188 c 4.04 0.961 6.456 3.129 8.587 5.042 c 1.944 1.745 3.504 3.145 5.869 3.378 c 2.718 -2.948 6.531 -4.629 10.541 -4.629 h 16.095 c 7.911 0 14.347 6.436 14.347 14.347 v 2.341 C 78.848 48.042 72.412 54.479 64.501 54.479 z M 24.178 25.147 c 3.643 2.073 5.888 5.543 7.88 8.621 c 1.222 1.889 2.376 3.672 3.661 4.799 c 0.216 0.189 0.34 0.463 0.34 0.751 v 0.812 c 0 6.808 5.539 12.347 12.347 12.347 h 16.095 c 6.808 0 12.347 -5.539 12.347 -12.347 V 37.79 c 0 -6.808 -5.539 -12.347 -12.347 -12.347 H 48.406 c -3.594 0 -7.005 1.571 -9.36 4.311 c -0.198 0.229 -0.484 0.358 -0.792 0.348 c -3.354 -0.114 -5.413 -1.962 -7.594 -3.919 c -1.801 -1.616 -3.655 -3.28 -6.483 -4.233 V 25.147 z" style="stroke: none; stroke-width: 1; stroke-dasharray: none; stroke-linecap: butt; stroke-linejoin: miter; stroke-miterlimit: 10; fill: rgb(29,29,27); fill-rule: nonzero; opacity: 1;" transform=" matrix(1 0 0 1 0 0) " stroke-linecap="round" />
</g>
</svg>