<?xml version="1.0" encoding="UTF-8" standalone="no" ?>
<!DOCTYPE svg PUBLIC "-//W3C//DTD SVG 1.1//EN" "http://www.w3.org/Graphics/SVG/1.1/DTD/svg11.dtd">
<svg xmlns="http://www.w3.org/2000/svg" xmlns:xlink="http://www.w3.org/1999/xlink" version="1.1" width="350" height="350" viewBox="0 0 350 350" xml:space="preserve">
<desc>Created with Fabric.js 1.7.22</desc>
<defs>
</defs>
<g id="icon" style="stroke: none; stroke-width: 1; stroke-dasharray: none; stroke-linecap: butt; stroke-linejoin: miter; stroke-miterlimit: 10; fill: none; fill-rule: nonzero; opacity: 1;" transform="translate(-1.9444444444444287 -1.9444444444444287) scale(3.89 3.89)" >
	<polygon points="62,33.91 31.54,5.2 33.9,40.93 " style="stroke: none; stroke-width: 1; stroke-dasharray: none; stroke-linecap: butt; stroke-linejoin: miter; stroke-miterlimit: 10; fill: rgb(234,234,234); fill-rule: nonzero; opacity: 1;" transform="  matrix(1 0 0 1 0 0) "/>
	<path d="M 33.899 41.928 c -0.209 0 -0.417 -0.066 -0.589 -0.192 c -0.239 -0.175 -0.389 -0.446 -0.409 -0.742 L 30.543 5.27 c -0.027 -0.41 0.2 -0.795 0.572 -0.971 c 0.372 -0.174 0.813 -0.104 1.112 0.177 l 30.456 28.705 c 0.267 0.25 0.374 0.626 0.282 0.98 c -0.093 0.354 -0.371 0.628 -0.726 0.717 l -28.098 7.019 C 34.062 41.918 33.98 41.928 33.899 41.928 z M 32.707 7.677 l 2.112 31.991 l 25.162 -6.285 L 32.707 7.677 z" style="stroke: none; stroke-width: 1; stroke-dasharray: none; stroke-linecap: butt; stroke-linejoin: miter; stroke-miterlimit: 10; fill: rgb(29,29,27); fill-rule: nonzero; opacity: 1;" transform=" matrix(1 0 0 1 0 0) " stroke-linecap="round" />
	<polygon points="15.95,84.8 44.05,77.42 32.69,58.3 " style="stroke: none; stroke-width: 1; stroke-dasharray: none; stroke-linecap: butt; stroke-linejoin: miter; stroke-miterlimit: 10; fill: rgb(234,234,234); fill-rule: nonzero; opacity: 1;" transform="  matrix(1 0 0 1 0 0) "/>
	<polygon points="44.05,77.42 23.72,43.19 51.82,36.17 " style="stroke: none; stroke-width: 1; stroke-dasharray: none; stroke-linecap: butt; stroke-linejoin: miter; stroke-miterlimit: 10; fill: rgb(234,234,234); fill-rule: nonzero; opacity: 1;" transform="  matrix(1 0 0 1 0 0) "/>
	<polygon points="51.82,36.17 1,17.65 23.72,43.19 " style="stroke: none; stroke-width: 1; stroke-dasharray: none; stroke-linecap: butt; stroke-linejoin: miter; stroke-miterlimit: 10; fill: rgb(234,234,234); fill-rule: nonzero; opacity: 1;" transform="  matrix(1 0 0 1 0 0) "/>
	<polygon points="44.05,77.42 68.2,52.79 51.82,36.17 " style="stroke: none; stroke-width: 1; stroke-dasharray: none; stroke-linecap: butt; stroke-linejoin: miter; stroke-miterlimit: 10; fill: rgb(234,234,234); fill-rule: nonzero; opacity: 1;" transform="  matrix(1 0 0 1 0 0) "/>
	<polygon points="51.82,36.17 71.69,15.99 68.2,52.79 " style="stroke: none; stroke-width: 1; stroke-dasharray: none; stroke-linecap: butt; stroke-linejoin: miter; stroke-miterlimit: 10; fill: rgb(234,234,234); fill-rule: nonzero; opacity: 1;" transform="  matrix(1 0 0 1 0 0) "/>
	<polygon points="71.69,15.99 89,32.41 70.13,32.41 " style="stroke: none; stroke-width: 1; stroke-dasharray: none; stroke-linecap: butt; stroke-linejoin: miter; stroke-miterlimit: 10; fill: rgb(234,234,234); fill-rule: nonzero; opacity: 1;" transform="  matrix(1 0 0 1 0 0) "/>
	<path d="M 15.95 85.796 c -0.314 0 -0.616 -0.148 -0.807 -0.409 c -0.243 -0.331 -0.258 -0.777 -0.039 -1.125 l 16.738 -26.501 c 0.186 -0.293 0.518 -0.443 0.859 -0.466 c 0.348 0.005 0.668 0.19 0.846 0.489 l 11.357 19.129 c 0.16 0.271 0.185 0.6 0.065 0.891 c -0.119 0.29 -0.368 0.508 -0.671 0.587 l -28.095 7.372 C 16.12 85.785 16.035 85.796 15.95 85.796 z M 32.662 60.209 L 18.15 83.185 l 24.358 -6.392 L 32.662 60.209 z" style="stroke: none; stroke-width: 1; stroke-dasharray: none; stroke-linecap: butt; stroke-linejoin: miter; stroke-miterlimit: 10; fill: rgb(29,29,27); fill-rule: nonzero; opacity: 1;" transform=" matrix(1 0 0 1 0 0) " stroke-linecap="round" />
	<path d="M 44.045 78.424 c -0.349 0 -0.678 -0.183 -0.86 -0.489 L 22.859 43.701 c -0.161 -0.272 -0.185 -0.604 -0.063 -0.896 c 0.122 -0.292 0.374 -0.509 0.681 -0.585 l 28.097 -7.019 c 0.33 -0.082 0.68 0.008 0.929 0.243 c 0.247 0.234 0.359 0.578 0.296 0.913 l -7.771 41.253 c -0.077 0.408 -0.399 0.727 -0.809 0.799 C 44.161 78.419 44.103 78.424 44.045 78.424 z M 25.265 43.834 l 18.288 30.801 l 6.992 -37.116 L 25.265 43.834 z" style="stroke: none; stroke-width: 1; stroke-dasharray: none; stroke-linecap: butt; stroke-linejoin: miter; stroke-miterlimit: 10; fill: rgb(29,29,27); fill-rule: nonzero; opacity: 1;" transform=" matrix(1 0 0 1 0 0) " stroke-linecap="round" />
	<path d="M 23.719 44.19 c -0.282 0 -0.555 -0.119 -0.747 -0.335 L 0.253 18.311 c -0.305 -0.342 -0.337 -0.848 -0.08 -1.227 c 0.258 -0.379 0.742 -0.533 1.169 -0.377 l 50.817 18.525 c 0.413 0.15 0.679 0.553 0.656 0.992 c -0.023 0.439 -0.33 0.812 -0.757 0.918 L 23.961 44.16 C 23.881 44.18 23.8 44.19 23.719 44.19 z M 4.381 19.943 l 19.683 22.13 l 24.342 -6.081 L 4.381 19.943 z" style="stroke: none; stroke-width: 1; stroke-dasharray: none; stroke-linecap: butt; stroke-linejoin: miter; stroke-miterlimit: 10; fill: rgb(29,29,27); fill-rule: nonzero; opacity: 1;" transform=" matrix(1 0 0 1 0 0) " stroke-linecap="round" />
	<path d="M 44.045 78.424 c -0.157 0 -0.316 -0.037 -0.462 -0.113 c -0.391 -0.204 -0.602 -0.639 -0.521 -1.072 l 7.771 -41.252 c 0.068 -0.366 0.335 -0.663 0.69 -0.771 c 0.358 -0.109 0.743 -0.011 1.004 0.254 L 68.91 52.088 c 0.383 0.389 0.384 1.013 0.002 1.402 L 44.759 78.124 C 44.567 78.32 44.308 78.424 44.045 78.424 z M 52.445 38.234 l -6.807 36.137 l 21.158 -21.579 L 52.445 38.234 z" style="stroke: none; stroke-width: 1; stroke-dasharray: none; stroke-linecap: butt; stroke-linejoin: miter; stroke-miterlimit: 10; fill: rgb(29,29,27); fill-rule: nonzero; opacity: 1;" transform=" matrix(1 0 0 1 0 0) " stroke-linecap="round" />
	<path d="M 68.198 53.79 c -0.263 0 -0.521 -0.104 -0.712 -0.298 L 51.104 36.874 c -0.384 -0.389 -0.384 -1.015 -0.001 -1.404 l 19.875 -20.178 c 0.298 -0.302 0.752 -0.382 1.136 -0.205 c 0.383 0.179 0.612 0.58 0.572 1.001 l -3.493 36.797 c -0.036 0.387 -0.294 0.717 -0.66 0.848 C 68.424 53.771 68.311 53.79 68.198 53.79 z M 53.221 36.171 l 14.185 14.391 l 3.024 -31.863 L 53.221 36.171 z" style="stroke: none; stroke-width: 1; stroke-dasharray: none; stroke-linecap: butt; stroke-linejoin: miter; stroke-miterlimit: 10; fill: rgb(29,29,27); fill-rule: nonzero; opacity: 1;" transform=" matrix(1 0 0 1 0 0) " stroke-linecap="round" />
	<path d="M 89 33.41 H 70.133 c -0.281 0 -0.55 -0.119 -0.74 -0.327 c -0.189 -0.208 -0.282 -0.487 -0.255 -0.768 l 1.559 -16.417 c 0.036 -0.38 0.286 -0.708 0.645 -0.842 c 0.357 -0.133 0.761 -0.053 1.039 0.211 l 17.309 16.417 c 0.297 0.282 0.392 0.716 0.24 1.096 C 89.777 33.161 89.409 33.41 89 33.41 z M 71.232 31.41 h 15.26 L 72.493 18.132 L 71.232 31.41 z" style="stroke: none; stroke-width: 1; stroke-dasharray: none; stroke-linecap: butt; stroke-linejoin: miter; stroke-miterlimit: 10; fill: rgb(29,29,27); fill-rule: nonzero; opacity: 1;" transform=" matrix(1 0 0 1 0 0) " stroke-linecap="round" />
</g>
</svg>