<?xml version="1.0" encoding="UTF-8" standalone="no" ?>
<!DOCTYPE svg PUBLIC "-//W3C//DTD SVG 1.1//EN" "http://www.w3.org/Graphics/SVG/1.1/DTD/svg11.dtd">
<svg xmlns="http://www.w3.org/2000/svg" xmlns:xlink="http://www.w3.org/1999/xlink" version="1.1" width="350" height="350" viewBox="0 0 350 350" xml:space="preserve">
<desc>Created with Fabric.js 1.7.22</desc>
<defs>
</defs>
<g id="icon" style="stroke: none; stroke-width: 1; stroke-dasharray: none; stroke-linecap: butt; stroke-linejoin: miter; stroke-miterlimit: 10; fill: none; fill-rule: nonzero; opacity: 1;" transform="translate(-1.9444444444444287 -1.9444444444444287) scale(3.89 3.89)" >
	<path d="M 68.902 47.057 c -5.46 -2.682 -9.679 -6.304 -12.268 -11.159 H 33.367 c -2.59 4.855 -6.809 8.477 -12.268 11.159 H 68.902 z" style="stroke: none; stroke-width: 1; stroke-dasharray: none; stroke-linecap: butt; stroke-linejoin: miter; stroke-miterlimit: 10; fill: rgb(255,108,82); fill-rule: nonzero; opacity: 1;" transform=" matrix(1 0 0 1 0 0) " stroke-linecap="round" />
	<path d="M 74.877 70.567 c -6.825 -3.353 -12.098 -7.88 -15.336 -13.949 H 30.459 c -3.237 6.069 -8.511 10.596 -15.336 13.949 H 74.877 z" style="stroke: none; stroke-width: 1; stroke-dasharray: none; stroke-linecap: butt; stroke-linejoin: miter; stroke-miterlimit: 10; fill: rgb(255,108,82); fill-rule: nonzero; opacity: 1;" transform=" matrix(1 0 0 1 0 0) " stroke-linecap="round" />
	<rect x="30.46" y="47.06" rx="0" ry="0" width="29.08" height="9.56" style="stroke: none; stroke-width: 1; stroke-dasharray: none; stroke-linecap: butt; stroke-linejoin: miter; stroke-miterlimit: 10; fill: rgb(243,83,58); fill-rule: nonzero; opacity: 1;" transform=" matrix(1 0 0 1 0 0) "/>
	<rect x="33.37" y="26.34" rx="0" ry="0" width="23.27" height="9.56" style="stroke: none; stroke-width: 1; stroke-dasharray: none; stroke-linecap: butt; stroke-linejoin: miter; stroke-miterlimit: 10; fill: rgb(243,83,58); fill-rule: nonzero; opacity: 1;" transform=" matrix(1 0 0 1 0 0) "/>
	<path d="M 27.074 26.338 C 33.752 24.239 43.248 14.659 45 8.776 c 1.752 5.882 11.248 15.462 17.926 17.561 H 27.074" style="stroke: none; stroke-width: 1; stroke-dasharray: none; stroke-linecap: butt; stroke-linejoin: miter; stroke-miterlimit: 10; fill: rgb(255,108,82); fill-rule: nonzero; opacity: 1;" transform=" matrix(1 0 0 1 0 0) " stroke-linecap="round" />
	<rect x="24.88" y="70.57" rx="0" ry="0" width="40.24" height="13.23" style="stroke: none; stroke-width: 1; stroke-dasharray: none; stroke-linecap: butt; stroke-linejoin: miter; stroke-miterlimit: 10; fill: rgb(243,83,58); fill-rule: nonzero; opacity: 1;" transform=" matrix(1 0 0 1 0 0) "/>
	<rect x="15.12" y="83.8" rx="0" ry="0" width="59.75" height="5.2" style="stroke: none; stroke-width: 1; stroke-dasharray: none; stroke-linecap: butt; stroke-linejoin: miter; stroke-miterlimit: 10; fill: rgb(132,132,132); fill-rule: nonzero; opacity: 1;" transform=" matrix(1 0 0 1 0 0) "/>
	<rect x="39.86" y="70.57" rx="0" ry="0" width="10.28" height="13.23" style="stroke: none; stroke-width: 1; stroke-dasharray: none; stroke-linecap: butt; stroke-linejoin: miter; stroke-miterlimit: 10; fill: rgb(207,249,255); fill-rule: nonzero; opacity: 1;" transform=" matrix(1 0 0 1 0 0) "/>
	<rect x="39.86" y="47.06" rx="0" ry="0" width="10.28" height="5.78" style="stroke: none; stroke-width: 1; stroke-dasharray: none; stroke-linecap: butt; stroke-linejoin: miter; stroke-miterlimit: 10; fill: rgb(207,249,255); fill-rule: nonzero; opacity: 1;" transform=" matrix(1 0 0 1 0 0) "/>
	<rect x="39.86" y="26.34" rx="0" ry="0" width="10.28" height="5.78" style="stroke: none; stroke-width: 1; stroke-dasharray: none; stroke-linecap: butt; stroke-linejoin: miter; stroke-miterlimit: 10; fill: rgb(207,249,255); fill-rule: nonzero; opacity: 1;" transform=" matrix(1 0 0 1 0 0) "/>
	<path d="M 68.901 48.058 H 21.099 c -0.465 0 -0.869 -0.32 -0.974 -0.773 c -0.105 -0.453 0.116 -0.919 0.533 -1.124 c 5.564 -2.734 9.433 -6.245 11.827 -10.732 c 0.174 -0.326 0.513 -0.529 0.882 -0.529 h 23.266 c 0.369 0 0.708 0.204 0.882 0.529 c 2.395 4.488 6.264 7.999 11.828 10.732 c 0.417 0.205 0.638 0.671 0.532 1.124 C 69.771 47.737 69.366 48.058 68.901 48.058 z M 24.943 46.058 h 40.114 c -3.953 -2.499 -6.976 -5.567 -9.015 -9.159 H 33.958 C 31.918 40.49 28.896 43.559 24.943 46.058 z" style="stroke: none; stroke-width: 1; stroke-dasharray: none; stroke-linecap: butt; stroke-linejoin: miter; stroke-miterlimit: 10; fill: rgb(29,29,27); fill-rule: nonzero; opacity: 1;" transform=" matrix(1 0 0 1 0 0) " stroke-linecap="round" />
	<path d="M 74.877 71.566 H 15.123 c -0.465 0 -0.869 -0.32 -0.974 -0.773 c -0.105 -0.453 0.116 -0.919 0.533 -1.124 c 7.004 -3.44 11.875 -7.863 14.894 -13.521 c 0.174 -0.326 0.513 -0.529 0.882 -0.529 h 29.083 c 0.369 0 0.708 0.203 0.882 0.529 c 3.019 5.658 7.891 10.081 14.895 13.521 c 0.418 0.205 0.639 0.671 0.533 1.124 C 75.746 71.246 75.342 71.566 74.877 71.566 z M 19.048 69.566 h 51.903 c -5.321 -3.21 -9.348 -7.217 -12.003 -11.948 H 31.051 C 28.396 62.35 24.37 66.355 19.048 69.566 z" style="stroke: none; stroke-width: 1; stroke-dasharray: none; stroke-linecap: butt; stroke-linejoin: miter; stroke-miterlimit: 10; fill: rgb(29,29,27); fill-rule: nonzero; opacity: 1;" transform=" matrix(1 0 0 1 0 0) " stroke-linecap="round" />
	<path d="M 59.541 57.618 H 30.458 c -0.552 0 -1 -0.447 -1 -1 v -9.561 c 0 -0.553 0.448 -1 1 -1 h 29.083 c 0.553 0 1 0.447 1 1 v 9.561 C 60.541 57.171 60.094 57.618 59.541 57.618 z M 31.458 55.618 h 27.083 v -7.561 H 31.458 V 55.618 z" style="stroke: none; stroke-width: 1; stroke-dasharray: none; stroke-linecap: butt; stroke-linejoin: miter; stroke-miterlimit: 10; fill: rgb(29,29,27); fill-rule: nonzero; opacity: 1;" transform=" matrix(1 0 0 1 0 0) " stroke-linecap="round" />
	<path d="M 56.633 36.898 H 33.367 c -0.552 0 -1 -0.448 -1 -1 v -9.561 c 0 -0.552 0.448 -1 1 -1 h 23.266 c 0.553 0 1 0.448 1 1 v 9.561 C 57.633 36.451 57.186 36.898 56.633 36.898 z M 34.367 34.898 h 21.266 v -7.561 H 34.367 V 34.898 z" style="stroke: none; stroke-width: 1; stroke-dasharray: none; stroke-linecap: butt; stroke-linejoin: miter; stroke-miterlimit: 10; fill: rgb(29,29,27); fill-rule: nonzero; opacity: 1;" transform=" matrix(1 0 0 1 0 0) " stroke-linecap="round" />
	<path d="M 62.926 27.337 H 27.074 c -0.494 0 -0.914 -0.36 -0.988 -0.848 c -0.075 -0.488 0.217 -0.958 0.688 -1.106 c 6.182 -1.942 15.542 -11.1 17.268 -16.893 C 44.168 8.066 44.558 7.776 45 7.776 s 0.832 0.291 0.958 0.714 c 1.725 5.793 11.084 14.95 17.267 16.893 c 0.471 0.148 0.764 0.618 0.688 1.106 C 63.839 26.977 63.42 27.337 62.926 27.337 z M 31.49 25.337 h 27.021 C 53.25 22.13 47.501 16.257 45 11.384 C 42.499 16.257 36.75 22.13 31.49 25.337 z" style="stroke: none; stroke-width: 1; stroke-dasharray: none; stroke-linecap: butt; stroke-linejoin: miter; stroke-miterlimit: 10; fill: rgb(29,29,27); fill-rule: nonzero; opacity: 1;" transform=" matrix(1 0 0 1 0 0) " stroke-linecap="round" />
	<path d="M 65.122 84.796 H 24.878 c -0.552 0 -1 -0.447 -1 -1 V 70.566 c 0 -0.553 0.448 -1 1 -1 h 40.244 c 0.553 0 1 0.447 1 1 v 13.229 C 66.122 84.349 65.675 84.796 65.122 84.796 z M 25.878 82.796 h 38.244 V 71.566 H 25.878 V 82.796 z" style="stroke: none; stroke-width: 1; stroke-dasharray: none; stroke-linecap: butt; stroke-linejoin: miter; stroke-miterlimit: 10; fill: rgb(29,29,27); fill-rule: nonzero; opacity: 1;" transform=" matrix(1 0 0 1 0 0) " stroke-linecap="round" />
	<path d="M 74.877 90 H 15.123 c -0.552 0 -1 -0.447 -1 -1 v -5.204 c 0 -0.553 0.448 -1 1 -1 h 59.754 c 0.553 0 1 0.447 1 1 V 89 C 75.877 89.553 75.43 90 74.877 90 z M 16.123 88 h 57.754 v -3.204 H 16.123 V 88 z" style="stroke: none; stroke-width: 1; stroke-dasharray: none; stroke-linecap: butt; stroke-linejoin: miter; stroke-miterlimit: 10; fill: rgb(29,29,27); fill-rule: nonzero; opacity: 1;" transform=" matrix(1 0 0 1 0 0) " stroke-linecap="round" />
	<path d="M 45 9.776 c -0.552 0 -1 -0.448 -1 -1 V 1 c 0 -0.552 0.448 -1 1 -1 s 1 0.448 1 1 v 7.776 C 46 9.328 45.552 9.776 45 9.776 z" style="stroke: none; stroke-width: 1; stroke-dasharray: none; stroke-linecap: butt; stroke-linejoin: miter; stroke-miterlimit: 10; fill: rgb(29,29,27); fill-rule: nonzero; opacity: 1;" transform=" matrix(1 0 0 1 0 0) " stroke-linecap="round" />
	<path d="M 50.138 84.796 H 39.862 c -0.552 0 -1 -0.447 -1 -1 V 70.566 c 0 -0.553 0.448 -1 1 -1 h 10.275 c 0.553 0 1 0.447 1 1 v 13.229 C 51.138 84.349 50.69 84.796 50.138 84.796 z M 40.862 82.796 h 8.275 V 71.566 h -8.275 V 82.796 z" style="stroke: none; stroke-width: 1; stroke-dasharray: none; stroke-linecap: butt; stroke-linejoin: miter; stroke-miterlimit: 10; fill: rgb(29,29,27); fill-rule: nonzero; opacity: 1;" transform=" matrix(1 0 0 1 0 0) " stroke-linecap="round" />
	<path d="M 50.138 53.838 H 39.862 c -0.552 0 -1 -0.447 -1 -1 v -5.78 c 0 -0.553 0.448 -1 1 -1 h 10.275 c 0.553 0 1 0.447 1 1 v 5.78 C 51.138 53.391 50.69 53.838 50.138 53.838 z M 40.862 51.838 h 8.275 v -3.78 h -8.275 V 51.838 z" style="stroke: none; stroke-width: 1; stroke-dasharray: none; stroke-linecap: butt; stroke-linejoin: miter; stroke-miterlimit: 10; fill: rgb(29,29,27); fill-rule: nonzero; opacity: 1;" transform=" matrix(1 0 0 1 0 0) " stroke-linecap="round" />
	<path d="M 50.138 33.118 H 39.862 c -0.552 0 -1 -0.448 -1 -1 v -5.78 c 0 -0.552 0.448 -1 1 -1 h 10.275 c 0.553 0 1 0.448 1 1 v 5.78 C 51.138 32.67 50.69 33.118 50.138 33.118 z M 40.862 31.118 h 8.275 v -3.78 h -8.275 V 31.118 z" style="stroke: none; stroke-width: 1; stroke-dasharray: none; stroke-linecap: butt; stroke-linejoin: miter; stroke-miterlimit: 10; fill: rgb(29,29,27); fill-rule: nonzero; opacity: 1;" transform=" matrix(1 0 0 1 0 0) " stroke-linecap="round" />
</g>
</svg>