<?xml version="1.0" encoding="UTF-8" standalone="no" ?>
<!DOCTYPE svg PUBLIC "-//W3C//DTD SVG 1.1//EN" "http://www.w3.org/Graphics/SVG/1.1/DTD/svg11.dtd">
<svg xmlns="http://www.w3.org/2000/svg" xmlns:xlink="http://www.w3.org/1999/xlink" version="1.1" width="350" height="350" viewBox="0 0 350 350" xml:space="preserve">
<desc>Created with Fabric.js 1.7.22</desc>
<defs>
</defs>
<g id="icon" style="stroke: none; stroke-width: 1; stroke-dasharray: none; stroke-linecap: butt; stroke-linejoin: miter; stroke-miterlimit: 10; fill: none; fill-rule: nonzero; opacity: 1;" transform="translate(-1.9444444444444287 -1.9444444444444287) scale(3.89 3.89)" >
	<rect x="1" y="64.82" rx="0" ry="0" width="88" height="11.53" style="stroke: none; stroke-width: 1; stroke-dasharray: none; stroke-linecap: butt; stroke-linejoin: miter; stroke-miterlimit: 10; fill: rgb(243,181,137); fill-rule: nonzero; opacity: 1;" transform=" matrix(1 0 0 1 0 0) "/>
	<path d="M 20.448 76.346 v 4.475 c 0 2.431 -1.971 4.402 -4.402 4.402 h -4.015 c -2.431 0 -4.402 -1.971 -4.402 -4.402 v -4.475 H 20.448 z" style="stroke: none; stroke-width: 1; stroke-dasharray: none; stroke-linecap: butt; stroke-linejoin: miter; stroke-miterlimit: 10; fill: rgb(243,181,137); fill-rule: nonzero; opacity: 1;" transform=" matrix(1 0 0 1 0 0) " stroke-linecap="round" />
	<path d="M 82.37 76.346 v 4.475 c 0 2.431 -1.971 4.402 -4.402 4.402 h -4.015 c -2.431 0 -4.402 -1.971 -4.402 -4.402 v -4.475 H 82.37 z" style="stroke: none; stroke-width: 1; stroke-dasharray: none; stroke-linecap: butt; stroke-linejoin: miter; stroke-miterlimit: 10; fill: rgb(243,181,137); fill-rule: nonzero; opacity: 1;" transform=" matrix(1 0 0 1 0 0) " stroke-linecap="round" />
	<path d="M 89 77.346 H 1 c -0.552 0 -1 -0.447 -1 -1 V 64.817 c 0 -0.553 0.448 -1 1 -1 h 88 c 0.553 0 1 0.447 1 1 v 11.528 C 90 76.898 89.553 77.346 89 77.346 z M 2 75.346 h 86 v -9.528 H 2 V 75.346 z" style="stroke: none; stroke-width: 1; stroke-dasharray: none; stroke-linecap: butt; stroke-linejoin: miter; stroke-miterlimit: 10; fill: rgb(29,29,27); fill-rule: nonzero; opacity: 1;" transform=" matrix(1 0 0 1 0 0) " stroke-linecap="round" />
	<path d="M 16.047 86.223 h -4.015 c -2.979 0 -5.401 -2.424 -5.401 -5.402 v -4.475 c 0 -0.553 0.448 -1 1 -1 h 12.818 c 0.552 0 1 0.447 1 1 v 4.475 C 21.448 83.799 19.025 86.223 16.047 86.223 z M 8.63 77.346 v 3.475 c 0 1.876 1.526 3.402 3.401 3.402 h 4.015 c 1.875 0 3.401 -1.526 3.401 -3.402 v -3.475 H 8.63 z" style="stroke: none; stroke-width: 1; stroke-dasharray: none; stroke-linecap: butt; stroke-linejoin: miter; stroke-miterlimit: 10; fill: rgb(29,29,27); fill-rule: nonzero; opacity: 1;" transform=" matrix(1 0 0 1 0 0) " stroke-linecap="round" />
	<path d="M 77.968 86.223 h -4.015 c -2.979 0 -5.401 -2.424 -5.401 -5.402 v -4.475 c 0 -0.553 0.447 -1 1 -1 H 82.37 c 0.553 0 1 0.447 1 1 v 4.475 C 83.37 83.799 80.946 86.223 77.968 86.223 z M 70.552 77.346 v 3.475 c 0 1.876 1.525 3.402 3.401 3.402 h 4.015 c 1.876 0 3.402 -1.526 3.402 -3.402 v -3.475 H 70.552 z" style="stroke: none; stroke-width: 1; stroke-dasharray: none; stroke-linecap: butt; stroke-linejoin: miter; stroke-miterlimit: 10; fill: rgb(29,29,27); fill-rule: nonzero; opacity: 1;" transform=" matrix(1 0 0 1 0 0) " stroke-linecap="round" />
	<path d="M 39.63 4.778 L 39.63 4.778 c -3.982 7.537 -3.844 16.585 0.366 23.998 l 3.099 5.457 c 5.842 10.575 0.19 24.824 -6.358 30.585 H 20.71 c -6.548 -5.761 -12.2 -20.01 -6.358 -30.585 l 3.099 -5.457 c 4.21 -7.412 4.348 -16.46 0.366 -23.998 l 0 0 H 39.63 z" style="stroke: none; stroke-width: 1; stroke-dasharray: none; stroke-linecap: butt; stroke-linejoin: miter; stroke-miterlimit: 10; fill: rgb(234,234,234); fill-rule: nonzero; opacity: 1;" transform=" matrix(1 0 0 1 0 0) " stroke-linecap="round" />
	<path d="M 55.466 45.478 c -2.483 7.083 1.144 15.672 5.312 19.339 h 11.188 c 4.168 -3.667 7.795 -12.256 5.312 -19.339 H 55.466 z" style="stroke: none; stroke-width: 1; stroke-dasharray: none; stroke-linecap: butt; stroke-linejoin: miter; stroke-miterlimit: 10; fill: rgb(234,234,234); fill-rule: nonzero; opacity: 1;" transform=" matrix(1 0 0 1 0 0) " stroke-linecap="round" />
	<path d="M 36.738 65.817 H 20.709 c -0.243 0 -0.478 -0.089 -0.661 -0.249 c -6.642 -5.845 -12.804 -20.538 -6.572 -31.82 l 3.105 -5.467 c 4.063 -7.152 4.194 -15.764 0.352 -23.036 c -0.164 -0.31 -0.153 -0.683 0.028 -0.983 s 0.506 -0.484 0.856 -0.484 H 39.63 c 0.351 0 0.675 0.184 0.856 0.484 s 0.191 0.673 0.028 0.983 c -3.842 7.272 -3.711 15.884 0.352 23.037 l 3.1 5.456 c 6.239 11.292 0.076 25.986 -6.567 31.831 C 37.216 65.729 36.981 65.817 36.738 65.817 z M 21.093 63.817 h 15.261 c 6.162 -5.685 11.301 -19.265 5.866 -29.102 l -3.094 -5.446 c -4.131 -7.273 -4.51 -15.939 -1.099 -23.492 H 19.42 c 3.411 7.552 3.032 16.218 -1.099 23.491 l -3.1 5.457 C 9.793 44.553 14.932 58.133 21.093 63.817 z" style="stroke: none; stroke-width: 1; stroke-dasharray: none; stroke-linecap: butt; stroke-linejoin: miter; stroke-miterlimit: 10; fill: rgb(29,29,27); fill-rule: nonzero; opacity: 1;" transform=" matrix(1 0 0 1 0 0) " stroke-linecap="round" />
	<path d="M 71.966 65.817 H 60.778 c -0.243 0 -0.478 -0.089 -0.66 -0.249 c -4.688 -4.124 -8.16 -13.104 -5.596 -20.421 c 0.14 -0.401 0.519 -0.669 0.943 -0.669 h 21.813 c 0.425 0 0.804 0.269 0.943 0.669 c 2.564 7.316 -0.908 16.297 -5.596 20.421 C 72.443 65.729 72.209 65.817 71.966 65.817 z M 61.166 63.817 h 10.412 c 3.455 -3.265 6.881 -10.765 4.971 -17.339 H 56.195 C 54.285 53.053 57.711 60.553 61.166 63.817 z" style="stroke: none; stroke-width: 1; stroke-dasharray: none; stroke-linecap: butt; stroke-linejoin: miter; stroke-miterlimit: 10; fill: rgb(29,29,27); fill-rule: nonzero; opacity: 1;" transform=" matrix(1 0 0 1 0 0) " stroke-linecap="round" />
	<circle cx="28.726999999999997" cy="44.666999999999994" r="8.007" style="stroke: none; stroke-width: 1; stroke-dasharray: none; stroke-linecap: butt; stroke-linejoin: miter; stroke-miterlimit: 10; fill: rgb(255,108,82); fill-rule: nonzero; opacity: 1;" transform="  matrix(1 0 0 1 0 0) "/>
	<path d="M 28.724 53.67 c -4.966 0 -9.007 -4.04 -9.007 -9.006 s 4.041 -9.007 9.007 -9.007 s 9.007 4.041 9.007 9.007 S 33.69 53.67 28.724 53.67 z M 28.724 37.657 c -3.864 0 -7.007 3.143 -7.007 7.007 s 3.143 7.006 7.007 7.006 s 7.007 -3.143 7.007 -7.006 S 32.587 37.657 28.724 37.657 z" style="stroke: none; stroke-width: 1; stroke-dasharray: none; stroke-linecap: butt; stroke-linejoin: miter; stroke-miterlimit: 10; fill: rgb(29,29,27); fill-rule: nonzero; opacity: 1;" transform=" matrix(1 0 0 1 0 0) " stroke-linecap="round" />
</g>
</svg>