<?xml version="1.0" encoding="UTF-8" standalone="no" ?>
<!DOCTYPE svg PUBLIC "-//W3C//DTD SVG 1.1//EN" "http://www.w3.org/Graphics/SVG/1.1/DTD/svg11.dtd">
<svg xmlns="http://www.w3.org/2000/svg" xmlns:xlink="http://www.w3.org/1999/xlink" version="1.1" width="350" height="350" viewBox="0 0 350 350" xml:space="preserve">
<desc>Created with Fabric.js 1.7.22</desc>
<defs>
</defs>
<g id="icon" style="stroke: none; stroke-width: 1; stroke-dasharray: none; stroke-linecap: butt; stroke-linejoin: miter; stroke-miterlimit: 10; fill: none; fill-rule: nonzero; opacity: 1;" transform="translate(-1.9444444444444287 -1.9444444444444287) scale(3.89 3.89)" >
	<path d="M 45 65.006 v 16.539 c -3.453 0 -6.588 -1.218 -8.899 -3.2 L 45 65.006 z" style="stroke: none; stroke-width: 1; stroke-dasharray: none; stroke-linecap: butt; stroke-linejoin: miter; stroke-miterlimit: 10; fill: rgb(221,221,221); fill-rule: nonzero; opacity: 1;" transform=" matrix(1 0 0 1 0 0) " stroke-linecap="round" />
	<path d="M 45 65.006 v 16.539 c 3.453 0 6.588 -1.218 8.899 -3.2 L 45 65.006 z" style="stroke: none; stroke-width: 1; stroke-dasharray: none; stroke-linecap: butt; stroke-linejoin: miter; stroke-miterlimit: 10; fill: rgb(234,234,234); fill-rule: nonzero; opacity: 1;" transform=" matrix(1 0 0 1 0 0) " stroke-linecap="round" />
	<line x1="15.214" y1="22.805" x2="-15.214" y2="-22.805" style="stroke: none; stroke-width: 1; stroke-dasharray: none; stroke-linecap: butt; stroke-linejoin: miter; stroke-miterlimit: 10; fill: rgb(29,29,27); fill-rule: nonzero; opacity: 1;" transform=" matrix(1 0 0 1 0 0) "/>
	<line x1="-15.213999999999999" y1="22.805" x2="15.213999999999999" y2="-22.805" style="stroke: none; stroke-width: 1; stroke-dasharray: none; stroke-linecap: butt; stroke-linejoin: miter; stroke-miterlimit: 10; fill: rgb(29,29,27); fill-rule: nonzero; opacity: 1;" transform=" matrix(1 0 0 1 0 0) "/>
	<line x1="6.7355" y1="10.096" x2="-6.7355" y2="-10.096" style="stroke: none; stroke-width: 1; stroke-dasharray: none; stroke-linecap: butt; stroke-linejoin: miter; stroke-miterlimit: 10; fill: rgb(29,29,27); fill-rule: nonzero; opacity: 1;" transform=" matrix(1 0 0 1 0 0) "/>
	<path d="M 25.52 57.415 c 0 -4.954 2.306 -9.426 6.009 -12.602 L 14.572 19.396 C 6.208 26.569 1 36.67 1 47.86 c 0 0.374 0.006 0.747 0.017 1.118 l 24.51 8.932 C 25.523 57.746 25.52 57.581 25.52 57.415 z" style="stroke: none; stroke-width: 1; stroke-dasharray: none; stroke-linecap: butt; stroke-linejoin: miter; stroke-miterlimit: 10; fill: rgb(255,108,82); fill-rule: nonzero; opacity: 1;" transform=" matrix(1 0 0 1 0 0) " stroke-linecap="round" />
	<path d="M 45 8.455 c -11.806 0 -22.525 4.164 -30.428 10.942 L 45 65.006 L 31.529 44.813 c 3.499 -3.001 8.245 -4.844 13.471 -4.844 V 8.455 z" style="stroke: none; stroke-width: 1; stroke-dasharray: none; stroke-linecap: butt; stroke-linejoin: miter; stroke-miterlimit: 10; fill: rgb(243,83,58); fill-rule: nonzero; opacity: 1;" transform=" matrix(1 0 0 1 0 0) " stroke-linecap="round" />
	<line x1="-6.735499999999998" y1="10.096" x2="6.735499999999998" y2="-10.096" style="stroke: none; stroke-width: 1; stroke-dasharray: none; stroke-linecap: butt; stroke-linejoin: miter; stroke-miterlimit: 10; fill: rgb(29,29,27); fill-rule: nonzero; opacity: 1;" transform=" matrix(1 0 0 1 0 0) "/>
	<path d="M 75.428 19.396 L 58.471 44.813 c 3.703 3.176 6.009 7.648 6.009 12.602 c 0 0.166 -0.003 0.331 -0.008 0.495 l 24.51 -8.932 C 88.994 48.607 89 48.234 89 47.86 C 89 36.67 83.792 26.569 75.428 19.396 z" style="stroke: none; stroke-width: 1; stroke-dasharray: none; stroke-linecap: butt; stroke-linejoin: miter; stroke-miterlimit: 10; fill: rgb(243,83,58); fill-rule: nonzero; opacity: 1;" transform=" matrix(1 0 0 1 0 0) " stroke-linecap="round" />
	<path d="M 75.428 19.396 C 67.525 12.619 56.806 8.455 45 8.455 v 31.515 c 5.227 0 9.973 1.843 13.471 4.844 L 45 65.006 L 75.428 19.396 z" style="stroke: none; stroke-width: 1; stroke-dasharray: none; stroke-linecap: butt; stroke-linejoin: miter; stroke-miterlimit: 10; fill: rgb(255,108,82); fill-rule: nonzero; opacity: 1;" transform=" matrix(1 0 0 1 0 0) " stroke-linecap="round" />
	<path d="M 45.001 66.006 c -0.323 0 -0.64 -0.156 -0.833 -0.445 L 13.74 19.952 c -0.306 -0.459 -0.182 -1.081 0.277 -1.387 c 0.46 -0.307 1.081 -0.182 1.387 0.277 l 30.428 45.61 c 0.307 0.459 0.183 1.08 -0.277 1.387 C 45.384 65.951 45.191 66.006 45.001 66.006 z" style="stroke: none; stroke-width: 1; stroke-dasharray: none; stroke-linecap: butt; stroke-linejoin: miter; stroke-miterlimit: 10; fill: rgb(29,29,27); fill-rule: nonzero; opacity: 1;" transform=" matrix(1 0 0 1 0 0) " stroke-linecap="round" />
	<path d="M 45 66.006 c -0.115 0 -0.23 -0.02 -0.342 -0.061 L 0.675 49.918 c -0.384 -0.14 -0.645 -0.499 -0.657 -0.908 C 0.006 48.629 0 48.245 0 47.86 c 0 -11.146 4.944 -21.524 13.921 -29.224 c 0.217 -0.187 0.505 -0.271 0.787 -0.231 c 0.284 0.039 0.537 0.198 0.696 0.436 l 30.428 45.61 c 0.24 0.359 0.222 0.833 -0.046 1.173 C 45.593 65.87 45.301 66.006 45 66.006 z M 2.002 48.273 l 40.471 14.747 L 14.375 20.902 C 6.386 28.131 2 37.663 2 47.86 C 2 47.998 2.001 48.136 2.002 48.273 z" style="stroke: none; stroke-width: 1; stroke-dasharray: none; stroke-linecap: butt; stroke-linejoin: miter; stroke-miterlimit: 10; fill: rgb(29,29,27); fill-rule: nonzero; opacity: 1;" transform=" matrix(1 0 0 1 0 0) " stroke-linecap="round" />
	<path d="M 45 66.006 c -0.328 0 -0.643 -0.162 -0.832 -0.445 L 13.74 19.951 c -0.281 -0.421 -0.203 -0.985 0.181 -1.314 C 22.329 11.426 33.367 7.455 45 7.455 c 0.552 0 1 0.448 1 1 v 56.551 c 0 0.44 -0.289 0.829 -0.71 0.957 C 45.194 65.992 45.097 66.006 45 66.006 z M 15.901 19.586 L 44 61.705 V 9.465 C 33.522 9.678 23.613 13.247 15.901 19.586 z" style="stroke: none; stroke-width: 1; stroke-dasharray: none; stroke-linecap: butt; stroke-linejoin: miter; stroke-miterlimit: 10; fill: rgb(29,29,27); fill-rule: nonzero; opacity: 1;" transform=" matrix(1 0 0 1 0 0) " stroke-linecap="round" />
	<path d="M 44.999 66.006 c -0.19 0 -0.383 -0.055 -0.554 -0.168 c -0.459 -0.307 -0.583 -0.928 -0.277 -1.387 l 30.428 -45.61 c 0.307 -0.458 0.928 -0.584 1.387 -0.277 c 0.46 0.307 0.584 0.928 0.277 1.387 L 45.832 65.561 C 45.639 65.85 45.322 66.006 44.999 66.006 z" style="stroke: none; stroke-width: 1; stroke-dasharray: none; stroke-linecap: butt; stroke-linejoin: miter; stroke-miterlimit: 10; fill: rgb(29,29,27); fill-rule: nonzero; opacity: 1;" transform=" matrix(1 0 0 1 0 0) " stroke-linecap="round" />
	<path d="M 45 66.006 c -0.301 0 -0.593 -0.136 -0.786 -0.382 c -0.267 -0.34 -0.286 -0.813 -0.046 -1.173 l 30.428 -45.61 c 0.159 -0.238 0.412 -0.396 0.695 -0.436 c 0.287 -0.039 0.571 0.046 0.788 0.231 C 85.056 26.336 90 36.714 90 47.86 c 0 0.385 -0.006 0.769 -0.019 1.149 c -0.013 0.409 -0.272 0.769 -0.656 0.908 L 45.342 65.945 C 45.23 65.986 45.115 66.006 45 66.006 z M 75.625 20.902 L 47.526 63.021 l 40.471 -14.747 C 87.999 48.136 88 47.998 88 47.86 C 88 37.663 83.614 28.131 75.625 20.902 z M 88.982 48.979 h 0.01 H 88.982 z" style="stroke: none; stroke-width: 1; stroke-dasharray: none; stroke-linecap: butt; stroke-linejoin: miter; stroke-miterlimit: 10; fill: rgb(29,29,27); fill-rule: nonzero; opacity: 1;" transform=" matrix(1 0 0 1 0 0) " stroke-linecap="round" />
	<path d="M 45 66.006 c -0.097 0 -0.194 -0.014 -0.29 -0.043 C 44.289 65.835 44 65.446 44 65.006 V 8.455 c 0 -0.552 0.448 -1 1 -1 c 11.634 0 22.671 3.971 31.079 11.182 c 0.384 0.33 0.461 0.894 0.181 1.314 L 45.832 65.561 C 45.643 65.844 45.328 66.006 45 66.006 z M 46 9.465 v 52.24 l 28.099 -42.119 C 66.387 13.247 56.478 9.678 46 9.465 z" style="stroke: none; stroke-width: 1; stroke-dasharray: none; stroke-linecap: butt; stroke-linejoin: miter; stroke-miterlimit: 10; fill: rgb(29,29,27); fill-rule: nonzero; opacity: 1;" transform=" matrix(1 0 0 1 0 0) " stroke-linecap="round" />
	<path d="M 45.001 66.006 c -0.323 0 -0.64 -0.156 -0.833 -0.445 L 30.697 45.369 c -0.306 -0.459 -0.182 -1.081 0.277 -1.387 c 0.46 -0.308 1.081 -0.182 1.387 0.277 l 13.471 20.193 c 0.307 0.459 0.183 1.08 -0.277 1.387 C 45.384 65.951 45.191 66.006 45.001 66.006 z" style="stroke: none; stroke-width: 1; stroke-dasharray: none; stroke-linecap: butt; stroke-linejoin: miter; stroke-miterlimit: 10; fill: rgb(29,29,27); fill-rule: nonzero; opacity: 1;" transform=" matrix(1 0 0 1 0 0) " stroke-linecap="round" />
	<path d="M 45 66.006 c -0.115 0 -0.23 -0.02 -0.342 -0.061 l -19.48 -7.095 c -0.438 -0.159 -0.697 -0.594 -0.653 -1.038 c -0.003 -0.132 -0.005 -0.265 -0.005 -0.397 c 0 -5.1 2.258 -9.845 6.358 -13.361 c 0.217 -0.186 0.502 -0.271 0.787 -0.231 c 0.284 0.039 0.537 0.198 0.696 0.436 l 13.471 20.193 c 0.24 0.359 0.222 0.832 -0.046 1.173 C 45.593 65.87 45.301 66.006 45 66.006 z M 26.521 57.212 l 15.953 5.81 L 31.343 46.337 C 28.275 49.321 26.576 53.139 26.521 57.212 z" style="stroke: none; stroke-width: 1; stroke-dasharray: none; stroke-linecap: butt; stroke-linejoin: miter; stroke-miterlimit: 10; fill: rgb(29,29,27); fill-rule: nonzero; opacity: 1;" transform=" matrix(1 0 0 1 0 0) " stroke-linecap="round" />
	<path d="M 45 66.006 c -0.328 0 -0.643 -0.162 -0.832 -0.445 L 30.697 45.369 c -0.281 -0.421 -0.203 -0.985 0.181 -1.314 c 3.823 -3.279 8.839 -5.085 14.122 -5.085 c 0.552 0 1 0.448 1 1 v 25.037 c 0 0.44 -0.289 0.829 -0.71 0.957 C 45.194 65.992 45.097 66.006 45 66.006 z M 32.864 45.014 L 44 61.705 V 40.993 C 39.874 41.189 35.98 42.594 32.864 45.014 z" style="stroke: none; stroke-width: 1; stroke-dasharray: none; stroke-linecap: butt; stroke-linejoin: miter; stroke-miterlimit: 10; fill: rgb(29,29,27); fill-rule: nonzero; opacity: 1;" transform=" matrix(1 0 0 1 0 0) " stroke-linecap="round" />
	<path d="M 44.999 66.006 c -0.19 0 -0.383 -0.055 -0.554 -0.168 c -0.459 -0.307 -0.583 -0.928 -0.277 -1.387 l 13.471 -20.193 c 0.307 -0.459 0.927 -0.585 1.387 -0.277 c 0.46 0.307 0.584 0.928 0.277 1.387 L 45.832 65.561 C 45.639 65.85 45.322 66.006 44.999 66.006 z" style="stroke: none; stroke-width: 1; stroke-dasharray: none; stroke-linecap: butt; stroke-linejoin: miter; stroke-miterlimit: 10; fill: rgb(29,29,27); fill-rule: nonzero; opacity: 1;" transform=" matrix(1 0 0 1 0 0) " stroke-linecap="round" />
	<path d="M 45 66.006 c -0.301 0 -0.593 -0.136 -0.787 -0.382 c -0.267 -0.341 -0.285 -0.813 -0.045 -1.173 L 57.64 44.258 c 0.159 -0.238 0.412 -0.396 0.695 -0.436 c 0.288 -0.041 0.571 0.045 0.788 0.232 c 4.1 3.517 6.357 8.262 6.357 13.36 c 0 0.133 -0.002 0.265 -0.005 0.396 c 0.045 0.444 -0.214 0.88 -0.653 1.04 l -19.48 7.095 C 45.23 65.986 45.115 66.006 45 66.006 z M 58.657 46.337 L 47.526 63.021 l 15.953 -5.81 C 63.424 53.14 61.726 49.322 58.657 46.337 z" style="stroke: none; stroke-width: 1; stroke-dasharray: none; stroke-linecap: butt; stroke-linejoin: miter; stroke-miterlimit: 10; fill: rgb(29,29,27); fill-rule: nonzero; opacity: 1;" transform=" matrix(1 0 0 1 0 0) " stroke-linecap="round" />
	<path d="M 45 66.006 c -0.097 0 -0.194 -0.014 -0.29 -0.043 C 44.289 65.835 44 65.446 44 65.006 V 39.969 c 0 -0.552 0.448 -1 1 -1 c 5.283 0 10.299 1.806 14.123 5.085 c 0.384 0.33 0.461 0.894 0.181 1.314 L 45.832 65.561 C 45.643 65.844 45.328 66.006 45 66.006 z M 46 40.993 v 20.712 l 11.136 -16.691 C 54.02 42.594 50.127 41.189 46 40.993 z" style="stroke: none; stroke-width: 1; stroke-dasharray: none; stroke-linecap: butt; stroke-linejoin: miter; stroke-miterlimit: 10; fill: rgb(29,29,27); fill-rule: nonzero; opacity: 1;" transform=" matrix(1 0 0 1 0 0) " stroke-linecap="round" />
	<path d="M 45 82.545 c -3.571 0 -6.962 -1.222 -9.55 -3.44 c -0.384 -0.329 -0.462 -0.893 -0.181 -1.313 l 8.899 -13.34 c 0.245 -0.366 0.699 -0.532 1.122 -0.402 c 0.421 0.128 0.71 0.517 0.71 0.957 v 16.539 C 46 82.098 45.552 82.545 45 82.545 z M 37.443 78.136 c 1.868 1.371 4.143 2.194 6.557 2.372 V 68.307 L 37.443 78.136 z" style="stroke: none; stroke-width: 1; stroke-dasharray: none; stroke-linecap: butt; stroke-linejoin: miter; stroke-miterlimit: 10; fill: rgb(29,29,27); fill-rule: nonzero; opacity: 1;" transform=" matrix(1 0 0 1 0 0) " stroke-linecap="round" />
	<path d="M 45 82.545 c -0.552 0 -1 -0.447 -1 -1 V 65.006 c 0 -0.44 0.289 -0.829 0.71 -0.957 c 0.421 -0.13 0.877 0.036 1.122 0.402 l 8.899 13.34 c 0.28 0.421 0.203 0.984 -0.182 1.313 C 51.962 81.323 48.57 82.545 45 82.545 z M 46 68.307 v 12.201 c 2.414 -0.178 4.688 -1.001 6.557 -2.372 L 46 68.307 z" style="stroke: none; stroke-width: 1; stroke-dasharray: none; stroke-linecap: butt; stroke-linejoin: miter; stroke-miterlimit: 10; fill: rgb(29,29,27); fill-rule: nonzero; opacity: 1;" transform=" matrix(1 0 0 1 0 0) " stroke-linecap="round" />
	<circle cx="44.998" cy="64.44800000000001" r="7.698" style="stroke: none; stroke-width: 1; stroke-dasharray: none; stroke-linecap: butt; stroke-linejoin: miter; stroke-miterlimit: 10; fill: rgb(245,216,130); fill-rule: nonzero; opacity: 1;" transform="  matrix(1 0 0 1 0 0) "/>
	<path d="M 45 73.144 c -4.796 0 -8.698 -3.902 -8.698 -8.698 s 3.902 -8.698 8.698 -8.698 s 8.698 3.902 8.698 8.698 S 49.796 73.144 45 73.144 z M 45 57.747 c -3.693 0 -6.698 3.005 -6.698 6.698 s 3.004 6.698 6.698 6.698 s 6.698 -3.005 6.698 -6.698 S 48.693 57.747 45 57.747 z" style="stroke: none; stroke-width: 1; stroke-dasharray: none; stroke-linecap: butt; stroke-linejoin: miter; stroke-miterlimit: 10; fill: rgb(29,29,27); fill-rule: nonzero; opacity: 1;" transform=" matrix(1 0 0 1 0 0) " stroke-linecap="round" />
</g>
</svg>