<?xml version="1.0" encoding="UTF-8" standalone="no" ?>
<!DOCTYPE svg PUBLIC "-//W3C//DTD SVG 1.1//EN" "http://www.w3.org/Graphics/SVG/1.1/DTD/svg11.dtd">
<svg xmlns="http://www.w3.org/2000/svg" xmlns:xlink="http://www.w3.org/1999/xlink" version="1.1" width="350" height="350" viewBox="0 0 350 350" xml:space="preserve">
<desc>Created with Fabric.js 1.7.22</desc>
<defs>
</defs>
<g id="icon" style="stroke: none; stroke-width: 1; stroke-dasharray: none; stroke-linecap: butt; stroke-linejoin: miter; stroke-miterlimit: 10; fill: none; fill-rule: nonzero; opacity: 1;" transform="translate(-1.9444444444444287 -1.9444444444444287) scale(3.89 3.89)" >
	<path d="M 37.857 62.043 c 0 4.623 -6.981 8.371 -15.592 8.371 S 6.673 66.666 6.673 62.043 V 34.986 h 31.184 V 62.043 z" style="stroke: none; stroke-width: 1; stroke-dasharray: none; stroke-linecap: butt; stroke-linejoin: miter; stroke-miterlimit: 10; fill: rgb(172,167,167); fill-rule: nonzero; opacity: 1;" transform=" matrix(1 0 0 1 0 0) " stroke-linecap="round" />
	<path d="M 22.265 71.414 c -9.304 0 -16.592 -4.116 -16.592 -9.371 V 34.985 c 0 -0.552 0.448 -1 1 -1 h 31.184 c 0.552 0 1 0.448 1 1 v 27.058 C 38.857 67.298 31.569 71.414 22.265 71.414 z M 7.673 35.985 v 26.058 c 0 3.995 6.682 7.371 14.592 7.371 s 14.592 -3.376 14.592 -7.371 V 35.985 H 7.673 z" style="stroke: none; stroke-width: 1; stroke-dasharray: none; stroke-linecap: butt; stroke-linejoin: miter; stroke-miterlimit: 10; fill: rgb(29,29,27); fill-rule: nonzero; opacity: 1;" transform=" matrix(1 0 0 1 0 0) " stroke-linecap="round" />
	<ellipse cx="22.262" cy="34.981" rx="15.592" ry="8.371" style="stroke: none; stroke-width: 1; stroke-dasharray: none; stroke-linecap: butt; stroke-linejoin: miter; stroke-miterlimit: 10; fill: rgb(234,234,234); fill-rule: nonzero; opacity: 1;" transform=" matrix(1 0 0 1 0 0) "/>
	<ellipse cx="22.269000000000002" cy="34.981" rx="6.149" ry="3.301" style="stroke: none; stroke-width: 1; stroke-dasharray: none; stroke-linecap: butt; stroke-linejoin: miter; stroke-miterlimit: 10; fill: rgb(177,223,99); fill-rule: nonzero; opacity: 1;" transform=" matrix(1 0 0 1 0 0) "/>
	<path d="M 22.265 44.356 c -9.304 0 -16.592 -4.116 -16.592 -9.371 c 0 -5.254 7.288 -9.371 16.592 -9.371 s 16.592 4.116 16.592 9.371 C 38.857 40.24 31.569 44.356 22.265 44.356 z M 22.265 27.615 c -7.91 0 -14.592 3.376 -14.592 7.371 c 0 3.996 6.682 7.371 14.592 7.371 s 14.592 -3.376 14.592 -7.371 C 36.857 30.99 30.175 27.615 22.265 27.615 z" style="stroke: none; stroke-width: 1; stroke-dasharray: none; stroke-linecap: butt; stroke-linejoin: miter; stroke-miterlimit: 10; fill: rgb(29,29,27); fill-rule: nonzero; opacity: 1;" transform=" matrix(1 0 0 1 0 0) " stroke-linecap="round" />
	<path d="M 22.265 39.287 c -4.076 0 -7.149 -1.849 -7.149 -4.302 c 0 -2.452 3.074 -4.301 7.149 -4.301 s 7.149 1.849 7.149 4.301 C 29.414 37.438 26.341 39.287 22.265 39.287 z M 22.265 32.684 c -2.947 0 -5.149 1.215 -5.149 2.301 c 0 1.086 2.202 2.302 5.149 2.302 s 5.149 -1.215 5.149 -2.302 C 27.414 33.899 25.212 32.684 22.265 32.684 z" style="stroke: none; stroke-width: 1; stroke-dasharray: none; stroke-linecap: butt; stroke-linejoin: miter; stroke-miterlimit: 10; fill: rgb(29,29,27); fill-rule: nonzero; opacity: 1;" transform=" matrix(1 0 0 1 0 0) " stroke-linecap="round" />
	<path d="M 18.389 64.055 L 18.389 64.055 c -1.094 -0.885 -1.263 -2.489 -0.377 -3.583 L 65.385 1.945 c 0.885 -1.094 2.489 -1.263 3.583 -0.377 l 0 0 c 1.094 0.885 1.263 2.489 0.377 3.583 L 21.972 63.678 C 21.086 64.771 19.482 64.94 18.389 64.055 z" style="stroke: none; stroke-width: 1; stroke-dasharray: none; stroke-linecap: butt; stroke-linejoin: miter; stroke-miterlimit: 10; fill: rgb(243,181,137); fill-rule: nonzero; opacity: 1;" transform=" matrix(1 0 0 1 0 0) " stroke-linecap="round" />
	<path d="M 19.985 65.623 c -0.81 0 -1.588 -0.274 -2.226 -0.791 c -0.736 -0.596 -1.197 -1.443 -1.296 -2.386 c -0.099 -0.942 0.174 -1.867 0.771 -2.604 L 64.608 1.315 c 0.596 -0.736 1.443 -1.197 2.386 -1.296 c 0.953 -0.096 1.868 0.175 2.604 0.771 c 0.737 0.596 1.197 1.444 1.297 2.386 c 0.099 0.942 -0.175 1.867 -0.771 2.604 L 22.749 64.307 c -0.596 0.737 -1.444 1.197 -2.386 1.296 C 20.237 65.616 20.11 65.623 19.985 65.623 z M 67.368 2 c -0.056 0 -0.11 0.002 -0.165 0.008 c -0.411 0.043 -0.781 0.244 -1.041 0.565 L 18.788 61.101 c -0.26 0.321 -0.379 0.725 -0.336 1.136 c 0.043 0.411 0.244 0.781 0.565 1.041 h 0 c 0.321 0.261 0.722 0.378 1.136 0.337 c 0.411 -0.044 0.78 -0.244 1.041 -0.565 L 68.568 4.521 c 0.261 -0.322 0.38 -0.725 0.337 -1.136 c -0.044 -0.411 -0.244 -0.78 -0.565 -1.041 C 68.061 2.119 67.721 2 67.368 2 z" style="stroke: none; stroke-width: 1; stroke-dasharray: none; stroke-linecap: butt; stroke-linejoin: miter; stroke-miterlimit: 10; fill: rgb(29,29,27); fill-rule: nonzero; opacity: 1;" transform=" matrix(1 0 0 1 0 0) " stroke-linecap="round" />
	<path d="M 60.428 80.629 c 0 4.623 -6.981 8.371 -15.592 8.371 s -15.592 -3.748 -15.592 -8.371 V 53.572 h 31.184 V 80.629 z" style="stroke: none; stroke-width: 1; stroke-dasharray: none; stroke-linecap: butt; stroke-linejoin: miter; stroke-miterlimit: 10; fill: rgb(172,167,167); fill-rule: nonzero; opacity: 1;" transform=" matrix(1 0 0 1 0 0) " stroke-linecap="round" />
	<path d="M 44.836 90 c -9.304 0 -16.591 -4.116 -16.591 -9.371 V 53.572 c 0 -0.553 0.448 -1 1 -1 h 31.183 c 0.553 0 1 0.447 1 1 v 27.057 C 61.428 85.884 54.14 90 44.836 90 z M 30.245 54.572 v 26.057 c 0 3.995 6.682 7.371 14.591 7.371 s 14.592 -3.376 14.592 -7.371 V 54.572 H 30.245 z" style="stroke: none; stroke-width: 1; stroke-dasharray: none; stroke-linecap: butt; stroke-linejoin: miter; stroke-miterlimit: 10; fill: rgb(29,29,27); fill-rule: nonzero; opacity: 1;" transform=" matrix(1 0 0 1 0 0) " stroke-linecap="round" />
	<ellipse cx="44.832" cy="53.571000000000005" rx="15.592" ry="8.371" style="stroke: none; stroke-width: 1; stroke-dasharray: none; stroke-linecap: butt; stroke-linejoin: miter; stroke-miterlimit: 10; fill: rgb(234,234,234); fill-rule: nonzero; opacity: 1;" transform=" matrix(1 0 0 1 0 0) "/>
	<ellipse cx="44.839" cy="53.571000000000005" rx="6.149" ry="3.301" style="stroke: none; stroke-width: 1; stroke-dasharray: none; stroke-linecap: butt; stroke-linejoin: miter; stroke-miterlimit: 10; fill: rgb(245,216,130); fill-rule: nonzero; opacity: 1;" transform=" matrix(1 0 0 1 0 0) "/>
	<path d="M 44.836 62.942 c -9.304 0 -16.591 -4.116 -16.591 -9.37 c 0 -5.255 7.288 -9.371 16.591 -9.371 s 16.592 4.116 16.592 9.371 C 61.428 58.826 54.14 62.942 44.836 62.942 z M 44.836 46.201 c -7.909 0 -14.591 3.376 -14.591 7.371 s 6.682 7.37 14.591 7.37 s 14.592 -3.375 14.592 -7.37 S 52.745 46.201 44.836 46.201 z" style="stroke: none; stroke-width: 1; stroke-dasharray: none; stroke-linecap: butt; stroke-linejoin: miter; stroke-miterlimit: 10; fill: rgb(29,29,27); fill-rule: nonzero; opacity: 1;" transform=" matrix(1 0 0 1 0 0) " stroke-linecap="round" />
	<path d="M 44.836 57.873 c -4.076 0 -7.149 -1.849 -7.149 -4.301 c 0 -2.452 3.073 -4.302 7.149 -4.302 c 4.076 0 7.149 1.85 7.149 4.302 C 51.985 56.024 48.912 57.873 44.836 57.873 z M 44.836 51.271 c -2.947 0 -5.149 1.215 -5.149 2.302 c 0 1.086 2.202 2.301 5.149 2.301 c 2.947 0 5.149 -1.215 5.149 -2.301 C 49.985 52.485 47.783 51.271 44.836 51.271 z" style="stroke: none; stroke-width: 1; stroke-dasharray: none; stroke-linecap: butt; stroke-linejoin: miter; stroke-miterlimit: 10; fill: rgb(29,29,27); fill-rule: nonzero; opacity: 1;" transform=" matrix(1 0 0 1 0 0) " stroke-linecap="round" />
	<path d="M 47.374 78.91 L 47.374 78.91 c -1.271 -0.604 -1.812 -2.123 -1.208 -3.394 L 78.477 7.503 c 0.604 -1.271 2.123 -1.812 3.394 -1.208 l 0 0 c 1.271 0.604 1.812 2.123 1.208 3.394 L 50.768 77.702 C 50.164 78.973 48.645 79.514 47.374 78.91 z" style="stroke: none; stroke-width: 1; stroke-dasharray: none; stroke-linecap: butt; stroke-linejoin: miter; stroke-miterlimit: 10; fill: rgb(243,181,137); fill-rule: nonzero; opacity: 1;" transform=" matrix(1 0 0 1 0 0) " stroke-linecap="round" />
	<path d="M 48.461 80.156 c -0.51 0 -1.026 -0.11 -1.516 -0.343 c -0.001 0 -0.001 0 -0.001 0 c -1.766 -0.841 -2.521 -2.961 -1.682 -4.727 L 77.574 7.074 c 0.406 -0.856 1.122 -1.502 2.015 -1.82 c 0.892 -0.318 1.856 -0.27 2.711 0.138 c 0.856 0.407 1.503 1.123 1.821 2.015 c 0.317 0.893 0.269 1.856 -0.139 2.712 L 51.672 78.131 C 51.064 79.408 49.788 80.156 48.461 80.156 z M 47.803 78.007 c 0.773 0.366 1.696 0.036 2.063 -0.734 L 82.176 9.261 c 0.178 -0.374 0.199 -0.793 0.061 -1.183 c -0.139 -0.389 -0.421 -0.702 -0.794 -0.879 c -0.374 -0.177 -0.795 -0.199 -1.183 -0.06 c -0.39 0.139 -0.701 0.42 -0.879 0.793 L 47.069 75.945 C 46.703 76.715 47.032 77.64 47.803 78.007 L 47.803 78.007 z" style="stroke: none; stroke-width: 1; stroke-dasharray: none; stroke-linecap: butt; stroke-linejoin: miter; stroke-miterlimit: 10; fill: rgb(29,29,27); fill-rule: nonzero; opacity: 1;" transform=" matrix(1 0 0 1 0 0) " stroke-linecap="round" />
</g>
</svg>