<?xml version="1.0" encoding="UTF-8" standalone="no" ?>
<!DOCTYPE svg PUBLIC "-//W3C//DTD SVG 1.1//EN" "http://www.w3.org/Graphics/SVG/1.1/DTD/svg11.dtd">
<svg xmlns="http://www.w3.org/2000/svg" xmlns:xlink="http://www.w3.org/1999/xlink" version="1.1" width="350" height="350" viewBox="0 0 350 350" xml:space="preserve">
<desc>Created with Fabric.js 1.7.22</desc>
<defs>
</defs>
<g id="icon" style="stroke: none; stroke-width: 1; stroke-dasharray: none; stroke-linecap: butt; stroke-linejoin: miter; stroke-miterlimit: 10; fill: none; fill-rule: nonzero; opacity: 1;" transform="translate(-1.9444444444444287 -1.9444444444444287) scale(3.89 3.89)" >
	<path d="M 82.326 68.205 c 0 11.488 -14.59 20.801 -32.588 20.801 s -31.445 -9.37 -32.588 -20.801 c -1.566 -15.658 12.926 -25.231 32.588 -20.801 C 67.295 51.36 82.326 56.716 82.326 68.205 z" style="stroke: none; stroke-width: 1; stroke-dasharray: none; stroke-linecap: butt; stroke-linejoin: miter; stroke-miterlimit: 10; fill: rgb(172,167,167); fill-rule: nonzero; opacity: 1;" transform=" matrix(1 0 0 1 0 0) " stroke-linecap="round" />
	<path d="M 49.738 90.006 c -17.908 0 -32.346 -9.33 -33.584 -21.702 c -0.676 -6.765 1.554 -12.796 6.281 -16.979 c 6.353 -5.621 16.387 -7.407 27.522 -4.897 c 17.331 3.906 33.368 9.247 33.368 21.776 C 83.326 80.225 68.259 90.006 49.738 90.006 z M 40.386 47.315 c -6.714 0 -12.527 1.883 -16.625 5.508 c -4.294 3.8 -6.236 9.084 -5.616 15.281 c 1.134 11.345 14.717 19.901 31.593 19.901 c 17.417 0 31.588 -8.883 31.588 -19.801 c 0 -11.153 -16.079 -16.28 -31.808 -19.825 C 46.351 47.665 43.284 47.315 40.386 47.315 z" style="stroke: none; stroke-width: 1; stroke-dasharray: none; stroke-linecap: butt; stroke-linejoin: miter; stroke-miterlimit: 10; fill: rgb(0,0,0); fill-rule: nonzero; opacity: 1;" transform=" matrix(1 0 0 1 0 0) " stroke-linecap="round" />
	<path d="M 26.133 34.144 c -2.271 8.878 7.162 18.959 21.071 22.518 s 26.153 -1.024 29.296 -9.631 c 4.306 -11.791 -5.001 -22.054 -21.071 -22.518 C 41.079 24.099 28.404 25.267 26.133 34.144 z" style="stroke: none; stroke-width: 1; stroke-dasharray: none; stroke-linecap: butt; stroke-linejoin: miter; stroke-miterlimit: 10; fill: rgb(172,167,167); fill-rule: nonzero; opacity: 1;" transform=" matrix(1 0 0 1 0 0) " stroke-linecap="round" />
	<path d="M 56.481 58.863 c -3.054 0 -6.266 -0.398 -9.526 -1.232 c -6.909 -1.768 -12.977 -5.16 -17.085 -9.55 c -4.221 -4.511 -5.892 -9.549 -4.706 -14.185 c 2.513 -9.821 16.039 -10.795 30.294 -10.383 c 9.168 0.264 16.626 3.659 20.462 9.314 c 2.864 4.223 3.403 9.389 1.52 14.546 C 74.804 54.587 66.494 58.863 56.481 58.863 z M 50.778 25.441 c -11.209 0 -21.767 1.491 -23.676 8.952 l 0 0 c -1.011 3.951 0.491 8.327 4.229 12.322 c 3.851 4.115 9.576 7.304 16.121 8.979 c 12.937 3.309 25.025 -0.561 28.109 -9.005 c 1.681 -4.604 1.233 -9.008 -1.296 -12.738 c -3.47 -5.116 -10.346 -8.192 -18.865 -8.438 C 53.861 25.469 52.312 25.441 50.778 25.441 z M 26.133 34.145 h 0.01 H 26.133 z" style="stroke: none; stroke-width: 1; stroke-dasharray: none; stroke-linecap: butt; stroke-linejoin: miter; stroke-miterlimit: 10; fill: rgb(0,0,0); fill-rule: nonzero; opacity: 1;" transform=" matrix(1 0 0 1 0 0) " stroke-linecap="round" />
	<path d="M 68.011 20.421 c 1.859 -7.267 -5.863 -15.52 -17.248 -18.433 S 29.355 2.826 26.782 9.872 c -3.525 9.652 4.093 18.053 17.248 18.433 C 55.777 28.644 66.152 27.688 68.011 20.421 z" style="stroke: none; stroke-width: 1; stroke-dasharray: none; stroke-linecap: butt; stroke-linejoin: miter; stroke-miterlimit: 10; fill: rgb(172,167,167); fill-rule: nonzero; opacity: 1;" transform=" matrix(1 0 0 1 0 0) " stroke-linecap="round" />
	<path d="M 47.946 29.366 c -1.3 0 -2.618 -0.023 -3.945 -0.062 c -7.564 -0.218 -13.722 -3.026 -16.894 -7.705 c -2.378 -3.506 -2.827 -7.793 -1.264 -12.071 c 2.847 -7.793 13.667 -11.454 25.169 -8.51 c 11.9 3.045 19.961 11.86 17.969 19.649 c 0 0 0 0 0 0 C 67.128 27.909 58.144 29.366 47.946 29.366 z M 43.11 1.997 c -7.412 0 -13.499 3.044 -15.388 8.218 c -1.356 3.711 -0.996 7.26 1.041 10.263 c 2.807 4.139 8.382 6.628 15.296 6.828 c 10.389 0.302 21.239 -0.312 22.984 -7.132 v 0 c 1.719 -6.722 -5.695 -14.445 -16.527 -17.216 C 47.975 2.307 45.474 1.997 43.11 1.997 z M 68.012 20.421 h 0.01 H 68.012 z" style="stroke: none; stroke-width: 1; stroke-dasharray: none; stroke-linecap: butt; stroke-linejoin: miter; stroke-miterlimit: 10; fill: rgb(0,0,0); fill-rule: nonzero; opacity: 1;" transform=" matrix(1 0 0 1 0 0) " stroke-linecap="round" />
	<path d="M 12.652 38.03 c -0.622 0.682 0.054 2.13 0.245 2.88 c -0.765 -0.122 -2.269 -0.661 -2.891 0.021 c -0.589 0.646 -0.822 1.679 -0.657 2.911 c 0.162 1.209 0.695 2.519 1.542 3.788 c 0.813 1.218 1.858 2.161 2.797 2.844 c -1.018 0.422 -2.249 1.085 -3.352 2.135 c -1.105 1.052 -1.914 2.212 -2.338 3.356 c -0.432 1.165 -0.432 2.225 0 2.984 c 0.456 0.802 2.043 0.607 2.815 0.657 c -0.352 0.689 -1.33 1.953 -0.873 2.755 c 0.432 0.759 1.343 1.301 2.565 1.524 c 1.2 0.22 2.61 0.117 4.079 -0.296 c 1.399 -0.394 2.602 -1.074 3.55 -1.761 c 0.11 1.15 0.387 2.517 1.014 3.827 c 0.659 1.376 1.512 2.504 2.469 3.261 c 0.975 0.771 1.982 1.098 2.838 0.922 c 0.904 -0.186 1.209 -1.755 1.494 -2.475 c 0.547 0.548 1.447 1.868 2.351 1.682 c 0.856 -0.176 1.652 -0.875 2.243 -1.968 c 0.58 -1.073 0.918 -2.447 0.979 -3.971 c 0.058 -1.45 -0.217 -2.801 -0.576 -3.914 c 1.141 0.255 2.512 0.404 3.951 0.212 c 1.512 -0.201 2.848 -0.664 3.864 -1.341 c 1.034 -0.688 1.657 -1.546 1.754 -2.414 c 0.102 -0.917 -1.296 -1.692 -1.892 -2.186 c 0.69 -0.351 2.224 -0.799 2.327 -1.716 c 0.096 -0.868 -0.322 -1.842 -1.179 -2.741 c -0.842 -0.883 -2.043 -1.629 -3.474 -2.158 c -1.396 -0.516 -2.813 -0.619 -3.94 -0.598 c 0.608 -1.016 1.195 -2.299 1.462 -3.756 c 0.276 -1.501 0.248 -2.914 -0.081 -4.089 c -0.122 -0.434 -0.281 -0.823 -0.473 -1.16 c -0.337 -0.592 -0.774 -1.024 -1.281 -1.253 c -0.84 -0.381 -2.009 0.709 -2.663 1.123 c -0.12 -0.765 -0.072 -2.362 -0.913 -2.743 c -0.796 -0.36 -1.851 -0.263 -2.971 0.275 c -1.1 0.528 -2.181 1.44 -3.126 2.637 c -0.908 1.149 -1.481 2.434 -1.841 3.538 c -0.715 -0.837 -1.727 -1.803 -3.066 -2.528 c -1.342 -0.726 -2.695 -1.136 -3.914 -1.186 C 14.248 37.057 13.24 37.385 12.652 38.03 z" style="stroke: none; stroke-width: 1; stroke-dasharray: none; stroke-linecap: butt; stroke-linejoin: miter; stroke-miterlimit: 10; fill: rgb(255,215,209); fill-rule: nonzero; opacity: 1;" transform=" matrix(1 0 0 1 0 0) " stroke-linecap="round" />
	<path d="M 25.992 70.884 c -0.972 0 -2.013 -0.407 -2.995 -1.184 c -1.077 -0.852 -2.028 -2.101 -2.751 -3.613 c -0.38 -0.794 -0.67 -1.661 -0.868 -2.589 c -0.824 0.46 -1.668 0.813 -2.523 1.054 c -1.615 0.454 -3.182 0.563 -4.53 0.316 c -1.518 -0.277 -2.674 -0.993 -3.254 -2.014 c -0.434 -0.762 -0.243 -1.586 0.083 -2.304 c -0.784 -0.088 -1.59 -0.345 -2.024 -1.107 c -0.581 -1.022 -0.605 -2.381 -0.068 -3.828 c 0.477 -1.286 1.371 -2.577 2.586 -3.733 c 0.647 -0.615 1.384 -1.158 2.202 -1.623 c -0.7 -0.646 -1.299 -1.34 -1.79 -2.075 c -0.931 -1.396 -1.519 -2.852 -1.701 -4.21 c -0.205 -1.529 0.118 -2.849 0.91 -3.717 c 0.591 -0.649 1.435 -0.719 2.218 -0.634 c -0.159 -0.772 -0.164 -1.619 0.427 -2.267 l 0 0 c 0.791 -0.868 2.075 -1.313 3.618 -1.248 c 1.37 0.056 2.874 0.507 4.349 1.306 c 0.785 0.425 1.529 0.958 2.225 1.592 c 0.398 -0.865 0.873 -1.65 1.421 -2.344 c 1.039 -1.316 2.241 -2.325 3.478 -2.919 c 1.39 -0.667 2.745 -0.77 3.816 -0.284 c 0.799 0.362 1.13 1.142 1.289 1.914 c 0.686 -0.39 1.489 -0.655 2.288 -0.294 c 0.694 0.314 1.295 0.892 1.738 1.67 c 0.234 0.411 0.425 0.878 0.567 1.386 c 0.37 1.32 0.405 2.89 0.102 4.54 c -0.162 0.882 -0.44 1.765 -0.831 2.638 c 0.961 0.095 1.854 0.294 2.671 0.596 c 1.573 0.582 2.905 1.414 3.851 2.406 c 1.064 1.117 1.579 2.375 1.45 3.542 c -0.098 0.872 -0.737 1.427 -1.422 1.818 c 0.583 0.53 1.084 1.213 0.986 2.084 c -0.13 1.168 -0.909 2.282 -2.193 3.136 c -1.143 0.761 -2.625 1.279 -4.287 1.499 c -0.879 0.117 -1.792 0.127 -2.729 0.03 c 0.183 0.925 0.257 1.835 0.222 2.721 c -0.067 1.676 -0.447 3.199 -1.098 4.406 c -0.733 1.357 -1.771 2.236 -2.921 2.473 c -0.859 0.178 -1.585 -0.26 -2.167 -0.791 c -0.325 0.718 -0.819 1.405 -1.678 1.583 C 26.441 70.863 26.218 70.884 25.992 70.884 z M 20.134 60.829 c 0.14 0 0.28 0.029 0.412 0.089 c 0.327 0.147 0.549 0.459 0.584 0.816 c 0.125 1.301 0.435 2.475 0.921 3.491 c 0.593 1.238 1.349 2.244 2.188 2.908 c 0.727 0.574 1.459 0.84 2.016 0.727 c 0.186 -0.123 0.455 -0.946 0.569 -1.298 c 0.07 -0.213 0.134 -0.408 0.197 -0.566 c 0.125 -0.313 0.398 -0.542 0.728 -0.61 c 0.331 -0.066 0.672 0.034 0.91 0.273 c 0.121 0.12 0.257 0.274 0.406 0.442 c 0.244 0.277 0.816 0.927 1.07 0.965 c 0.518 -0.112 1.089 -0.647 1.53 -1.463 c 0.507 -0.94 0.805 -2.161 0.86 -3.535 c 0.045 -1.14 -0.132 -2.339 -0.528 -3.568 c -0.11 -0.341 -0.029 -0.715 0.213 -0.981 c 0.242 -0.265 0.608 -0.382 0.957 -0.302 c 1.26 0.282 2.471 0.349 3.6 0.196 c 1.362 -0.181 2.552 -0.589 3.442 -1.181 c 0.773 -0.515 1.252 -1.132 1.314 -1.693 c -0.06 -0.217 -0.76 -0.727 -1.06 -0.944 c -0.18 -0.132 -0.345 -0.252 -0.476 -0.36 c -0.26 -0.215 -0.394 -0.546 -0.356 -0.881 c 0.037 -0.335 0.24 -0.629 0.541 -0.781 c 0.151 -0.077 0.339 -0.159 0.545 -0.248 c 0.34 -0.147 1.135 -0.489 1.249 -0.72 c 0.054 -0.528 -0.278 -1.236 -0.918 -1.908 c -0.737 -0.773 -1.808 -1.434 -3.097 -1.91 c -1.029 -0.379 -2.222 -0.564 -3.575 -0.535 c -0.352 -0.002 -0.701 -0.185 -0.883 -0.499 s -0.179 -0.703 0.007 -1.015 c 0.678 -1.132 1.128 -2.284 1.337 -3.423 c 0.249 -1.351 0.228 -2.609 -0.061 -3.638 c -0.099 -0.352 -0.226 -0.667 -0.379 -0.937 c -0.232 -0.408 -0.518 -0.697 -0.824 -0.836 c -0.002 0 -0.004 0 -0.006 0 c -0.23 0 -0.921 0.5 -1.217 0.715 c -0.182 0.131 -0.349 0.251 -0.493 0.343 c -0.284 0.18 -0.639 0.206 -0.947 0.066 c -0.307 -0.139 -0.523 -0.423 -0.575 -0.755 c -0.026 -0.168 -0.047 -0.374 -0.068 -0.597 c -0.034 -0.368 -0.115 -1.23 -0.299 -1.409 c -0.484 -0.214 -1.26 -0.117 -2.097 0.284 c -0.963 0.462 -1.922 1.277 -2.773 2.355 c -0.704 0.89 -1.267 1.976 -1.676 3.228 c -0.112 0.344 -0.401 0.601 -0.756 0.671 c -0.359 0.068 -0.721 -0.057 -0.955 -0.331 c -0.836 -0.979 -1.772 -1.752 -2.782 -2.298 c -1.208 -0.654 -2.411 -1.023 -3.478 -1.067 c -0.912 -0.037 -1.658 0.174 -2.043 0.581 c -0.085 0.252 0.175 1.055 0.287 1.402 c 0.069 0.213 0.131 0.408 0.173 0.573 c 0.084 0.327 -0.003 0.673 -0.23 0.922 c -0.227 0.249 -0.562 0.369 -0.897 0.314 c -0.168 -0.027 -0.368 -0.071 -0.586 -0.12 c -0.362 -0.081 -1.205 -0.271 -1.434 -0.151 c -0.354 0.396 -0.502 1.162 -0.378 2.082 c 0.142 1.058 0.619 2.222 1.382 3.366 c 0.629 0.943 1.488 1.815 2.554 2.59 c 0.293 0.213 0.447 0.567 0.404 0.927 c -0.043 0.359 -0.276 0.667 -0.61 0.806 c -1.189 0.493 -2.213 1.144 -3.045 1.935 c -0.995 0.946 -1.717 1.977 -2.089 2.979 c -0.323 0.87 -0.348 1.652 -0.068 2.143 c 0.175 0.139 1.042 0.14 1.412 0.141 c 0.223 0 0.428 0.001 0.597 0.012 c 0.336 0.021 0.639 0.21 0.806 0.503 c 0.167 0.293 0.175 0.649 0.021 0.95 c -0.078 0.151 -0.182 0.329 -0.296 0.523 c -0.189 0.317 -0.629 1.062 -0.586 1.315 c 0.267 0.459 0.95 0.837 1.864 1.004 c 1.05 0.191 2.305 0.098 3.628 -0.275 c 1.099 -0.309 2.187 -0.85 3.235 -1.608 C 19.721 60.894 19.927 60.829 20.134 60.829 z M 13.392 38.704 C 13.391 38.704 13.391 38.704 13.392 38.704 C 13.391 38.704 13.391 38.704 13.392 38.704 z M 12.652 38.03 h 0.01 H 12.652 z" style="stroke: none; stroke-width: 1; stroke-dasharray: none; stroke-linecap: butt; stroke-linejoin: miter; stroke-miterlimit: 10; fill: rgb(29,29,27); fill-rule: nonzero; opacity: 1;" transform=" matrix(1 0 0 1 0 0) " stroke-linecap="round" />
	<circle cx="24.388" cy="52.017999999999994" r="3.038" style="stroke: none; stroke-width: 1; stroke-dasharray: none; stroke-linecap: butt; stroke-linejoin: miter; stroke-miterlimit: 10; fill: rgb(255,155,135); fill-rule: nonzero; opacity: 1;" transform="  matrix(1 0 0 1 0 0) "/>
</g>
</svg>